<?xml version="1.0" encoding="utf-8" standalone="no"?>
<!DOCTYPE svg PUBLIC "-//W3C//DTD SVG 1.1//EN"
  "http://www.w3.org/Graphics/SVG/1.1/DTD/svg11.dtd">
<!-- Created with matplotlib (https://matplotlib.org/) -->
<svg height="144pt" version="1.1" viewBox="0 0 576 144" width="576pt" xmlns="http://www.w3.org/2000/svg" xmlns:xlink="http://www.w3.org/1999/xlink">
 <defs>
  <style type="text/css">
*{stroke-linecap:butt;stroke-linejoin:round;}
  </style>
 </defs>
 <g id="figure_1">
  <g id="patch_1">
   <path d="M 0 144 
L 576 144 
L 576 0 
L 0 0 
z
" style="fill:none;"/>
  </g>
  <g id="axes_1">
   <g id="matplotlib.axis_1">
    <g id="xtick_1">
     <g id="line2d_1">
      <defs>
       <path d="M 0 0 
L 0 3.5 
" id="m1e69b08f02" style="stroke:#000000;stroke-width:0.8;"/>
      </defs>
      <g>
       <use style="stroke:#000000;stroke-width:0.8;" x="26.181818" xlink:href="#m1e69b08f02" y="144"/>
      </g>
     </g>
     <g id="text_1">
      <!-- 0 -->
      <defs>
       <path d="M 31.78125 66.40625 
Q 24.171875 66.40625 20.328125 58.90625 
Q 16.5 51.421875 16.5 36.375 
Q 16.5 21.390625 20.328125 13.890625 
Q 24.171875 6.390625 31.78125 6.390625 
Q 39.453125 6.390625 43.28125 13.890625 
Q 47.125 21.390625 47.125 36.375 
Q 47.125 51.421875 43.28125 58.90625 
Q 39.453125 66.40625 31.78125 66.40625 
z
M 31.78125 74.21875 
Q 44.046875 74.21875 50.515625 64.515625 
Q 56.984375 54.828125 56.984375 36.375 
Q 56.984375 17.96875 50.515625 8.265625 
Q 44.046875 -1.421875 31.78125 -1.421875 
Q 19.53125 -1.421875 13.0625 8.265625 
Q 6.59375 17.96875 6.59375 36.375 
Q 6.59375 54.828125 13.0625 64.515625 
Q 19.53125 74.21875 31.78125 74.21875 
z
" id="DejaVuSans-48"/>
      </defs>
      <g transform="translate(23.000568 158.598437)scale(0.1 -0.1)">
       <use xlink:href="#DejaVuSans-48"/>
      </g>
     </g>
    </g>
    <g id="xtick_2">
     <g id="line2d_2">
      <g>
       <use style="stroke:#000000;stroke-width:0.8;" x="114.18793" xlink:href="#m1e69b08f02" y="144"/>
      </g>
     </g>
     <g id="text_2">
      <!-- 20 -->
      <defs>
       <path d="M 19.1875 8.296875 
L 53.609375 8.296875 
L 53.609375 0 
L 7.328125 0 
L 7.328125 8.296875 
Q 12.9375 14.109375 22.625 23.890625 
Q 32.328125 33.6875 34.8125 36.53125 
Q 39.546875 41.84375 41.421875 45.53125 
Q 43.3125 49.21875 43.3125 52.78125 
Q 43.3125 58.59375 39.234375 62.25 
Q 35.15625 65.921875 28.609375 65.921875 
Q 23.96875 65.921875 18.8125 64.3125 
Q 13.671875 62.703125 7.8125 59.421875 
L 7.8125 69.390625 
Q 13.765625 71.78125 18.9375 73 
Q 24.125 74.21875 28.421875 74.21875 
Q 39.75 74.21875 46.484375 68.546875 
Q 53.21875 62.890625 53.21875 53.421875 
Q 53.21875 48.921875 51.53125 44.890625 
Q 49.859375 40.875 45.40625 35.40625 
Q 44.1875 33.984375 37.640625 27.21875 
Q 31.109375 20.453125 19.1875 8.296875 
z
" id="DejaVuSans-50"/>
      </defs>
      <g transform="translate(107.82543 158.598437)scale(0.1 -0.1)">
       <use xlink:href="#DejaVuSans-50"/>
       <use x="63.623047" xlink:href="#DejaVuSans-48"/>
      </g>
     </g>
    </g>
    <g id="xtick_3">
     <g id="line2d_3">
      <g>
       <use style="stroke:#000000;stroke-width:0.8;" x="202.194041" xlink:href="#m1e69b08f02" y="144"/>
      </g>
     </g>
     <g id="text_3">
      <!-- 40 -->
      <defs>
       <path d="M 37.796875 64.3125 
L 12.890625 25.390625 
L 37.796875 25.390625 
z
M 35.203125 72.90625 
L 47.609375 72.90625 
L 47.609375 25.390625 
L 58.015625 25.390625 
L 58.015625 17.1875 
L 47.609375 17.1875 
L 47.609375 0 
L 37.796875 0 
L 37.796875 17.1875 
L 4.890625 17.1875 
L 4.890625 26.703125 
z
" id="DejaVuSans-52"/>
      </defs>
      <g transform="translate(195.831541 158.598437)scale(0.1 -0.1)">
       <use xlink:href="#DejaVuSans-52"/>
       <use x="63.623047" xlink:href="#DejaVuSans-48"/>
      </g>
     </g>
    </g>
    <g id="xtick_4">
     <g id="line2d_4">
      <g>
       <use style="stroke:#000000;stroke-width:0.8;" x="290.200153" xlink:href="#m1e69b08f02" y="144"/>
      </g>
     </g>
     <g id="text_4">
      <!-- 60 -->
      <defs>
       <path d="M 33.015625 40.375 
Q 26.375 40.375 22.484375 35.828125 
Q 18.609375 31.296875 18.609375 23.390625 
Q 18.609375 15.53125 22.484375 10.953125 
Q 26.375 6.390625 33.015625 6.390625 
Q 39.65625 6.390625 43.53125 10.953125 
Q 47.40625 15.53125 47.40625 23.390625 
Q 47.40625 31.296875 43.53125 35.828125 
Q 39.65625 40.375 33.015625 40.375 
z
M 52.59375 71.296875 
L 52.59375 62.3125 
Q 48.875 64.0625 45.09375 64.984375 
Q 41.3125 65.921875 37.59375 65.921875 
Q 27.828125 65.921875 22.671875 59.328125 
Q 17.53125 52.734375 16.796875 39.40625 
Q 19.671875 43.65625 24.015625 45.921875 
Q 28.375 48.1875 33.59375 48.1875 
Q 44.578125 48.1875 50.953125 41.515625 
Q 57.328125 34.859375 57.328125 23.390625 
Q 57.328125 12.15625 50.6875 5.359375 
Q 44.046875 -1.421875 33.015625 -1.421875 
Q 20.359375 -1.421875 13.671875 8.265625 
Q 6.984375 17.96875 6.984375 36.375 
Q 6.984375 53.65625 15.1875 63.9375 
Q 23.390625 74.21875 37.203125 74.21875 
Q 40.921875 74.21875 44.703125 73.484375 
Q 48.484375 72.75 52.59375 71.296875 
z
" id="DejaVuSans-54"/>
      </defs>
      <g transform="translate(283.837653 158.598437)scale(0.1 -0.1)">
       <use xlink:href="#DejaVuSans-54"/>
       <use x="63.623047" xlink:href="#DejaVuSans-48"/>
      </g>
     </g>
    </g>
    <g id="xtick_5">
     <g id="line2d_5">
      <g>
       <use style="stroke:#000000;stroke-width:0.8;" x="378.206264" xlink:href="#m1e69b08f02" y="144"/>
      </g>
     </g>
     <g id="text_5">
      <!-- 80 -->
      <defs>
       <path d="M 31.78125 34.625 
Q 24.75 34.625 20.71875 30.859375 
Q 16.703125 27.09375 16.703125 20.515625 
Q 16.703125 13.921875 20.71875 10.15625 
Q 24.75 6.390625 31.78125 6.390625 
Q 38.8125 6.390625 42.859375 10.171875 
Q 46.921875 13.96875 46.921875 20.515625 
Q 46.921875 27.09375 42.890625 30.859375 
Q 38.875 34.625 31.78125 34.625 
z
M 21.921875 38.8125 
Q 15.578125 40.375 12.03125 44.71875 
Q 8.5 49.078125 8.5 55.328125 
Q 8.5 64.0625 14.71875 69.140625 
Q 20.953125 74.21875 31.78125 74.21875 
Q 42.671875 74.21875 48.875 69.140625 
Q 55.078125 64.0625 55.078125 55.328125 
Q 55.078125 49.078125 51.53125 44.71875 
Q 48 40.375 41.703125 38.8125 
Q 48.828125 37.15625 52.796875 32.3125 
Q 56.78125 27.484375 56.78125 20.515625 
Q 56.78125 9.90625 50.3125 4.234375 
Q 43.84375 -1.421875 31.78125 -1.421875 
Q 19.734375 -1.421875 13.25 4.234375 
Q 6.78125 9.90625 6.78125 20.515625 
Q 6.78125 27.484375 10.78125 32.3125 
Q 14.796875 37.15625 21.921875 38.8125 
z
M 18.3125 54.390625 
Q 18.3125 48.734375 21.84375 45.5625 
Q 25.390625 42.390625 31.78125 42.390625 
Q 38.140625 42.390625 41.71875 45.5625 
Q 45.3125 48.734375 45.3125 54.390625 
Q 45.3125 60.0625 41.71875 63.234375 
Q 38.140625 66.40625 31.78125 66.40625 
Q 25.390625 66.40625 21.84375 63.234375 
Q 18.3125 60.0625 18.3125 54.390625 
z
" id="DejaVuSans-56"/>
      </defs>
      <g transform="translate(371.843764 158.598437)scale(0.1 -0.1)">
       <use xlink:href="#DejaVuSans-56"/>
       <use x="63.623047" xlink:href="#DejaVuSans-48"/>
      </g>
     </g>
    </g>
    <g id="xtick_6">
     <g id="line2d_6">
      <g>
       <use style="stroke:#000000;stroke-width:0.8;" x="466.212376" xlink:href="#m1e69b08f02" y="144"/>
      </g>
     </g>
     <g id="text_6">
      <!-- 100 -->
      <defs>
       <path d="M 12.40625 8.296875 
L 28.515625 8.296875 
L 28.515625 63.921875 
L 10.984375 60.40625 
L 10.984375 69.390625 
L 28.421875 72.90625 
L 38.28125 72.90625 
L 38.28125 8.296875 
L 54.390625 8.296875 
L 54.390625 0 
L 12.40625 0 
z
" id="DejaVuSans-49"/>
      </defs>
      <g transform="translate(456.668626 158.598437)scale(0.1 -0.1)">
       <use xlink:href="#DejaVuSans-49"/>
       <use x="63.623047" xlink:href="#DejaVuSans-48"/>
       <use x="127.246094" xlink:href="#DejaVuSans-48"/>
      </g>
     </g>
    </g>
    <g id="xtick_7">
     <g id="line2d_7">
      <g>
       <use style="stroke:#000000;stroke-width:0.8;" x="554.218487" xlink:href="#m1e69b08f02" y="144"/>
      </g>
     </g>
     <g id="text_7">
      <!-- 120 -->
      <g transform="translate(544.674737 158.598437)scale(0.1 -0.1)">
       <use xlink:href="#DejaVuSans-49"/>
       <use x="63.623047" xlink:href="#DejaVuSans-50"/>
       <use x="127.246094" xlink:href="#DejaVuSans-48"/>
      </g>
     </g>
    </g>
   </g>
   <g id="matplotlib.axis_2">
    <g id="ytick_1">
     <g id="line2d_8">
      <defs>
       <path d="M 0 0 
L -3.5 0 
" id="mde9ba381a9" style="stroke:#000000;stroke-width:0.8;"/>
      </defs>
      <g>
       <use style="stroke:#000000;stroke-width:0.8;" x="0" xlink:href="#mde9ba381a9" y="137.454545"/>
      </g>
     </g>
     <g id="text_8">
      <!-- 0.00 -->
      <defs>
       <path d="M 10.6875 12.40625 
L 21 12.40625 
L 21 0 
L 10.6875 0 
z
" id="DejaVuSans-46"/>
      </defs>
      <g transform="translate(-29.265625 141.253764)scale(0.1 -0.1)">
       <use xlink:href="#DejaVuSans-48"/>
       <use x="63.623047" xlink:href="#DejaVuSans-46"/>
       <use x="95.410156" xlink:href="#DejaVuSans-48"/>
       <use x="159.033203" xlink:href="#DejaVuSans-48"/>
      </g>
     </g>
    </g>
    <g id="ytick_2">
     <g id="line2d_9">
      <g>
       <use style="stroke:#000000;stroke-width:0.8;" x="0" xlink:href="#mde9ba381a9" y="104.376606"/>
      </g>
     </g>
     <g id="text_9">
      <!-- 0.02 -->
      <g transform="translate(-29.265625 108.175825)scale(0.1 -0.1)">
       <use xlink:href="#DejaVuSans-48"/>
       <use x="63.623047" xlink:href="#DejaVuSans-46"/>
       <use x="95.410156" xlink:href="#DejaVuSans-48"/>
       <use x="159.033203" xlink:href="#DejaVuSans-50"/>
      </g>
     </g>
    </g>
    <g id="ytick_3">
     <g id="line2d_10">
      <g>
       <use style="stroke:#000000;stroke-width:0.8;" x="0" xlink:href="#mde9ba381a9" y="71.298667"/>
      </g>
     </g>
     <g id="text_10">
      <!-- 0.04 -->
      <g transform="translate(-29.265625 75.097885)scale(0.1 -0.1)">
       <use xlink:href="#DejaVuSans-48"/>
       <use x="63.623047" xlink:href="#DejaVuSans-46"/>
       <use x="95.410156" xlink:href="#DejaVuSans-48"/>
       <use x="159.033203" xlink:href="#DejaVuSans-52"/>
      </g>
     </g>
    </g>
    <g id="ytick_4">
     <g id="line2d_11">
      <g>
       <use style="stroke:#000000;stroke-width:0.8;" x="0" xlink:href="#mde9ba381a9" y="38.220727"/>
      </g>
     </g>
     <g id="text_11">
      <!-- 0.06 -->
      <g transform="translate(-29.265625 42.019946)scale(0.1 -0.1)">
       <use xlink:href="#DejaVuSans-48"/>
       <use x="63.623047" xlink:href="#DejaVuSans-46"/>
       <use x="95.410156" xlink:href="#DejaVuSans-48"/>
       <use x="159.033203" xlink:href="#DejaVuSans-54"/>
      </g>
     </g>
    </g>
    <g id="ytick_5">
     <g id="line2d_12">
      <g>
       <use style="stroke:#000000;stroke-width:0.8;" x="0" xlink:href="#mde9ba381a9" y="5.142788"/>
      </g>
     </g>
     <g id="text_12">
      <!-- 0.08 -->
      <g transform="translate(-29.265625 8.942007)scale(0.1 -0.1)">
       <use xlink:href="#DejaVuSans-48"/>
       <use x="63.623047" xlink:href="#DejaVuSans-46"/>
       <use x="95.410156" xlink:href="#DejaVuSans-48"/>
       <use x="159.033203" xlink:href="#DejaVuSans-56"/>
      </g>
     </g>
    </g>
   </g>
   <g id="line2d_13">
    <path clip-path="url(#p5535b2b938)" d="M 26.181818 6.545455 
L 30.582124 65.186345 
L 34.982429 84.747671 
L 39.382735 93.711824 
L 43.78304 100.384319 
L 48.183346 104.442003 
L 52.583652 106.010809 
L 56.983957 106.914283 
L 61.384263 107.534853 
L 65.784568 107.982222 
L 70.184874 108.062692 
L 74.58518 107.997654 
L 78.985485 108.024487 
L 83.385791 108.09063 
L 87.786096 108.332517 
L 92.186402 108.434209 
L 96.586707 108.539227 
L 100.987013 108.528842 
L 105.387319 108.711276 
L 109.787624 108.653854 
L 114.18793 108.777157 
L 118.588235 108.781336 
L 122.988541 108.794475 
L 127.388846 108.761636 
L 131.789152 108.530348 
L 136.189458 108.423171 
L 140.589763 108.412068 
L 144.990069 108.385127 
L 149.390374 108.182598 
L 153.79068 108.013283 
L 158.190985 107.933078 
L 162.591291 107.854764 
L 166.991597 107.518306 
L 171.391902 107.405449 
L 175.792208 107.585714 
L 180.192513 107.262565 
L 184.592819 107.342196 
L 188.993125 107.28869 
L 193.39343 106.951454 
L 197.793736 106.953731 
L 202.194041 106.666337 
L 206.594347 106.916759 
L 210.994652 106.717068 
L 215.394958 106.545145 
L 219.795264 106.34143 
L 224.195569 106.241467 
L 228.595875 106.03899 
L 232.99618 106.006409 
L 237.396486 105.92459 
L 241.796791 105.714797 
L 246.197097 105.434236 
L 250.597403 105.219527 
L 254.997708 105.040689 
L 259.398014 104.887549 
L 263.798319 104.913288 
L 268.198625 104.748295 
L 272.59893 104.413155 
L 276.999236 104.363963 
L 281.399542 104.047768 
L 285.799847 103.652102 
L 290.200153 103.731878 
L 294.600458 103.579777 
L 299.000764 103.342009 
L 303.40107 103.016789 
L 307.801375 102.684926 
L 312.201681 102.376473 
L 316.601986 102.191285 
L 321.002292 102.291647 
L 325.402597 101.927969 
L 329.802903 101.776755 
L 334.203209 101.337224 
L 338.603514 101.179882 
L 343.00382 100.718165 
L 347.404125 100.885621 
L 351.804431 100.98133 
L 356.204736 100.808161 
L 360.605042 100.58615 
L 365.005348 100.054968 
L 369.405653 99.611449 
L 373.805959 99.236129 
L 378.206264 99.252018 
L 382.60657 99.0738 
L 387.006875 99.156375 
L 391.407181 99.015711 
L 395.807487 98.923695 
L 400.207792 99.151168 
L 404.608098 98.867743 
L 409.008403 98.86438 
L 413.408709 98.950707 
L 417.809015 99.018915 
L 422.20932 99.041587 
L 426.609626 98.920509 
L 431.009931 98.849601 
L 435.410237 98.917421 
L 439.810542 98.77954 
L 444.210848 98.804459 
L 448.611154 99.047182 
L 453.011459 99.020163 
L 457.411765 98.916022 
L 461.81207 98.908122 
L 466.212376 98.860116 
L 470.612681 98.811431 
L 475.012987 98.782126 
L 479.413293 98.886868 
L 483.813598 98.759351 
L 488.213904 98.855753 
L 492.614209 98.92878 
L 497.014515 98.936629 
L 501.41482 98.750506 
L 505.815126 98.948732 
L 510.215432 99.043203 
L 514.615737 99.079414 
L 519.016043 98.970948 
L 523.416348 98.99326 
L 527.816654 99.087992 
L 532.21696 99.111421 
L 536.617265 99.127043 
L 541.017571 99.006057 
L 545.417876 99.022221 
L 549.818182 98.890257 
" style="fill:none;stroke:#001135;stroke-linecap:square;stroke-width:1.5;"/>
   </g>
   <g id="line2d_14">
    <path clip-path="url(#p5535b2b938)" d="M 26.181818 136.273508 
L 30.582124 136.139033 
L 34.982429 136.222776 
L 39.382735 136.1628 
L 43.78304 136.293484 
L 48.183346 136.307954 
L 52.583652 136.301601 
L 56.983957 136.303823 
L 61.384263 136.303408 
L 65.784568 136.321166 
L 70.184874 136.307611 
L 74.58518 136.302367 
L 78.985485 136.294386 
L 83.385791 136.295592 
L 87.786096 136.296081 
L 92.186402 136.287804 
L 96.586707 136.296174 
L 100.987013 136.285627 
L 105.387319 136.293956 
L 109.787624 136.277582 
L 114.18793 136.037172 
L 118.588235 135.696813 
L 122.988541 135.386501 
L 127.388846 135.111461 
L 131.789152 134.890289 
L 136.189458 134.800362 
L 140.589763 134.771339 
L 144.990069 134.54607 
L 149.390374 134.243847 
L 153.79068 133.991825 
L 158.190985 133.778832 
L 162.591291 133.607728 
L 166.991597 133.489378 
L 171.391902 133.441497 
L 175.792208 133.247869 
L 180.192513 132.929704 
L 184.592819 132.654512 
L 188.993125 132.364369 
L 193.39343 132.089511 
L 197.793736 131.832523 
L 202.194041 131.706949 
L 206.594347 131.448982 
L 210.994652 131.0809 
L 215.394958 130.693706 
L 219.795264 130.300325 
L 224.195569 129.950325 
L 228.595875 129.759543 
L 232.99618 129.560937 
L 237.396486 129.215621 
L 241.796791 128.747708 
L 246.197097 128.332454 
L 250.597403 127.946198 
L 254.997708 127.550809 
L 259.398014 127.379798 
L 263.798319 127.087475 
L 268.198625 126.561442 
L 272.59893 125.968347 
L 276.999236 125.487691 
L 281.399542 124.943005 
L 285.799847 124.388263 
L 290.200153 124.263567 
L 294.600458 123.667349 
L 299.000764 122.961107 
L 303.40107 122.171886 
L 307.801375 121.420825 
L 312.201681 120.749826 
L 316.601986 120.204139 
L 321.002292 119.369431 
L 325.402597 117.931912 
L 329.802903 116.620025 
L 334.203209 115.225691 
L 338.603514 113.92404 
L 343.00382 112.561402 
L 347.404125 111.191425 
L 351.804431 107.151945 
L 356.204736 102.802979 
L 360.605042 99.403815 
L 365.005348 95.928362 
L 369.405653 92.546977 
L 373.805959 89.418643 
L 378.206264 90.161542 
L 382.60657 90.595777 
L 387.006875 91.244319 
L 391.407181 91.432574 
L 395.807487 91.438788 
L 400.207792 91.934293 
L 404.608098 92.078529 
L 409.008403 92.051717 
L 413.408709 92.106453 
L 417.809015 92.300094 
L 422.20932 92.205351 
L 426.609626 92.162739 
L 431.009931 92.284807 
L 435.410237 92.591543 
L 439.810542 92.404407 
L 444.210848 92.569224 
L 448.611154 92.526985 
L 453.011459 92.543322 
L 457.411765 92.621357 
L 461.81207 92.745806 
L 466.212376 92.83114 
L 470.612681 92.809252 
L 475.012987 92.728598 
L 479.413293 92.828686 
L 483.813598 92.719151 
L 488.213904 92.762568 
L 492.614209 92.835965 
L 497.014515 92.706995 
L 501.41482 92.700706 
L 505.815126 92.910411 
L 510.215432 92.800783 
L 514.615737 92.845746 
L 519.016043 92.839923 
L 523.416348 92.979421 
L 527.816654 92.800202 
L 532.21696 93.019921 
L 536.617265 92.907849 
L 541.017571 92.96119 
L 545.417876 93.046316 
L 549.818182 92.953474 
" style="fill:none;stroke:#124191;stroke-linecap:square;stroke-width:1.5;"/>
   </g>
   <g id="line2d_15">
    <path clip-path="url(#p5535b2b938)" d="M 26.181818 22.953986 
L 30.582124 22.953986 
L 34.982429 22.953986 
L 39.382735 22.953986 
L 43.78304 22.953986 
L 48.183346 22.953986 
L 52.583652 22.953986 
L 56.983957 22.953986 
L 61.384263 22.953986 
L 65.784568 22.953986 
L 70.184874 22.953986 
L 74.58518 22.953986 
L 78.985485 22.953986 
L 83.385791 22.953986 
L 87.786096 22.953986 
L 92.186402 22.953986 
L 96.586707 22.953986 
L 100.987013 22.953986 
L 105.387319 22.953986 
L 109.787624 22.953986 
L 114.18793 24.862329 
L 118.588235 26.770671 
L 122.988541 28.679014 
L 127.388846 30.587357 
L 131.789152 32.495699 
L 136.189458 34.404042 
L 140.589763 36.312385 
L 144.990069 38.220727 
L 149.390374 40.12907 
L 153.79068 42.037413 
L 158.190985 43.945755 
L 162.591291 45.854098 
L 166.991597 47.762441 
L 171.391902 49.670783 
L 175.792208 51.579126 
L 180.192513 53.487469 
L 184.592819 55.395811 
L 188.993125 57.304154 
L 193.39343 59.212497 
L 197.793736 61.120839 
L 202.194041 63.029182 
L 206.594347 64.937525 
L 210.994652 66.845867 
L 215.394958 68.75421 
L 219.795264 70.662553 
L 224.195569 72.570895 
L 228.595875 74.479238 
L 232.99618 76.38758 
L 237.396486 78.295923 
L 241.796791 80.204266 
L 246.197097 82.112608 
L 250.597403 84.020951 
L 254.997708 85.929294 
L 259.398014 87.837636 
L 263.798319 89.745979 
L 268.198625 91.654322 
L 272.59893 93.562664 
L 276.999236 95.471007 
L 281.399542 97.37935 
L 285.799847 99.287692 
L 290.200153 101.196035 
L 294.600458 103.104378 
L 299.000764 105.01272 
L 303.40107 106.921063 
L 307.801375 108.829406 
L 312.201681 110.737748 
L 316.601986 112.646091 
L 321.002292 114.554434 
L 325.402597 116.462776 
L 329.802903 118.371119 
L 334.203209 120.279462 
L 338.603514 122.187804 
L 343.00382 124.096147 
L 347.404125 126.00449 
L 351.804431 127.912832 
L 356.204736 129.821175 
L 360.605042 131.729517 
L 365.005348 133.63786 
L 369.405653 135.546203 
L 373.805959 137.454545 
L 378.206264 137.454545 
L 382.60657 137.454545 
L 387.006875 137.454545 
L 391.407181 137.454545 
L 395.807487 137.454545 
L 400.207792 137.454545 
L 404.608098 137.454545 
L 409.008403 137.454545 
L 413.408709 137.454545 
L 417.809015 137.454545 
L 422.20932 137.454545 
L 426.609626 137.454545 
L 431.009931 137.454545 
L 435.410237 137.454545 
L 439.810542 137.454545 
L 444.210848 137.454545 
L 448.611154 137.454545 
L 453.011459 137.454545 
L 457.411765 137.454545 
L 461.81207 137.454545 
L 466.212376 137.454545 
L 470.612681 137.454545 
L 475.012987 137.454545 
L 479.413293 137.454545 
L 483.813598 137.454545 
L 488.213904 137.454545 
L 492.614209 137.454545 
L 497.014515 137.454545 
L 501.41482 137.454545 
L 505.815126 137.454545 
L 510.215432 137.454545 
L 514.615737 137.454545 
L 519.016043 137.454545 
L 523.416348 137.454545 
L 527.816654 137.454545 
L 532.21696 137.454545 
L 536.617265 137.454545 
L 541.017571 137.454545 
L 545.417876 137.454545 
L 549.818182 137.454545 
" style="fill:none;stroke:#00c9ff;stroke-dasharray:5.55,2.4;stroke-dashoffset:0;stroke-width:1.5;"/>
   </g>
   <g id="line2d_16">
    <path clip-path="url(#p5535b2b938)" d="M 26.181818 136.627597 
L 30.582124 136.627597 
L 34.982429 136.627597 
L 39.382735 136.627597 
L 43.78304 136.627597 
L 48.183346 136.627597 
L 52.583652 136.627597 
L 56.983957 136.627597 
L 61.384263 136.627597 
L 65.784568 136.627597 
L 70.184874 132.534202 
L 74.58518 128.440807 
L 78.985485 124.347412 
L 83.385791 120.254017 
L 87.786096 116.160622 
L 92.186402 112.067227 
L 96.586707 107.973832 
L 100.987013 103.880437 
L 105.387319 99.787042 
L 109.787624 95.693647 
L 114.18793 91.600252 
L 118.588235 87.506857 
L 122.988541 83.413462 
L 127.388846 79.320067 
L 131.789152 75.226672 
L 136.189458 71.133277 
L 140.589763 67.039882 
L 144.990069 62.946487 
L 149.390374 58.853092 
L 153.79068 54.759697 
L 158.190985 54.759697 
L 162.591291 54.759697 
L 166.991597 54.759697 
L 171.391902 54.759697 
L 175.792208 54.759697 
L 180.192513 54.759697 
L 184.592819 54.759697 
L 188.993125 54.759697 
L 193.39343 54.759697 
L 197.793736 54.759697 
L 202.194041 54.759697 
L 206.594347 54.759697 
L 210.994652 54.759697 
L 215.394958 54.759697 
L 219.795264 54.759697 
L 224.195569 54.759697 
L 228.595875 54.759697 
L 232.99618 54.759697 
L 237.396486 54.759697 
L 241.796791 54.759697 
L 246.197097 54.759697 
L 250.597403 54.759697 
L 254.997708 54.759697 
L 259.398014 54.759697 
L 263.798319 54.759697 
L 268.198625 54.759697 
L 272.59893 54.759697 
L 276.999236 54.759697 
L 281.399542 54.759697 
L 285.799847 54.759697 
L 290.200153 54.759697 
L 294.600458 54.759697 
L 299.000764 54.759697 
L 303.40107 54.759697 
L 307.801375 54.759697 
L 312.201681 54.759697 
L 316.601986 54.759697 
L 321.002292 54.759697 
L 325.402597 54.759697 
L 329.802903 54.759697 
L 334.203209 54.759697 
L 338.603514 54.759697 
L 343.00382 54.759697 
L 347.404125 54.759697 
L 351.804431 54.759697 
L 356.204736 54.759697 
L 360.605042 54.759697 
L 365.005348 54.759697 
L 369.405653 54.759697 
L 373.805959 54.759697 
L 378.206264 54.759697 
L 382.60657 54.759697 
L 387.006875 54.759697 
L 391.407181 54.759697 
L 395.807487 54.759697 
L 400.207792 54.759697 
L 404.608098 54.759697 
L 409.008403 54.759697 
L 413.408709 54.759697 
L 417.809015 54.759697 
L 422.20932 54.759697 
L 426.609626 54.759697 
L 431.009931 54.759697 
L 435.410237 54.759697 
L 439.810542 54.759697 
L 444.210848 54.759697 
L 448.611154 54.759697 
L 453.011459 54.759697 
L 457.411765 54.759697 
L 461.81207 54.759697 
L 466.212376 54.759697 
L 470.612681 54.759697 
L 475.012987 54.759697 
L 479.413293 54.759697 
L 483.813598 54.759697 
L 488.213904 54.759697 
L 492.614209 54.759697 
L 497.014515 54.759697 
L 501.41482 54.759697 
L 505.815126 54.759697 
L 510.215432 54.759697 
L 514.615737 54.759697 
L 519.016043 54.759697 
L 523.416348 54.759697 
L 527.816654 54.759697 
L 532.21696 54.759697 
L 536.617265 54.759697 
L 541.017571 54.759697 
L 545.417876 54.759697 
L 549.818182 54.759697 
" style="fill:none;stroke:#4bdd33;stroke-dasharray:5.55,2.4;stroke-dashoffset:0;stroke-width:1.5;"/>
   </g>
  </g>
 </g>
 <defs>
  <clipPath id="p5535b2b938">
   <rect height="144" width="576" x="0" y="0"/>
  </clipPath>
 </defs>
</svg>
