<?xml version="1.0" encoding="utf-8" standalone="no"?>
<!DOCTYPE svg PUBLIC "-//W3C//DTD SVG 1.1//EN"
  "http://www.w3.org/Graphics/SVG/1.1/DTD/svg11.dtd">
<!-- Created with matplotlib (https://matplotlib.org/) -->
<svg height="144pt" version="1.1" viewBox="0 0 144 144" width="144pt" xmlns="http://www.w3.org/2000/svg" xmlns:xlink="http://www.w3.org/1999/xlink">
 <defs>
  <style type="text/css">
*{stroke-linecap:butt;stroke-linejoin:round;}
  </style>
 </defs>
 <g id="figure_1">
  <g id="patch_1">
   <path d="M 0 144 
L 144 144 
L 144 0 
L 0 0 
z
" style="fill:#ffffff;"/>
  </g>
  <g id="axes_1">
   <g id="matplotlib.axis_1">
    <g id="xtick_1">
     <g id="line2d_1">
      <defs>
       <path d="M 0 0 
L 0 3.5 
" id="m4453045a19" style="stroke:#000000;stroke-width:0.8;"/>
      </defs>
      <g>
       <use style="stroke:#000000;stroke-width:0.8;" x="0" xlink:href="#m4453045a19" y="142.56"/>
      </g>
     </g>
    </g>
    <g id="xtick_2">
     <g id="line2d_2">
      <g>
       <use style="stroke:#000000;stroke-width:0.8;" x="36" xlink:href="#m4453045a19" y="142.56"/>
      </g>
     </g>
    </g>
    <g id="xtick_3">
     <g id="line2d_3">
      <g>
       <use style="stroke:#000000;stroke-width:0.8;" x="72" xlink:href="#m4453045a19" y="142.56"/>
      </g>
     </g>
    </g>
    <g id="xtick_4">
     <g id="line2d_4">
      <g>
       <use style="stroke:#000000;stroke-width:0.8;" x="108" xlink:href="#m4453045a19" y="142.56"/>
      </g>
     </g>
    </g>
    <g id="xtick_5">
     <g id="line2d_5">
      <g>
       <use style="stroke:#000000;stroke-width:0.8;" x="144" xlink:href="#m4453045a19" y="142.56"/>
      </g>
     </g>
    </g>
   </g>
   <g id="matplotlib.axis_2">
    <g id="ytick_1">
     <g id="line2d_6">
      <defs>
       <path d="M 0 0 
L -3.5 0 
" id="m6c2a7a4978" style="stroke:#000000;stroke-width:0.8;"/>
      </defs>
      <g>
       <use style="stroke:#000000;stroke-width:0.8;" x="0" xlink:href="#m6c2a7a4978" y="136.231395"/>
      </g>
     </g>
    </g>
    <g id="ytick_2">
     <g id="line2d_7">
      <g>
       <use style="stroke:#000000;stroke-width:0.8;" x="0" xlink:href="#m6c2a7a4978" y="114.319754"/>
      </g>
     </g>
    </g>
    <g id="ytick_3">
     <g id="line2d_8">
      <g>
       <use style="stroke:#000000;stroke-width:0.8;" x="0" xlink:href="#m6c2a7a4978" y="92.408113"/>
      </g>
     </g>
    </g>
    <g id="ytick_4">
     <g id="line2d_9">
      <g>
       <use style="stroke:#000000;stroke-width:0.8;" x="0" xlink:href="#m6c2a7a4978" y="70.496472"/>
      </g>
     </g>
    </g>
    <g id="ytick_5">
     <g id="line2d_10">
      <g>
       <use style="stroke:#000000;stroke-width:0.8;" x="0" xlink:href="#m6c2a7a4978" y="48.584831"/>
      </g>
     </g>
    </g>
    <g id="ytick_6">
     <g id="line2d_11">
      <g>
       <use style="stroke:#000000;stroke-width:0.8;" x="0" xlink:href="#m6c2a7a4978" y="26.67319"/>
      </g>
     </g>
    </g>
    <g id="ytick_7">
     <g id="line2d_12">
      <g>
       <use style="stroke:#000000;stroke-width:0.8;" x="0" xlink:href="#m6c2a7a4978" y="4.761549"/>
      </g>
     </g>
    </g>
   </g>
   <g id="line2d_13">
    <path clip-path="url(#pd46c760c9d)" d="M 0 135.919115 
L 1.44 135.769822 
L 2.88 135.558511 
L 4.32 135.26387 
L 5.76 134.859166 
L 7.2 134.311598 
L 8.64 133.581847 
L 10.08 132.623939 
L 11.52 131.385544 
L 12.96 129.808841 
L 14.4 127.832059 
L 15.84 125.391757 
L 17.28 122.425886 
L 18.72 118.877559 
L 20.16 114.699422 
L 21.6 109.858386 
L 23.04 104.34042 
L 24.48 98.155043 
L 25.92 91.339087 
L 27.36 83.959321 
L 28.8 76.113557 
L 30.24 67.929947 
L 31.68 59.564288 
L 33.12 51.19534 
L 34.56 43.018291 
L 36 35.2367 
L 37.44 28.053392 
L 38.88 21.66087 
L 40.32 16.231915 
L 41.76 11.910997 
L 43.2 8.807117 
L 44.64 6.988574 
L 46.08 6.48 
L 47.52 7.261864 
L 48.96 9.272423 
L 50.4 12.411953 
L 51.84 16.548912 
L 53.28 21.52756 
L 54.72 27.176493 
L 56.16 33.317484 
L 57.6 39.774034 
L 59.04 46.379117 
L 60.48 52.981659 
L 61.92 59.45143 
L 63.36 65.682187 
L 64.8 71.593024 
L 66.24 77.128043 
L 67.68 82.254582 
L 69.12 86.960315 
L 70.56 91.249598 
L 72 95.139459 
L 73.44 98.655578 
L 74.88 101.828585 
L 76.32 104.690898 
L 77.76 107.27425 
L 79.2 109.607949 
L 80.64 111.717856 
L 82.08 113.625985 
L 83.52 115.350587 
L 84.96 116.906574 
L 86.4 118.306129 
L 87.84 119.559367 
L 89.28 120.674953 
L 90.72 121.6606 
L 92.16 122.523429 
L 93.6 123.270169 
L 95.04 123.907237 
L 96.48 124.440713 
L 97.92 124.876253 
L 99.36 125.218971 
L 100.8 125.473325 
L 102.24 125.643009 
L 103.68 125.730881 
L 105.12 125.738917 
L 106.56 125.668205 
L 108 125.518965 
L 109.44 125.290606 
L 110.88 124.98182 
L 112.32 124.590718 
L 113.76 124.115014 
L 115.2 123.552281 
L 116.64 122.90027 
L 118.08 122.15733 
L 119.52 121.322909 
L 120.96 120.398169 
L 122.4 119.386668 
L 123.84 118.295117 
L 125.28 117.134128 
L 126.72 115.918913 
L 128.16 114.66982 
L 129.6 113.412616 
L 131.04 112.178397 
L 132.48 111.00305 
L 133.92 109.926195 
L 135.36 108.989594 
L 136.8 108.235087 
L 138.24 107.702172 
L 139.68 107.425399 
L 141.12 107.431819 
L 142.56 107.738729 
L 144 108.351966 
" style="fill:none;stroke:#b4bbc6;stroke-linecap:square;stroke-width:1.5;"/>
   </g>
   <g id="line2d_14">
    <path clip-path="url(#pd46c760c9d)" d="M 0 135.956 
L 1.44 135.823265 
L 2.88 135.634963 
L 4.32 135.37188 
L 5.76 135.009907 
L 7.2 134.519482 
L 8.64 133.86522 
L 10.08 133.005864 
L 11.52 131.894656 
L 12.96 130.480264 
L 14.4 128.708358 
L 15.84 126.5239 
L 17.28 123.874158 
L 18.72 120.71238 
L 20.16 117.001963 
L 21.6 112.720898 
L 23.04 107.866144 
L 24.48 102.457552 
L 25.92 96.540912 
L 27.36 90.189703 
L 28.8 83.505197 
L 30.24 76.614652 
L 31.68 69.6675 
L 33.12 62.82959 
L 34.56 56.275767 
L 36 50.181215 
L 37.44 44.712177 
L 38.88 40.016741 
L 40.32 36.216426 
L 41.76 33.399265 
L 43.2 31.614966 
L 44.64 30.87257 
L 46.08 31.140806 
L 47.52 32.351097 
L 48.96 34.402959 
L 50.4 37.171307 
L 51.84 40.515029 
L 53.28 44.286107 
L 54.72 48.338527 
L 56.16 52.536275 
L 57.6 56.759845 
L 59.04 60.910846 
L 60.48 64.914484 
L 61.92 68.719917 
L 63.36 72.29869 
L 64.8 75.641576 
L 66.24 78.754318 
L 67.68 81.652771 
L 69.12 84.357994 
L 70.56 86.891736 
L 72 89.272718 
L 73.44 91.51394 
L 74.88 93.621159 
L 76.32 95.592527 
L 77.76 97.419281 
L 79.2 99.087307 
L 80.64 100.57933 
L 82.08 101.877462 
L 83.52 102.965871 
L 84.96 103.833296 
L 86.4 104.475228 
L 87.84 104.895568 
L 89.28 105.107654 
L 90.72 105.134557 
L 92.16 105.008639 
L 93.6 104.770363 
L 95.04 104.466438 
L 96.48 104.1474 
L 97.92 103.864784 
L 99.36 103.668077 
L 100.8 103.601669 
L 102.24 103.70201 
L 103.68 103.995198 
L 105.12 104.495162 
L 106.56 105.202594 
L 108 106.104687 
L 109.44 107.175717 
L 110.88 108.378406 
L 112.32 109.665985 
L 113.76 110.98481 
L 115.2 112.277386 
L 116.64 113.485611 
L 118.08 114.554088 
L 119.52 115.433335 
L 120.96 116.082748 
L 122.4 116.473167 
L 123.84 116.58893 
L 125.28 116.42928 
L 126.72 116.009018 
L 128.16 115.358312 
L 129.6 114.521599 
L 131.04 113.555586 
L 132.48 112.526371 
L 133.92 111.505843 
L 135.36 110.567541 
L 136.8 109.782244 
L 138.24 109.213623 
L 139.68 108.91428 
L 141.12 108.92252 
L 142.56 109.260114 
L 144 109.93126 
" style="fill:none;stroke:#84acf0;stroke-linecap:square;stroke-width:1.5;"/>
   </g>
   <g id="line2d_15">
    <path clip-path="url(#pd46c760c9d)" d="M 0 136.08 
L 1.44 136.01188 
L 2.88 135.917319 
L 4.32 135.787877 
L 5.76 135.613112 
L 7.2 135.380331 
L 8.64 135.07438 
L 10.08 134.67749 
L 11.52 134.169213 
L 12.96 133.526461 
L 14.4 132.723699 
L 15.84 131.733295 
L 17.28 130.526072 
L 18.72 129.072096 
L 20.16 127.341688 
L 21.6 125.306719 
L 23.04 122.942141 
L 24.48 120.227767 
L 25.92 117.150222 
L 27.36 113.704994 
L 28.8 109.898441 
L 30.24 105.749602 
L 31.68 101.291598 
L 33.12 96.572402 
L 34.56 91.654778 
L 36 86.615185 
L 37.44 81.541556 
L 38.88 76.529911 
L 40.32 71.679933 
L 41.76 67.089729 
L 43.2 62.850153 
L 44.64 59.039158 
L 46.08 55.716704 
L 47.52 52.92076 
L 48.96 50.664868 
L 50.4 48.937608 
L 51.84 47.704149 
L 53.28 46.909831 
L 54.72 46.48554 
L 56.16 46.354407 
L 57.6 46.439239 
L 59.04 46.669966 
L 60.48 46.990402 
L 61.92 47.363636 
L 63.36 47.775537 
L 64.8 48.236002 
L 66.24 48.777825 
L 67.68 49.453277 
L 69.12 50.328716 
L 70.56 51.477743 
L 72 52.973548 
L 73.44 54.88117 
L 74.88 57.250401 
L 76.32 60.109988 
L 77.76 63.463656 
L 79.2 67.288286 
L 80.64 71.534364 
L 82.08 76.128601 
L 83.52 80.978391 
L 84.96 85.977648 
L 86.4 91.013406 
L 87.84 95.972577 
L 89.28 100.748246 
L 90.72 105.245011 
L 92.16 109.382988 
L 93.6 113.100294 
L 95.04 116.353963 
L 96.48 119.119425 
L 97.92 121.388799 
L 99.36 123.168319 
L 100.8 124.475262 
L 102.24 125.334728 
L 103.68 125.776586 
L 105.12 125.832831 
L 106.56 125.53551 
L 108 124.915316 
L 109.44 124.000833 
L 110.88 122.818419 
L 112.32 121.392597 
L 113.76 119.746869 
L 115.2 117.904794 
L 116.64 115.891217 
L 118.08 113.733518 
L 119.52 111.462753 
L 120.96 109.114593 
L 122.4 106.729953 
L 123.84 104.355216 
L 125.28 102.041988 
L 126.72 99.84631 
L 128.16 97.827301 
L 129.6 96.045248 
L 131.04 94.559189 
L 132.48 93.424112 
L 133.92 92.687943 
L 135.36 92.388541 
L 136.8 92.550968 
L 138.24 93.185289 
L 139.68 94.285158 
L 141.12 95.827373 
L 142.56 97.772513 
L 144 100.066663 
" style="fill:none;stroke:#93eb85;stroke-linecap:square;stroke-width:1.5;"/>
   </g>
  </g>
 </g>
 <defs>
  <clipPath id="pd46c760c9d">
   <rect height="142.56" width="144" x="0" y="0"/>
  </clipPath>
 </defs>
</svg>
