<?xml version="1.0" encoding="utf-8" standalone="no"?>
<!DOCTYPE svg PUBLIC "-//W3C//DTD SVG 1.1//EN"
  "http://www.w3.org/Graphics/SVG/1.1/DTD/svg11.dtd">
<!-- Created with matplotlib (https://matplotlib.org/) -->
<svg height="144pt" version="1.1" viewBox="0 0 144 144" width="144pt" xmlns="http://www.w3.org/2000/svg" xmlns:xlink="http://www.w3.org/1999/xlink">
 <defs>
  <style type="text/css">
*{stroke-linecap:butt;stroke-linejoin:round;}
  </style>
 </defs>
 <g id="figure_1">
  <g id="patch_1">
   <path d="M 0 144 
L 144 144 
L 144 0 
L 0 0 
z
" style="fill:#ffffff;"/>
  </g>
  <g id="axes_1">
   <g id="matplotlib.axis_1">
    <g id="xtick_1">
     <g id="line2d_1">
      <defs>
       <path d="M 0 0 
L 0 3.5 
" id="m63dc2ad3fe" style="stroke:#000000;stroke-width:0.8;"/>
      </defs>
      <g>
       <use style="stroke:#000000;stroke-width:0.8;" x="0" xlink:href="#m63dc2ad3fe" y="142.56"/>
      </g>
     </g>
    </g>
    <g id="xtick_2">
     <g id="line2d_2">
      <g>
       <use style="stroke:#000000;stroke-width:0.8;" x="36" xlink:href="#m63dc2ad3fe" y="142.56"/>
      </g>
     </g>
    </g>
    <g id="xtick_3">
     <g id="line2d_3">
      <g>
       <use style="stroke:#000000;stroke-width:0.8;" x="72" xlink:href="#m63dc2ad3fe" y="142.56"/>
      </g>
     </g>
    </g>
    <g id="xtick_4">
     <g id="line2d_4">
      <g>
       <use style="stroke:#000000;stroke-width:0.8;" x="108" xlink:href="#m63dc2ad3fe" y="142.56"/>
      </g>
     </g>
    </g>
    <g id="xtick_5">
     <g id="line2d_5">
      <g>
       <use style="stroke:#000000;stroke-width:0.8;" x="144" xlink:href="#m63dc2ad3fe" y="142.56"/>
      </g>
     </g>
    </g>
   </g>
   <g id="matplotlib.axis_2">
    <g id="ytick_1">
     <g id="line2d_6">
      <defs>
       <path d="M 0 0 
L -3.5 0 
" id="m9c81666c3c" style="stroke:#000000;stroke-width:0.8;"/>
      </defs>
      <g>
       <use style="stroke:#000000;stroke-width:0.8;" x="0" xlink:href="#m9c81666c3c" y="136.081124"/>
      </g>
     </g>
    </g>
    <g id="ytick_2">
     <g id="line2d_7">
      <g>
       <use style="stroke:#000000;stroke-width:0.8;" x="0" xlink:href="#m9c81666c3c" y="108.993646"/>
      </g>
     </g>
    </g>
    <g id="ytick_3">
     <g id="line2d_8">
      <g>
       <use style="stroke:#000000;stroke-width:0.8;" x="0" xlink:href="#m9c81666c3c" y="81.906169"/>
      </g>
     </g>
    </g>
    <g id="ytick_4">
     <g id="line2d_9">
      <g>
       <use style="stroke:#000000;stroke-width:0.8;" x="0" xlink:href="#m9c81666c3c" y="54.818691"/>
      </g>
     </g>
    </g>
    <g id="ytick_5">
     <g id="line2d_10">
      <g>
       <use style="stroke:#000000;stroke-width:0.8;" x="0" xlink:href="#m9c81666c3c" y="27.731214"/>
      </g>
     </g>
    </g>
    <g id="ytick_6">
     <g id="line2d_11">
      <g>
       <use style="stroke:#000000;stroke-width:0.8;" x="0" xlink:href="#m9c81666c3c" y="0.643736"/>
      </g>
     </g>
    </g>
   </g>
   <g id="line2d_12">
    <path clip-path="url(#p95c07cece4)" d="M 0 136.078738 
L 1.44 136.077019 
L 2.88 136.074222 
L 4.32 136.069782 
L 5.76 136.062893 
L 7.2 136.052441 
L 8.64 136.036913 
L 10.08 136.014285 
L 11.52 135.981878 
L 12.96 135.936156 
L 14.4 135.872446 
L 15.84 135.784524 
L 17.28 135.66404 
L 18.72 135.499737 
L 20.16 135.276453 
L 21.6 134.973936 
L 23.04 134.565573 
L 24.48 134.017225 
L 25.92 133.286417 
L 27.36 132.322243 
L 28.8 131.066321 
L 30.24 129.455085 
L 31.68 127.423582 
L 33.12 124.910642 
L 34.56 121.865053 
L 36 118.252016 
L 37.44 114.058942 
L 38.88 109.299531 
L 40.32 104.015184 
L 41.76 98.273126 
L 43.2 92.161125 
L 44.64 85.779351 
L 46.08 79.230548 
L 47.52 72.610174 
L 48.96 65.998376 
L 50.4 59.455506 
L 51.84 53.022369 
L 53.28 46.725529 
L 54.72 40.587034 
L 56.16 34.636923 
L 57.6 28.926119 
L 59.04 23.53699 
L 60.48 18.588982 
L 61.92 14.237411 
L 63.36 10.664627 
L 64.8 8.064075 
L 66.24 6.619175 
L 67.68 6.48 
L 69.12 7.741325 
L 70.56 10.4256 
L 72 14.473674 
L 73.44 19.744926 
L 74.88 26.026919 
L 76.32 33.053208 
L 77.76 40.52674 
L 79.2 48.145524 
L 80.64 55.627212 
L 82.08 62.729616 
L 83.52 69.265125 
L 84.96 75.108028 
L 86.4 80.194857 
L 87.84 84.518738 
L 89.28 88.119334 
L 90.72 91.070224 
L 92.16 93.465537 
L 93.6 95.407402 
L 95.04 96.995392 
L 96.48 98.31869 
L 97.92 99.451238 
L 99.36 100.449733 
L 100.8 101.353986 
L 102.24 102.188926 
L 103.68 102.967412 
L 105.12 103.693069 
L 106.56 104.362484 
L 108 104.966392 
L 109.44 105.489774 
L 110.88 105.911085 
L 112.32 106.20106 
L 113.76 106.321663 
L 115.2 106.225708 
L 116.64 105.85761 
L 118.08 105.155511 
L 119.52 104.054876 
L 120.96 102.493505 
L 122.4 100.417799 
L 123.84 97.790077 
L 125.28 94.596587 
L 126.72 90.855751 
L 128.16 86.625884 
L 129.6 82.011324 
L 131.04 77.165645 
L 132.48 72.290469 
L 133.92 67.628611 
L 135.36 63.450809 
L 136.8 60.036305 
L 138.24 57.648667 
L 139.68 56.509494 
L 141.12 56.773503 
L 142.56 58.508823 
L 144 61.685878 
" style="fill:none;stroke:#b4bbc6;stroke-linecap:square;stroke-width:1.5;"/>
   </g>
   <g id="line2d_13">
    <path clip-path="url(#p95c07cece4)" d="M 0 136.061895 
L 1.44 136.048321 
L 2.88 136.026358 
L 4.32 135.99162 
L 5.76 135.937907 
L 7.2 135.856698 
L 8.64 135.736631 
L 10.08 135.563015 
L 11.52 135.317458 
L 12.96 134.977724 
L 14.4 134.517909 
L 15.84 133.909077 
L 17.28 133.120423 
L 18.72 132.121022 
L 20.16 130.882128 
L 21.6 129.379897 
L 23.04 127.598324 
L 24.48 125.532048 
L 25.92 123.18865 
L 27.36 120.590021 
L 28.8 117.772436 
L 30.24 114.785098 
L 31.68 111.687114 
L 33.12 108.543085 
L 34.56 105.417768 
L 36 102.370432 
L 37.44 99.449622 
L 38.88 96.689048 
L 40.32 94.105085 
L 41.76 91.696156 
L 43.2 89.443903 
L 44.64 87.315762 
L 46.08 85.268361 
L 47.52 83.251117 
L 48.96 81.209507 
L 50.4 79.087744 
L 51.84 76.830949 
L 53.28 74.387163 
L 54.72 71.709764 
L 56.16 68.760871 
L 57.6 65.516056 
L 59.04 61.970353 
L 60.48 58.14498 
L 61.92 54.093714 
L 63.36 49.907525 
L 64.8 45.715929 
L 66.24 41.683815 
L 67.68 38.003052 
L 69.12 34.879035 
L 70.56 32.513255 
L 72 31.08385 
L 73.44 30.726629 
L 74.88 31.519254 
L 76.32 33.4709 
L 77.76 36.518976 
L 79.2 40.533426 
L 80.64 45.328014 
L 82.08 50.67696 
L 83.52 56.334624 
L 84.96 62.055659 
L 86.4 67.613206 
L 87.84 72.813286 
L 89.28 77.504296 
L 90.72 81.581369 
L 92.16 84.986111 
L 93.6 87.702753 
L 95.04 89.751992 
L 96.48 91.183792 
L 97.92 92.070123 
L 99.36 92.498274 
L 100.8 92.564965 
L 102.24 92.371153 
L 103.68 92.017251 
L 105.12 91.598431 
L 106.56 91.199808 
L 108 90.891483 
L 109.44 90.72369 
L 110.88 90.722455 
L 112.32 90.886358 
L 113.76 91.184943 
L 115.2 91.559292 
L 116.64 91.925055 
L 118.08 92.178009 
L 119.52 92.202012 
L 120.96 91.878943 
L 122.4 91.100076 
L 123.84 89.778153 
L 125.28 87.859292 
L 126.72 85.333698 
L 128.16 82.24406 
L 129.6 78.690407 
L 131.04 74.830279 
L 132.48 70.873267 
L 133.92 67.069492 
L 135.36 63.692261 
L 136.8 61.016039 
L 138.24 59.291771 
L 139.68 58.722304 
L 141.12 59.441061 
L 142.56 61.49695 
L 144 64.847818 
" style="fill:none;stroke:#84acf0;stroke-linecap:square;stroke-width:1.5;"/>
   </g>
   <g id="line2d_14">
    <path clip-path="url(#p95c07cece4)" d="M 0 136.08 
L 1.44 136.078942 
L 2.88 136.076988 
L 4.32 136.073464 
L 5.76 136.067266 
L 7.2 136.056631 
L 8.64 136.038827 
L 10.08 136.009752 
L 11.52 135.963438 
L 12.96 135.891474 
L 14.4 135.782408 
L 15.84 135.621191 
L 17.28 135.388781 
L 18.72 135.062058 
L 20.16 134.614183 
L 21.6 134.015573 
L 23.04 133.235559 
L 24.48 132.244746 
L 25.92 131.017946 
L 27.36 129.537405 
L 28.8 127.795928 
L 30.24 125.799378 
L 31.68 123.568023 
L 33.12 121.136269 
L 34.56 118.550518 
L 36 115.865141 
L 37.44 113.136913 
L 38.88 110.418545 
L 40.32 107.752178 
L 41.76 105.163825 
L 43.2 102.659626 
L 44.64 100.224563 
L 46.08 97.823889 
L 47.52 95.407106 
L 48.96 92.913896 
L 50.4 90.281176 
L 51.84 87.450277 
L 53.28 84.373393 
L 54.72 81.018671 
L 56.16 77.37367 
L 57.6 73.447302 
L 59.04 69.270601 
L 60.48 64.896803 
L 61.92 60.401053 
L 63.36 55.879856 
L 64.8 51.449944 
L 66.24 47.246009 
L 67.68 43.41654 
L 69.12 40.117191 
L 70.56 37.501459 
L 72 35.709113 
L 73.44 34.853456 
L 74.88 35.009072 
L 76.32 36.201974 
L 77.76 38.403931 
L 79.2 41.532191 
L 80.64 45.455009 
L 82.08 50.002366 
L 83.52 54.980425 
L 84.96 60.187649 
L 86.4 65.430355 
L 87.84 70.535695 
L 89.28 75.360686 
L 90.72 79.796707 
L 92.16 83.769697 
L 93.6 87.236944 
L 95.04 90.181759 
L 96.48 92.607388 
L 97.92 94.531317 
L 99.36 95.980728 
L 100.8 96.989417 
L 102.24 97.596029 
L 103.68 97.843207 
L 105.12 97.777042 
L 106.56 97.44629 
L 108 96.90087 
L 109.44 96.189418 
L 110.88 95.35586 
L 112.32 94.435196 
L 113.76 93.448915 
L 115.2 92.400585 
L 116.64 91.272339 
L 118.08 90.023024 
L 119.52 88.588809 
L 120.96 86.886923 
L 122.4 84.823004 
L 123.84 82.302118 
L 125.28 79.243 
L 126.72 75.594457 
L 128.16 71.352159 
L 129.6 66.573542 
L 131.04 61.388151 
L 132.48 56.000883 
L 133.92 50.686091 
L 135.36 45.771596 
L 136.8 41.613166 
L 138.24 38.561658 
L 139.68 36.926616 
L 141.12 36.941179 
L 142.56 38.733435 
L 144 42.308748 
" style="fill:none;stroke:#93eb85;stroke-linecap:square;stroke-width:1.5;"/>
   </g>
  </g>
 </g>
 <defs>
  <clipPath id="p95c07cece4">
   <rect height="142.56" width="144" x="0" y="0"/>
  </clipPath>
 </defs>
</svg>
