<?xml version="1.0" encoding="utf-8" standalone="no"?>
<!DOCTYPE svg PUBLIC "-//W3C//DTD SVG 1.1//EN"
  "http://www.w3.org/Graphics/SVG/1.1/DTD/svg11.dtd">
<!-- Created with matplotlib (https://matplotlib.org/) -->
<svg height="144pt" version="1.1" viewBox="0 0 144 144" width="144pt" xmlns="http://www.w3.org/2000/svg" xmlns:xlink="http://www.w3.org/1999/xlink">
 <defs>
  <style type="text/css">
*{stroke-linecap:butt;stroke-linejoin:round;}
  </style>
 </defs>
 <g id="figure_1">
  <g id="patch_1">
   <path d="M 0 144 
L 144 144 
L 144 0 
L 0 0 
z
" style="fill:#ffffff;"/>
  </g>
  <g id="axes_1">
   <g id="matplotlib.axis_1">
    <g id="xtick_1">
     <g id="line2d_1">
      <defs>
       <path d="M 0 0 
L 0 3.5 
" id="m18dc5c67ee" style="stroke:#000000;stroke-width:0.8;"/>
      </defs>
      <g>
       <use style="stroke:#000000;stroke-width:0.8;" x="0" xlink:href="#m18dc5c67ee" y="142.56"/>
      </g>
     </g>
    </g>
    <g id="xtick_2">
     <g id="line2d_2">
      <g>
       <use style="stroke:#000000;stroke-width:0.8;" x="36" xlink:href="#m18dc5c67ee" y="142.56"/>
      </g>
     </g>
    </g>
    <g id="xtick_3">
     <g id="line2d_3">
      <g>
       <use style="stroke:#000000;stroke-width:0.8;" x="72" xlink:href="#m18dc5c67ee" y="142.56"/>
      </g>
     </g>
    </g>
    <g id="xtick_4">
     <g id="line2d_4">
      <g>
       <use style="stroke:#000000;stroke-width:0.8;" x="108" xlink:href="#m18dc5c67ee" y="142.56"/>
      </g>
     </g>
    </g>
    <g id="xtick_5">
     <g id="line2d_5">
      <g>
       <use style="stroke:#000000;stroke-width:0.8;" x="144" xlink:href="#m18dc5c67ee" y="142.56"/>
      </g>
     </g>
    </g>
   </g>
   <g id="matplotlib.axis_2">
    <g id="ytick_1">
     <g id="line2d_6">
      <defs>
       <path d="M 0 0 
L -3.5 0 
" id="mcb87e15cdb" style="stroke:#000000;stroke-width:0.8;"/>
      </defs>
      <g>
       <use style="stroke:#000000;stroke-width:0.8;" x="0" xlink:href="#mcb87e15cdb" y="136.08001"/>
      </g>
     </g>
    </g>
    <g id="ytick_2">
     <g id="line2d_7">
      <g>
       <use style="stroke:#000000;stroke-width:0.8;" x="0" xlink:href="#mcb87e15cdb" y="113.099132"/>
      </g>
     </g>
    </g>
    <g id="ytick_3">
     <g id="line2d_8">
      <g>
       <use style="stroke:#000000;stroke-width:0.8;" x="0" xlink:href="#mcb87e15cdb" y="90.118255"/>
      </g>
     </g>
    </g>
    <g id="ytick_4">
     <g id="line2d_9">
      <g>
       <use style="stroke:#000000;stroke-width:0.8;" x="0" xlink:href="#mcb87e15cdb" y="67.137378"/>
      </g>
     </g>
    </g>
    <g id="ytick_5">
     <g id="line2d_10">
      <g>
       <use style="stroke:#000000;stroke-width:0.8;" x="0" xlink:href="#mcb87e15cdb" y="44.156501"/>
      </g>
     </g>
    </g>
    <g id="ytick_6">
     <g id="line2d_11">
      <g>
       <use style="stroke:#000000;stroke-width:0.8;" x="0" xlink:href="#mcb87e15cdb" y="21.175623"/>
      </g>
     </g>
    </g>
   </g>
   <g id="line2d_12">
    <path clip-path="url(#p56b124115f)" d="M 0 136.077406 
L 1.44 136.074907 
L 2.88 136.070342 
L 4.32 136.062296 
L 5.76 136.048623 
L 7.2 136.026217 
L 8.64 135.99082 
L 10.08 135.93691 
L 11.52 135.857763 
L 12.96 135.74574 
L 14.4 135.592842 
L 15.84 135.39149 
L 17.28 135.135387 
L 18.72 134.820234 
L 20.16 134.443987 
L 21.6 134.00638 
L 23.04 133.507536 
L 24.48 132.945736 
L 25.92 132.314702 
L 27.36 131.601027 
L 28.8 130.782547 
L 30.24 129.828419 
L 31.68 128.701373 
L 33.12 127.362161 
L 34.56 125.775649 
L 36 123.91753 
L 37.44 121.780343 
L 38.88 119.377507 
L 40.32 116.744434 
L 41.76 113.936301 
L 43.2 111.022755 
L 44.64 108.080367 
L 46.08 105.184081 
L 47.52 102.398978 
L 48.96 99.773535 
L 50.4 97.335148 
L 51.84 95.088228 
L 53.28 93.014698 
L 54.72 91.076496 
L 56.16 89.219608 
L 57.6 87.37935 
L 59.04 85.486757 
L 60.48 83.476053 
L 61.92 81.292953 
L 63.36 78.903138 
L 64.8 76.299729 
L 66.24 73.508246 
L 67.68 70.587629 
L 69.12 67.626499 
L 70.56 64.734816 
L 72 62.032175 
L 73.44 59.634795 
L 74.88 57.643518 
L 76.32 56.134757 
L 77.76 55.155486 
L 79.2 54.722364 
L 80.64 54.824233 
L 82.08 55.426785 
L 83.52 56.478273 
L 84.96 57.915445 
L 86.4 59.669381 
L 87.84 61.671161 
L 89.28 63.857344 
L 90.72 66.174899 
L 92.16 68.584958 
L 93.6 71.064502 
L 95.04 73.605267 
L 96.48 76.20969 
L 97.92 78.884475 
L 99.36 81.633122 
L 100.8 84.449219 
L 102.24 87.312158 
L 103.68 90.186321 
L 105.12 93.023743 
L 106.56 95.76917 
L 108 98.365681 
L 109.44 100.758828 
L 110.88 102.897749 
L 112.32 104.732735 
L 113.76 106.209992 
L 115.2 107.265454 
L 116.64 107.820046 
L 118.08 107.778707 
L 119.52 107.034653 
L 120.96 105.47921 
L 122.4 103.01628 
L 123.84 99.579634 
L 125.28 95.150761 
L 126.72 89.775045 
L 128.16 83.574316 
L 129.6 76.754107 
L 131.04 69.604096 
L 132.48 62.490218 
L 133.92 55.837108 
L 135.36 50.100113 
L 136.8 45.727498 
L 138.24 43.115515 
L 139.68 42.561473 
L 141.12 44.22198 
L 142.56 48.084367 
L 144 53.958205 
" style="fill:none;stroke:#b4bbc6;stroke-linecap:square;stroke-width:1.5;"/>
   </g>
   <g id="line2d_13">
    <path clip-path="url(#p56b124115f)" d="M 0 136.079842 
L 1.44 136.07963 
L 2.88 136.07918 
L 4.32 136.078259 
L 5.76 136.076446 
L 7.2 136.073 
L 8.64 136.066691 
L 10.08 136.055555 
L 11.52 136.036599 
L 12.96 136.005487 
L 14.4 135.956234 
L 15.84 135.881022 
L 17.28 135.770211 
L 18.72 135.612656 
L 20.16 135.396392 
L 21.6 135.109668 
L 23.04 134.742211 
L 24.48 134.286461 
L 25.92 133.738418 
L 27.36 133.097727 
L 28.8 132.366685 
L 30.24 131.548118 
L 31.68 130.642362 
L 33.12 129.643981 
L 34.56 128.539105 
L 36 127.304371 
L 37.44 125.908198 
L 38.88 124.314669 
L 40.32 122.489629 
L 41.76 120.407949 
L 43.2 118.060521 
L 44.64 115.459494 
L 46.08 112.640587 
L 47.52 109.661892 
L 48.96 106.599267 
L 50.4 103.538873 
L 51.84 100.567804 
L 53.28 97.763817 
L 54.72 95.185308 
L 56.16 92.862773 
L 57.6 90.793199 
L 59.04 88.938894 
L 60.48 87.232032 
L 61.92 85.585395 
L 63.36 83.908502 
L 64.8 82.126681 
L 66.24 80.199301 
L 67.68 78.132812 
L 69.12 75.984923 
L 70.56 73.858131 
L 72 71.883567 
L 73.44 70.198704 
L 74.88 68.924228 
L 76.32 68.145455 
L 77.76 67.902214 
L 79.2 68.188549 
L 80.64 68.960846 
L 82.08 70.15099 
L 83.52 71.68044 
L 84.96 73.4717 
L 86.4 75.455145 
L 87.84 77.570863 
L 89.28 79.766602 
L 90.72 81.993615 
L 92.16 84.202304 
L 93.6 86.339168 
L 95.04 88.34593 
L 96.48 90.161085 
L 97.92 91.723486 
L 99.36 92.977175 
L 100.8 93.876353 
L 102.24 94.389315 
L 103.68 94.500393 
L 105.12 94.209447 
L 106.56 93.529098 
L 108 92.480643 
L 109.44 91.090019 
L 110.88 89.385255 
L 112.32 87.396315 
L 113.76 85.157323 
L 115.2 82.710026 
L 116.64 80.106484 
L 118.08 77.408717 
L 119.52 74.683633 
L 120.96 71.992959 
L 122.4 69.379847 
L 123.84 66.855672 
L 125.28 64.391805 
L 126.72 61.921083 
L 128.16 59.352197 
L 129.6 56.597189 
L 131.04 53.608348 
L 132.48 50.416946 
L 133.92 47.163633 
L 135.36 44.110106 
L 136.8 41.624435 
L 138.24 40.138071 
L 139.68 40.079801 
L 141.12 41.798814 
L 142.56 45.493463 
L 144 51.162437 
" style="fill:none;stroke:#84acf0;stroke-linecap:square;stroke-width:1.5;"/>
   </g>
   <g id="line2d_14">
    <path clip-path="url(#p56b124115f)" d="M 0 136.08 
L 1.44 136.079984 
L 2.88 136.079943 
L 4.32 136.079844 
L 5.76 136.079617 
L 7.2 136.079118 
L 8.64 136.078067 
L 10.08 136.075948 
L 11.52 136.071852 
L 12.96 136.064266 
L 14.4 136.050785 
L 15.84 136.027792 
L 17.28 135.990123 
L 18.72 135.930794 
L 20.16 135.8409 
L 21.6 135.709787 
L 23.04 135.525607 
L 24.48 135.276361 
L 25.92 134.951417 
L 27.36 134.543408 
L 28.8 134.050254 
L 30.24 133.476854 
L 31.68 132.835898 
L 33.12 132.147259 
L 34.56 131.435664 
L 36 130.726785 
L 37.44 130.042495 
L 38.88 129.396465 
L 40.32 128.791413 
L 41.76 128.218855 
L 43.2 127.661392 
L 44.64 127.09653 
L 46.08 126.500377 
L 47.52 125.849568 
L 48.96 125.120474 
L 50.4 124.285959 
L 51.84 123.311092 
L 53.28 122.149829 
L 54.72 120.744591 
L 56.16 119.029897 
L 57.6 116.940155 
L 59.04 114.420686 
L 60.48 111.440263 
L 61.92 108.002934 
L 63.36 104.156689 
L 64.8 99.99664 
L 66.24 95.660997 
L 67.68 91.319323 
L 69.12 87.154293 
L 70.56 83.339986 
L 72 80.020998 
L 73.44 77.29673 
L 74.88 75.213907 
L 76.32 73.768051 
L 77.76 72.91222 
L 79.2 72.569723 
L 80.64 72.64734 
L 82.08 73.046663 
L 83.52 73.672827 
L 84.96 74.441115 
L 86.4 75.282279 
L 87.84 76.146837 
L 89.28 77.007847 
L 90.72 77.861204 
L 92.16 78.722899 
L 93.6 79.623427 
L 95.04 80.600347 
L 96.48 81.690134 
L 97.92 82.92017 
L 99.36 84.301111 
L 100.8 85.819716 
L 102.24 87.432584 
L 103.68 89.062082 
L 105.12 90.596372 
L 106.56 91.895397 
L 108 92.803645 
L 109.44 93.168827 
L 110.88 92.863719 
L 112.32 91.807154 
L 113.76 89.979779 
L 115.2 87.430829 
L 116.64 84.273617 
L 118.08 80.669316 
L 119.52 76.800603 
L 120.96 72.838648 
L 122.4 68.908579 
L 123.84 65.059788 
L 125.28 61.247972 
L 126.72 57.335397 
L 128.16 53.114138 
L 129.6 48.353787 
L 131.04 42.870123 
L 132.48 36.604974 
L 133.92 29.701009 
L 135.36 22.550542 
L 136.8 15.797399 
L 138.24 10.27772 
L 139.68 6.899608 
L 141.12 6.48 
L 142.56 9.574074 
L 144 16.340889 
" style="fill:none;stroke:#93eb85;stroke-linecap:square;stroke-width:1.5;"/>
   </g>
  </g>
 </g>
 <defs>
  <clipPath id="p56b124115f">
   <rect height="142.56" width="144" x="0" y="0"/>
  </clipPath>
 </defs>
</svg>
