<?xml version="1.0" encoding="utf-8" standalone="no"?>
<!DOCTYPE svg PUBLIC "-//W3C//DTD SVG 1.1//EN"
  "http://www.w3.org/Graphics/SVG/1.1/DTD/svg11.dtd">
<!-- Created with matplotlib (https://matplotlib.org/) -->
<svg height="144pt" version="1.1" viewBox="0 0 144 144" width="144pt" xmlns="http://www.w3.org/2000/svg" xmlns:xlink="http://www.w3.org/1999/xlink">
 <defs>
  <style type="text/css">
*{stroke-linecap:butt;stroke-linejoin:round;}
  </style>
 </defs>
 <g id="figure_1">
  <g id="patch_1">
   <path d="M 0 144 
L 144 144 
L 144 0 
L 0 0 
z
" style="fill:#ffffff;"/>
  </g>
  <g id="axes_1">
   <g id="matplotlib.axis_1">
    <g id="xtick_1">
     <g id="line2d_1">
      <defs>
       <path d="M 0 0 
L 0 3.5 
" id="m5c82bc01ef" style="stroke:#000000;stroke-width:0.8;"/>
      </defs>
      <g>
       <use style="stroke:#000000;stroke-width:0.8;" x="0" xlink:href="#m5c82bc01ef" y="142.56"/>
      </g>
     </g>
    </g>
    <g id="xtick_2">
     <g id="line2d_2">
      <g>
       <use style="stroke:#000000;stroke-width:0.8;" x="36" xlink:href="#m5c82bc01ef" y="142.56"/>
      </g>
     </g>
    </g>
    <g id="xtick_3">
     <g id="line2d_3">
      <g>
       <use style="stroke:#000000;stroke-width:0.8;" x="72" xlink:href="#m5c82bc01ef" y="142.56"/>
      </g>
     </g>
    </g>
    <g id="xtick_4">
     <g id="line2d_4">
      <g>
       <use style="stroke:#000000;stroke-width:0.8;" x="108" xlink:href="#m5c82bc01ef" y="142.56"/>
      </g>
     </g>
    </g>
    <g id="xtick_5">
     <g id="line2d_5">
      <g>
       <use style="stroke:#000000;stroke-width:0.8;" x="144" xlink:href="#m5c82bc01ef" y="142.56"/>
      </g>
     </g>
    </g>
   </g>
   <g id="matplotlib.axis_2">
    <g id="ytick_1">
     <g id="line2d_6">
      <defs>
       <path d="M 0 0 
L -3.5 0 
" id="m2c36466dac" style="stroke:#000000;stroke-width:0.8;"/>
      </defs>
      <g>
       <use style="stroke:#000000;stroke-width:0.8;" x="0" xlink:href="#m2c36466dac" y="136.08"/>
      </g>
     </g>
    </g>
    <g id="ytick_2">
     <g id="line2d_7">
      <g>
       <use style="stroke:#000000;stroke-width:0.8;" x="0" xlink:href="#m2c36466dac" y="100.073129"/>
      </g>
     </g>
    </g>
    <g id="ytick_3">
     <g id="line2d_8">
      <g>
       <use style="stroke:#000000;stroke-width:0.8;" x="0" xlink:href="#m2c36466dac" y="64.066258"/>
      </g>
     </g>
    </g>
    <g id="ytick_4">
     <g id="line2d_9">
      <g>
       <use style="stroke:#000000;stroke-width:0.8;" x="0" xlink:href="#m2c36466dac" y="28.059387"/>
      </g>
     </g>
    </g>
   </g>
   <g id="line2d_10">
    <path clip-path="url(#pd705c3e50e)" d="M 0 136.079273 
L 1.44 136.078353 
L 2.88 136.076425 
L 4.32 136.07256 
L 5.76 136.065155 
L 7.2 136.05159 
L 8.64 136.027838 
L 10.08 135.988092 
L 11.52 135.924532 
L 12.96 135.827412 
L 14.4 135.685614 
L 15.84 135.487766 
L 17.28 135.22386 
L 18.72 134.88707 
L 20.16 134.475274 
L 21.6 133.991683 
L 23.04 133.444093 
L 24.48 132.842607 
L 25.92 132.196227 
L 27.36 131.509187 
L 28.8 130.778227 
L 30.24 129.991846 
L 31.68 129.132096 
L 33.12 128.17865 
L 34.56 127.114149 
L 36 125.929367 
L 37.44 124.626773 
L 38.88 123.2215 
L 40.32 121.739465 
L 41.76 120.213062 
L 43.2 118.675372 
L 44.64 117.154093 
L 46.08 115.666395 
L 47.52 114.215732 
L 48.96 112.791331 
L 50.4 111.370589 
L 51.84 109.924045 
L 53.28 108.421959 
L 54.72 106.841019 
L 56.16 105.169509 
L 57.6 103.409468 
L 59.04 101.575089 
L 60.48 99.687639 
L 61.92 97.768327 
L 63.36 95.831423 
L 64.8 93.880178 
L 66.24 91.907478 
L 67.68 89.901724 
L 69.12 87.856577 
L 70.56 85.78161 
L 72 83.710285 
L 73.44 81.702342 
L 74.88 79.839511 
L 76.32 78.215654 
L 77.76 76.924068 
L 79.2 76.045196 
L 80.64 75.637171 
L 82.08 75.730136 
L 83.52 76.323879 
L 84.96 77.38764 
L 86.4 78.861162 
L 87.84 80.656894 
L 89.28 82.66404 
L 90.72 84.755478 
L 92.16 86.798175 
L 93.6 88.666723 
L 95.04 90.258368 
L 96.48 91.506898 
L 97.92 92.39235 
L 99.36 92.94393 
L 100.8 93.234809 
L 102.24 93.369226 
L 103.68 93.464195 
L 105.12 93.62945 
L 106.56 93.949745 
L 108 94.473054 
L 109.44 95.206692 
L 110.88 96.121378 
L 112.32 97.161289 
L 113.76 98.25669 
L 115.2 99.335263 
L 116.64 100.328876 
L 118.08 101.174088 
L 119.52 101.806852 
L 120.96 102.153913 
L 122.4 102.124849 
L 123.84 101.609028 
L 125.28 100.480912 
L 126.72 98.615361 
L 128.16 95.91237 
L 129.6 92.328391 
L 131.04 87.909411 
L 132.48 82.819237 
L 133.92 77.355359 
L 135.36 71.944669 
L 136.8 67.113158 
L 138.24 63.428133 
L 139.68 61.418368 
L 141.12 61.485391 
L 142.56 63.825051 
L 144 68.379623 
" style="fill:none;stroke:#b4bbc6;stroke-linecap:square;stroke-width:1.5;"/>
   </g>
   <g id="line2d_11">
    <path clip-path="url(#pd705c3e50e)" d="M 0 136.08 
L 1.44 136.079998 
L 2.88 136.079994 
L 4.32 136.079982 
L 5.76 136.079945 
L 7.2 136.079843 
L 8.64 136.079577 
L 10.08 136.078922 
L 11.52 136.077402 
L 12.96 136.074071 
L 14.4 136.067176 
L 15.84 136.053701 
L 17.28 136.028824 
L 18.72 135.985444 
L 20.16 135.913999 
L 21.6 135.80289 
L 23.04 135.639801 
L 24.48 135.414011 
L 25.92 135.119454 
L 27.36 134.757843 
L 28.8 134.340809 
L 30.24 133.889945 
L 31.68 133.433986 
L 33.12 133.003155 
L 34.56 132.621624 
L 36 132.299904 
L 37.44 132.029324 
L 38.88 131.780484 
L 40.32 131.506659 
L 41.76 131.151786 
L 43.2 130.661276 
L 44.64 129.992999 
L 46.08 129.125658 
L 47.52 128.062662 
L 48.96 126.831003 
L 50.4 125.475979 
L 51.84 124.053174 
L 53.28 122.618929 
L 54.72 121.219959 
L 56.16 119.882841 
L 57.6 118.604934 
L 59.04 117.349621 
L 60.48 116.049271 
L 61.92 114.618083 
L 63.36 112.973742 
L 64.8 111.062892 
L 66.24 108.882604 
L 67.68 106.490171 
L 69.12 103.996914 
L 70.56 101.547204 
L 72 99.288979 
L 73.44 97.34457 
L 74.88 95.789487 
L 76.32 94.643094 
L 77.76 93.870738 
L 79.2 93.394126 
L 80.64 93.106177 
L 82.08 92.887486 
L 83.52 92.622543 
L 84.96 92.214054 
L 86.4 91.593438 
L 87.84 90.725797 
L 89.28 89.609025 
L 90.72 88.268862 
L 92.16 86.753187 
L 93.6 85.128352 
L 95.04 83.477816 
L 96.48 81.900123 
L 97.92 80.501804 
L 99.36 79.382411 
L 100.8 78.613477 
L 102.24 78.21814 
L 103.68 78.160679 
L 105.12 78.35316 
L 106.56 78.680045 
L 108 79.033552 
L 109.44 79.346574 
L 110.88 79.60944 
L 112.32 79.862688 
L 113.76 80.168222 
L 115.2 80.570947 
L 116.64 81.067306 
L 118.08 81.593793 
L 119.52 82.039057 
L 120.96 82.272559 
L 122.4 82.176109 
L 123.84 81.664593 
L 125.28 80.688227 
L 126.72 79.217404 
L 128.16 77.219353 
L 129.6 74.641047 
L 131.04 71.413666 
L 132.48 67.489248 
L 133.92 62.909151 
L 135.36 57.887583 
L 136.8 52.877071 
L 138.24 48.575147 
L 139.68 45.8418 
L 141.12 45.527422 
L 142.56 48.251713 
L 144 54.205934 
" style="fill:none;stroke:#84acf0;stroke-linecap:square;stroke-width:1.5;"/>
   </g>
   <g id="line2d_12">
    <path clip-path="url(#pd705c3e50e)" d="M 0 136.08 
L 1.44 136.08 
L 2.88 136.079998 
L 4.32 136.079992 
L 5.76 136.079974 
L 7.2 136.079916 
L 8.64 136.079747 
L 10.08 136.079291 
L 11.52 136.078127 
L 12.96 136.075353 
L 14.4 136.069156 
L 15.84 136.056199 
L 17.28 136.030846 
L 18.72 135.984453 
L 20.16 135.905118 
L 21.6 135.778451 
L 23.04 135.589886 
L 24.48 135.328627 
L 25.92 134.99259 
L 27.36 134.592809 
L 28.8 134.155245 
L 30.24 133.718217 
L 31.68 133.324993 
L 33.12 133.013026 
L 34.56 132.803124 
L 36 132.692518 
L 37.44 132.654888 
L 38.88 132.647963 
L 40.32 132.626404 
L 41.76 132.555377 
L 43.2 132.419679 
L 44.64 132.224943 
L 46.08 131.990636 
L 47.52 131.738031 
L 48.96 131.478362 
L 50.4 131.205889 
L 51.84 130.897939 
L 53.28 130.520493 
L 54.72 130.035518 
L 56.16 129.406101 
L 57.6 128.597368 
L 59.04 127.573951 
L 60.48 126.296907 
L 61.92 124.723675 
L 63.36 122.813787 
L 64.8 120.541 
L 66.24 117.909679 
L 67.68 114.970277 
L 69.12 111.826698 
L 70.56 108.628893 
L 72 105.548453 
L 73.44 102.742469 
L 74.88 100.318192 
L 76.32 98.313218 
L 77.76 96.70031 
L 79.2 95.41439 
L 80.64 94.387976 
L 82.08 93.577469 
L 83.52 92.968908 
L 84.96 92.564368 
L 86.4 92.361053 
L 87.84 92.337776 
L 89.28 92.456775 
L 90.72 92.677863 
L 92.16 92.974 
L 93.6 93.337437 
L 95.04 93.77284 
L 96.48 94.282952 
L 97.92 94.857165 
L 99.36 95.470622 
L 100.8 96.093343 
L 102.24 96.700947 
L 103.68 97.276674 
L 105.12 97.800133 
L 106.56 98.228127 
L 108 98.480307 
L 109.44 98.442187 
L 110.88 97.98959 
L 112.32 97.026638 
L 113.76 95.520869 
L 115.2 93.518831 
L 116.64 91.133825 
L 118.08 88.509721 
L 119.52 85.774724 
L 120.96 83.001728 
L 122.4 80.186984 
L 123.84 77.249527 
L 125.28 74.045495 
L 126.72 70.388307 
L 128.16 66.068967 
L 129.6 60.878426 
L 131.04 54.641685 
L 132.48 47.275926 
L 133.92 38.877689 
L 135.36 29.825655 
L 136.8 20.860932 
L 138.24 13.08916 
L 139.68 7.855051 
L 141.12 6.48 
L 142.56 9.917504 
L 144 18.43888 
" style="fill:none;stroke:#93eb85;stroke-linecap:square;stroke-width:1.5;"/>
   </g>
  </g>
 </g>
 <defs>
  <clipPath id="pd705c3e50e">
   <rect height="142.56" width="144" x="0" y="0"/>
  </clipPath>
 </defs>
</svg>
