<?xml version="1.0" encoding="utf-8" standalone="no"?>
<!DOCTYPE svg PUBLIC "-//W3C//DTD SVG 1.1//EN"
  "http://www.w3.org/Graphics/SVG/1.1/DTD/svg11.dtd">
<!-- Created with matplotlib (https://matplotlib.org/) -->
<svg height="144pt" version="1.1" viewBox="0 0 144 144" width="144pt" xmlns="http://www.w3.org/2000/svg" xmlns:xlink="http://www.w3.org/1999/xlink">
 <defs>
  <style type="text/css">
*{stroke-linecap:butt;stroke-linejoin:round;}
  </style>
 </defs>
 <g id="figure_1">
  <g id="patch_1">
   <path d="M 0 144 
L 144 144 
L 144 0 
L 0 0 
z
" style="fill:#ffffff;"/>
  </g>
  <g id="axes_1">
   <g id="PolyCollection_1">
    <defs>
     <path d="M 1.44 -14.77332 
L 1.44 -6.73056 
L 9.36 -25.61184 
L 17.28 -34.902 
L 25.2 -51.9102 
L 33.12 -63.91296 
L 41.04 -70.41528 
L 48.96 -75.34152 
L 56.88 -76.8384 
L 64.8 -79.06788 
L 72.72 -84.94056 
L 80.64 -90.70236 
L 88.56 -91.77948 
L 96.48 -93.2328 
L 104.4 -94.6386 
L 112.32 -95.4306 
L 120.24 -95.49 
L 128.16 -96.93144 
L 136.08 -97.99272 
L 144 -99.54504 
L 144 -103.17636 
L 144 -103.17636 
L 136.08 -101.47356 
L 128.16 -101.56464 
L 120.24 -99.41832 
L 112.32 -98.81244 
L 104.4 -97.22052 
L 96.48 -95.99292 
L 88.56 -95.26428 
L 80.64 -95.10984 
L 72.72 -94.21488 
L 64.8 -91.40328 
L 56.88 -88.05708 
L 48.96 -84.30696 
L 41.04 -80.61624 
L 33.12 -71.93592 
L 25.2 -60.8202 
L 17.28 -45.7524 
L 9.36 -36.15732 
L 1.44 -14.77332 
z
" id="mdd3fd285e6" style="stroke:#b4bbc6;"/>
    </defs>
    <g clip-path="url(#pef2ecde8f1)">
     <use style="fill:#b4bbc6;stroke:#b4bbc6;" x="0" xlink:href="#mdd3fd285e6" y="144"/>
    </g>
   </g>
   <g id="PolyCollection_2">
    <defs>
     <path d="M 1.44 -41.55084 
L 1.44 -26.1702 
L 9.36 -44.39808 
L 17.28 -56.55528 
L 25.2 -56.86812 
L 33.12 -70.5816 
L 41.04 -74.89404 
L 48.96 -81.02412 
L 56.88 -85.53852 
L 64.8 -88.2036 
L 72.72 -91.728 
L 80.64 -102.1032 
L 88.56 -107.6868 
L 96.48 -107.43732 
L 104.4 -111.12804 
L 112.32 -115.41672 
L 120.24 -118.56096 
L 128.16 -120.6558 
L 136.08 -120.18852 
L 144 -125.289 
L 144 -130.932 
L 144 -130.932 
L 136.08 -130.05288 
L 128.16 -127.02744 
L 120.24 -125.97408 
L 112.32 -124.35444 
L 104.4 -120.1806 
L 96.48 -117.32148 
L 88.56 -114.28416 
L 80.64 -111.81312 
L 72.72 -108.24516 
L 64.8 -103.53276 
L 56.88 -99.58464 
L 48.96 -93.42684 
L 41.04 -89.61732 
L 33.12 -82.54476 
L 25.2 -77.9868 
L 17.28 -68.57388 
L 9.36 -56.80872 
L 1.44 -41.55084 
z
" id="m2d138062e9" style="stroke:#84acf0;"/>
    </defs>
    <g clip-path="url(#pef2ecde8f1)">
     <use style="fill:#84acf0;stroke:#84acf0;" x="0" xlink:href="#m2d138062e9" y="144"/>
    </g>
   </g>
   <g id="PolyCollection_3">
    <defs>
     <path d="M 1.44 -56.89188 
L 1.44 -41.43996 
L 9.36 -57.84228 
L 17.28 -68.78772 
L 25.2 -72.98136 
L 33.12 -80.56872 
L 41.04 -86.84136 
L 48.96 -94.91184 
L 56.88 -107.48484 
L 64.8 -112.32792 
L 72.72 -112.85856 
L 80.64 -116.30376 
L 88.56 -119.8044 
L 96.48 -126.19584 
L 104.4 -127.5066 
L 112.32 -128.26296 
L 120.24 -134.61876 
L 128.16 -136.14732 
L 136.08 -139.62024 
L 144 -139.90932 
L 144 -143.42976 
L 144 -143.42976 
L 136.08 -142.59816 
L 128.16 -143.109 
L 120.24 -142.72488 
L 112.32 -138.94704 
L 104.4 -138.6738 
L 96.48 -137.16108 
L 88.56 -132.86844 
L 80.64 -133.54164 
L 72.72 -126.94428 
L 64.8 -123.37632 
L 56.88 -119.0718 
L 48.96 -113.15952 
L 41.04 -106.17408 
L 33.12 -98.57484 
L 25.2 -88.14816 
L 17.28 -81.06372 
L 9.36 -67.11264 
L 1.44 -56.89188 
z
" id="m115e1fa7e1" style="stroke:#93eb85;"/>
    </defs>
    <g clip-path="url(#pef2ecde8f1)">
     <use style="fill:#93eb85;stroke:#93eb85;" x="0" xlink:href="#m115e1fa7e1" y="144"/>
    </g>
   </g>
   <g id="matplotlib.axis_1">
    <g id="xtick_1">
     <g id="line2d_1">
      <defs>
       <path d="M 0 0 
L 0 3.5 
" id="mb46675c93f" style="stroke:#000000;stroke-width:0.8;"/>
      </defs>
      <g>
       <use style="stroke:#000000;stroke-width:0.8;" x="1.44" xlink:href="#mb46675c93f" y="142.56"/>
      </g>
     </g>
    </g>
    <g id="xtick_2">
     <g id="line2d_2">
      <g>
       <use style="stroke:#000000;stroke-width:0.8;" x="17.28" xlink:href="#mb46675c93f" y="142.56"/>
      </g>
     </g>
    </g>
    <g id="xtick_3">
     <g id="line2d_3">
      <g>
       <use style="stroke:#000000;stroke-width:0.8;" x="33.12" xlink:href="#mb46675c93f" y="142.56"/>
      </g>
     </g>
    </g>
    <g id="xtick_4">
     <g id="line2d_4">
      <g>
       <use style="stroke:#000000;stroke-width:0.8;" x="48.96" xlink:href="#mb46675c93f" y="142.56"/>
      </g>
     </g>
    </g>
    <g id="xtick_5">
     <g id="line2d_5">
      <g>
       <use style="stroke:#000000;stroke-width:0.8;" x="64.8" xlink:href="#mb46675c93f" y="142.56"/>
      </g>
     </g>
    </g>
    <g id="xtick_6">
     <g id="line2d_6">
      <g>
       <use style="stroke:#000000;stroke-width:0.8;" x="80.64" xlink:href="#mb46675c93f" y="142.56"/>
      </g>
     </g>
    </g>
    <g id="xtick_7">
     <g id="line2d_7">
      <g>
       <use style="stroke:#000000;stroke-width:0.8;" x="96.48" xlink:href="#mb46675c93f" y="142.56"/>
      </g>
     </g>
    </g>
    <g id="xtick_8">
     <g id="line2d_8">
      <g>
       <use style="stroke:#000000;stroke-width:0.8;" x="112.32" xlink:href="#mb46675c93f" y="142.56"/>
      </g>
     </g>
    </g>
    <g id="xtick_9">
     <g id="line2d_9">
      <g>
       <use style="stroke:#000000;stroke-width:0.8;" x="128.16" xlink:href="#mb46675c93f" y="142.56"/>
      </g>
     </g>
    </g>
    <g id="xtick_10">
     <g id="line2d_10">
      <g>
       <use style="stroke:#000000;stroke-width:0.8;" x="144" xlink:href="#mb46675c93f" y="142.56"/>
      </g>
     </g>
    </g>
   </g>
   <g id="matplotlib.axis_2">
    <g id="ytick_1">
     <g id="line2d_11">
      <defs>
       <path d="M 0 0 
L -3.5 0 
" id="m6585b93ae1" style="stroke:#000000;stroke-width:0.8;"/>
      </defs>
      <g>
       <use style="stroke:#000000;stroke-width:0.8;" x="1.44" xlink:href="#m6585b93ae1" y="142.56"/>
      </g>
     </g>
    </g>
    <g id="ytick_2">
     <g id="line2d_12">
      <g>
       <use style="stroke:#000000;stroke-width:0.8;" x="1.44" xlink:href="#m6585b93ae1" y="114.048"/>
      </g>
     </g>
    </g>
    <g id="ytick_3">
     <g id="line2d_13">
      <g>
       <use style="stroke:#000000;stroke-width:0.8;" x="1.44" xlink:href="#m6585b93ae1" y="85.536"/>
      </g>
     </g>
    </g>
    <g id="ytick_4">
     <g id="line2d_14">
      <g>
       <use style="stroke:#000000;stroke-width:0.8;" x="1.44" xlink:href="#m6585b93ae1" y="57.024"/>
      </g>
     </g>
    </g>
    <g id="ytick_5">
     <g id="line2d_15">
      <g>
       <use style="stroke:#000000;stroke-width:0.8;" x="1.44" xlink:href="#m6585b93ae1" y="28.512"/>
      </g>
     </g>
    </g>
    <g id="ytick_6">
     <g id="line2d_16">
      <g>
       <use style="stroke:#000000;stroke-width:0.8;" x="1.44" xlink:href="#m6585b93ae1" y="0"/>
      </g>
     </g>
    </g>
   </g>
   <g id="line2d_17">
    <path clip-path="url(#pef2ecde8f1)" d="M 1.44 132.479424 
L 9.36 113.66685 
L 17.28 103.083156 
L 25.2 86.800626 
L 33.12 75.402558 
L 41.04 69.004188 
L 48.96 63.906876 
L 56.88 59.80689 
L 64.8 56.882034 
L 72.72 54.112212 
L 80.64 51.590484 
L 88.56 50.326056 
L 96.48 49.203 
L 104.4 47.989854 
L 112.32 46.914516 
L 120.24 46.098756 
L 128.16 44.981442 
L 136.08 43.965504 
L 144 43.305372 
" style="fill:none;stroke:#4d5766;stroke-linecap:square;stroke-width:1.5;"/>
   </g>
   <g id="line2d_18">
    <path clip-path="url(#pef2ecde8f1)" d="M 1.44 110.014146 
L 9.36 93.14118 
L 17.28 80.710938 
L 25.2 72.08586 
L 33.12 65.804904 
L 41.04 59.384754 
L 48.96 54.733536 
L 56.88 50.620878 
L 64.8 46.35873 
L 72.72 41.16222 
L 80.64 36.402498 
L 88.56 32.601888 
L 96.48 29.576844 
L 104.4 26.139366 
L 112.32 23.800392 
L 120.24 21.451122 
L 128.16 19.167588 
L 136.08 17.654472 
L 144 15.927318 
" style="fill:none;stroke:#124191;stroke-linecap:square;stroke-width:1.5;"/>
   </g>
   <g id="line2d_19">
    <path clip-path="url(#pef2ecde8f1)" d="M 1.44 93.255624 
L 9.36 80.679654 
L 17.28 71.162982 
L 25.2 62.553744 
L 33.12 52.70859 
L 41.04 45.218448 
L 48.96 38.101932 
L 56.88 32.084514 
L 64.8 26.032446 
L 72.72 22.899492 
L 80.64 19.713474 
L 88.56 16.404102 
L 96.48 12.93336 
L 104.4 10.3653 
L 112.32 8.528454 
L 120.24 5.43609 
L 128.16 4.254426 
L 136.08 2.989602 
L 144 2.190672 
" style="fill:none;stroke:#217513;stroke-linecap:square;stroke-width:1.5;"/>
   </g>
  </g>
 </g>
 <defs>
  <clipPath id="pef2ecde8f1">
   <rect height="142.56" width="142.56" x="1.44" y="0"/>
  </clipPath>
 </defs>
</svg>
