<?xml version="1.0" encoding="utf-8" standalone="no"?>
<!DOCTYPE svg PUBLIC "-//W3C//DTD SVG 1.1//EN"
  "http://www.w3.org/Graphics/SVG/1.1/DTD/svg11.dtd">
<!-- Created with matplotlib (https://matplotlib.org/) -->
<svg height="144pt" version="1.1" viewBox="0 0 244.8 144" width="244.8pt" xmlns="http://www.w3.org/2000/svg" xmlns:xlink="http://www.w3.org/1999/xlink">
 <defs>
  <style type="text/css">
*{stroke-linecap:butt;stroke-linejoin:round;}
  </style>
 </defs>
 <g id="figure_1">
  <g id="patch_1">
   <path d="M 0 144 
L 244.8 144 
L 244.8 0 
L 0 0 
z
" style="fill:#ffffff;"/>
  </g>
  <g id="axes_1">
   <g id="PathCollection_1">
    <defs>
     <path d="M 0 0.866025 
C 0.229673 0.866025 0.449969 0.774776 0.612372 0.612372 
C 0.774776 0.449969 0.866025 0.229673 0.866025 0 
C 0.866025 -0.229673 0.774776 -0.449969 0.612372 -0.612372 
C 0.449969 -0.774776 0.229673 -0.866025 0 -0.866025 
C -0.229673 -0.866025 -0.449969 -0.774776 -0.612372 -0.612372 
C -0.774776 -0.449969 -0.866025 -0.229673 -0.866025 0 
C -0.866025 0.229673 -0.774776 0.449969 -0.612372 0.612372 
C -0.449969 0.774776 -0.229673 0.866025 0 0.866025 
z
" id="ma3406fa24f" style="stroke:#ff0029;"/>
    </defs>
    <g clip-path="url(#p4a38230cf9)">
     <use style="fill:#ff0029;stroke:#ff0029;" x="6.590769" xlink:href="#ma3406fa24f" y="49.896"/>
     <use style="fill:#ff0029;stroke:#ff0029;" x="27.304615" xlink:href="#ma3406fa24f" y="97.416"/>
     <use style="fill:#ff0029;stroke:#ff0029;" x="48.018462" xlink:href="#ma3406fa24f" y="97.416"/>
     <use style="fill:#ff0029;stroke:#ff0029;" x="68.732308" xlink:href="#ma3406fa24f" y="128.304"/>
     <use style="fill:#ff0029;stroke:#ff0029;" x="89.446154" xlink:href="#ma3406fa24f" y="57.024"/>
     <use style="fill:#ff0029;stroke:#ff0029;" x="110.16" xlink:href="#ma3406fa24f" y="114.048"/>
     <use style="fill:#ff0029;stroke:#ff0029;" x="130.873846" xlink:href="#ma3406fa24f" y="95.04"/>
     <use style="fill:#ff0029;stroke:#ff0029;" x="151.587692" xlink:href="#ma3406fa24f" y="118.8"/>
     <use style="fill:#ff0029;stroke:#ff0029;" x="172.301538" xlink:href="#ma3406fa24f" y="121.176"/>
     <use style="fill:#ff0029;stroke:#ff0029;" x="193.015385" xlink:href="#ma3406fa24f" y="95.04"/>
     <use style="fill:#ff0029;stroke:#ff0029;" x="213.729231" xlink:href="#ma3406fa24f" y="76.032"/>
     <use style="fill:#ff0029;stroke:#ff0029;" x="234.443077" xlink:href="#ma3406fa24f" y="90.288"/>
    </g>
   </g>
   <g id="PathCollection_2">
    <defs>
     <path d="M 0 0.866025 
C 0.229673 0.866025 0.449969 0.774776 0.612372 0.612372 
C 0.774776 0.449969 0.866025 0.229673 0.866025 0 
C 0.866025 -0.229673 0.774776 -0.449969 0.612372 -0.612372 
C 0.449969 -0.774776 0.229673 -0.866025 0 -0.866025 
C -0.229673 -0.866025 -0.449969 -0.774776 -0.612372 -0.612372 
C -0.774776 -0.449969 -0.866025 -0.229673 -0.866025 0 
C -0.866025 0.229673 -0.774776 0.449969 -0.612372 0.612372 
C -0.449969 0.774776 -0.229673 0.866025 0 0.866025 
z
" id="m3766ad2a8d" style="stroke:#5cff00;"/>
    </defs>
    <g clip-path="url(#p4a38230cf9)">
     <use style="fill:#5cff00;stroke:#5cff00;" x="8.662154" xlink:href="#m3766ad2a8d" y="68.112"/>
     <use style="fill:#5cff00;stroke:#5cff00;" x="29.376" xlink:href="#m3766ad2a8d" y="94.248"/>
     <use style="fill:#5cff00;stroke:#5cff00;" x="50.089846" xlink:href="#m3766ad2a8d" y="115.632"/>
     <use style="fill:#5cff00;stroke:#5cff00;" x="70.803692" xlink:href="#m3766ad2a8d" y="114.84"/>
     <use style="fill:#5cff00;stroke:#5cff00;" x="91.517538" xlink:href="#m3766ad2a8d" y="95.04"/>
     <use style="fill:#5cff00;stroke:#5cff00;" x="112.231385" xlink:href="#m3766ad2a8d" y="106.128"/>
     <use style="fill:#5cff00;stroke:#5cff00;" x="132.945231" xlink:href="#m3766ad2a8d" y="79.2"/>
     <use style="fill:#5cff00;stroke:#5cff00;" x="153.659077" xlink:href="#m3766ad2a8d" y="91.08"/>
     <use style="fill:#5cff00;stroke:#5cff00;" x="174.372923" xlink:href="#m3766ad2a8d" y="93.456"/>
     <use style="fill:#5cff00;stroke:#5cff00;" x="195.086769" xlink:href="#m3766ad2a8d" y="112.464"/>
     <use style="fill:#5cff00;stroke:#5cff00;" x="215.800615" xlink:href="#m3766ad2a8d" y="87.912"/>
     <use style="fill:#5cff00;stroke:#5cff00;" x="236.514462" xlink:href="#m3766ad2a8d" y="82.368"/>
    </g>
   </g>
   <g id="PathCollection_3">
    <defs>
     <path d="M 0 0.866025 
C 0.229673 0.866025 0.449969 0.774776 0.612372 0.612372 
C 0.774776 0.449969 0.866025 0.229673 0.866025 0 
C 0.866025 -0.229673 0.774776 -0.449969 0.612372 -0.612372 
C 0.449969 -0.774776 0.229673 -0.866025 0 -0.866025 
C -0.229673 -0.866025 -0.449969 -0.774776 -0.612372 -0.612372 
C -0.774776 -0.449969 -0.866025 -0.229673 -0.866025 0 
C -0.866025 0.229673 -0.774776 0.449969 -0.612372 0.612372 
C -0.449969 0.774776 -0.229673 0.866025 0 0.866025 
z
" id="m5ab33cd0d7" style="stroke:#008fff;"/>
    </defs>
    <g clip-path="url(#p4a38230cf9)">
     <use style="fill:#008fff;stroke:#008fff;" x="10.733538" xlink:href="#m5ab33cd0d7" y="83.16"/>
     <use style="fill:#008fff;stroke:#008fff;" x="31.447385" xlink:href="#m5ab33cd0d7" y="95.04"/>
     <use style="fill:#008fff;stroke:#008fff;" x="52.161231" xlink:href="#m5ab33cd0d7" y="101.376"/>
     <use style="fill:#008fff;stroke:#008fff;" x="72.875077" xlink:href="#m5ab33cd0d7" y="107.316"/>
     <use style="fill:#008fff;stroke:#008fff;" x="93.588923" xlink:href="#m5ab33cd0d7" y="106.524"/>
     <use style="fill:#008fff;stroke:#008fff;" x="114.302769" xlink:href="#m5ab33cd0d7" y="102.564"/>
     <use style="fill:#008fff;stroke:#008fff;" x="135.016615" xlink:href="#m5ab33cd0d7" y="84.744"/>
     <use style="fill:#008fff;stroke:#008fff;" x="155.730462" xlink:href="#m5ab33cd0d7" y="95.04"/>
     <use style="fill:#008fff;stroke:#008fff;" x="176.444308" xlink:href="#m5ab33cd0d7" y="94.248"/>
     <use style="fill:#008fff;stroke:#008fff;" x="197.158154" xlink:href="#m5ab33cd0d7" y="96.228"/>
     <use style="fill:#008fff;stroke:#008fff;" x="217.872" xlink:href="#m5ab33cd0d7" y="81.972"/>
     <use style="fill:#008fff;stroke:#008fff;" x="238.585846" xlink:href="#m5ab33cd0d7" y="92.268"/>
    </g>
   </g>
   <g id="PathCollection_4">
    <defs>
     <path d="M 0 0.866025 
C 0.229673 0.866025 0.449969 0.774776 0.612372 0.612372 
C 0.774776 0.449969 0.866025 0.229673 0.866025 0 
C 0.866025 -0.229673 0.774776 -0.449969 0.612372 -0.612372 
C 0.449969 -0.774776 0.229673 -0.866025 0 -0.866025 
C -0.229673 -0.866025 -0.449969 -0.774776 -0.612372 -0.612372 
C -0.774776 -0.449969 -0.866025 -0.229673 -0.866025 0 
C -0.866025 0.229673 -0.774776 0.449969 -0.612372 0.612372 
C -0.449969 0.774776 -0.229673 0.866025 0 0.866025 
z
" id="m5650f82940" style="stroke:#ff00bf;"/>
    </defs>
    <g clip-path="url(#p4a38230cf9)">
     <use style="fill:#ff00bf;stroke:#ff00bf;" x="12.804923" xlink:href="#m5650f82940" y="92.664"/>
     <use style="fill:#ff00bf;stroke:#ff00bf;" x="33.518769" xlink:href="#m5650f82940" y="90.5256"/>
     <use style="fill:#ff00bf;stroke:#ff00bf;" x="54.232615" xlink:href="#m5650f82940" y="92.664"/>
     <use style="fill:#ff00bf;stroke:#ff00bf;" x="74.946462" xlink:href="#m5650f82940" y="105.9696"/>
     <use style="fill:#ff00bf;stroke:#ff00bf;" x="95.660308" xlink:href="#m5650f82940" y="96.9408"/>
     <use style="fill:#ff00bf;stroke:#ff00bf;" x="116.374154" xlink:href="#m5650f82940" y="106.2072"/>
     <use style="fill:#ff00bf;stroke:#ff00bf;" x="137.088" xlink:href="#m5650f82940" y="91.2384"/>
     <use style="fill:#ff00bf;stroke:#ff00bf;" x="157.801846" xlink:href="#m5650f82940" y="93.3768"/>
     <use style="fill:#ff00bf;stroke:#ff00bf;" x="178.515692" xlink:href="#m5650f82940" y="100.7424"/>
     <use style="fill:#ff00bf;stroke:#ff00bf;" x="199.229538" xlink:href="#m5650f82940" y="94.5648"/>
     <use style="fill:#ff00bf;stroke:#ff00bf;" x="219.943385" xlink:href="#m5650f82940" y="82.9224"/>
     <use style="fill:#ff00bf;stroke:#ff00bf;" x="240.657231" xlink:href="#m5650f82940" y="92.664"/>
    </g>
   </g>
   <g id="matplotlib.axis_1">
    <g id="xtick_1">
     <g id="line2d_1">
      <defs>
       <path d="M 0 0 
L 0 3.5 
" id="m449592d834" style="stroke:#000000;stroke-width:0.8;"/>
      </defs>
      <g>
       <use style="stroke:#000000;stroke-width:0.8;" x="9.697846" xlink:href="#m449592d834" y="142.56"/>
      </g>
     </g>
     <g id="text_1">
      <!-- 0 -->
      <defs>
       <path d="M 31.78125 66.40625 
Q 24.171875 66.40625 20.328125 58.90625 
Q 16.5 51.421875 16.5 36.375 
Q 16.5 21.390625 20.328125 13.890625 
Q 24.171875 6.390625 31.78125 6.390625 
Q 39.453125 6.390625 43.28125 13.890625 
Q 47.125 21.390625 47.125 36.375 
Q 47.125 51.421875 43.28125 58.90625 
Q 39.453125 66.40625 31.78125 66.40625 
z
M 31.78125 74.21875 
Q 44.046875 74.21875 50.515625 64.515625 
Q 56.984375 54.828125 56.984375 36.375 
Q 56.984375 17.96875 50.515625 8.265625 
Q 44.046875 -1.421875 31.78125 -1.421875 
Q 19.53125 -1.421875 13.0625 8.265625 
Q 6.59375 17.96875 6.59375 36.375 
Q 6.59375 54.828125 13.0625 64.515625 
Q 19.53125 74.21875 31.78125 74.21875 
z
" id="DejaVuSans-48"/>
      </defs>
      <g transform="translate(6.516596 157.158437)scale(0.1 -0.1)">
       <use xlink:href="#DejaVuSans-48"/>
      </g>
     </g>
    </g>
    <g id="xtick_2">
     <g id="line2d_2">
      <g>
       <use style="stroke:#000000;stroke-width:0.8;" x="30.411692" xlink:href="#m449592d834" y="142.56"/>
      </g>
     </g>
     <g id="text_2">
      <!-- 1 -->
      <defs>
       <path d="M 12.40625 8.296875 
L 28.515625 8.296875 
L 28.515625 63.921875 
L 10.984375 60.40625 
L 10.984375 69.390625 
L 28.421875 72.90625 
L 38.28125 72.90625 
L 38.28125 8.296875 
L 54.390625 8.296875 
L 54.390625 0 
L 12.40625 0 
z
" id="DejaVuSans-49"/>
      </defs>
      <g transform="translate(27.230442 157.158437)scale(0.1 -0.1)">
       <use xlink:href="#DejaVuSans-49"/>
      </g>
     </g>
    </g>
    <g id="xtick_3">
     <g id="line2d_3">
      <g>
       <use style="stroke:#000000;stroke-width:0.8;" x="51.125538" xlink:href="#m449592d834" y="142.56"/>
      </g>
     </g>
     <g id="text_3">
      <!-- 2 -->
      <defs>
       <path d="M 19.1875 8.296875 
L 53.609375 8.296875 
L 53.609375 0 
L 7.328125 0 
L 7.328125 8.296875 
Q 12.9375 14.109375 22.625 23.890625 
Q 32.328125 33.6875 34.8125 36.53125 
Q 39.546875 41.84375 41.421875 45.53125 
Q 43.3125 49.21875 43.3125 52.78125 
Q 43.3125 58.59375 39.234375 62.25 
Q 35.15625 65.921875 28.609375 65.921875 
Q 23.96875 65.921875 18.8125 64.3125 
Q 13.671875 62.703125 7.8125 59.421875 
L 7.8125 69.390625 
Q 13.765625 71.78125 18.9375 73 
Q 24.125 74.21875 28.421875 74.21875 
Q 39.75 74.21875 46.484375 68.546875 
Q 53.21875 62.890625 53.21875 53.421875 
Q 53.21875 48.921875 51.53125 44.890625 
Q 49.859375 40.875 45.40625 35.40625 
Q 44.1875 33.984375 37.640625 27.21875 
Q 31.109375 20.453125 19.1875 8.296875 
z
" id="DejaVuSans-50"/>
      </defs>
      <g transform="translate(47.944288 157.158437)scale(0.1 -0.1)">
       <use xlink:href="#DejaVuSans-50"/>
      </g>
     </g>
    </g>
    <g id="xtick_4">
     <g id="line2d_4">
      <g>
       <use style="stroke:#000000;stroke-width:0.8;" x="71.839385" xlink:href="#m449592d834" y="142.56"/>
      </g>
     </g>
     <g id="text_4">
      <!-- 3 -->
      <defs>
       <path d="M 40.578125 39.3125 
Q 47.65625 37.796875 51.625 33 
Q 55.609375 28.21875 55.609375 21.1875 
Q 55.609375 10.40625 48.1875 4.484375 
Q 40.765625 -1.421875 27.09375 -1.421875 
Q 22.515625 -1.421875 17.65625 -0.515625 
Q 12.796875 0.390625 7.625 2.203125 
L 7.625 11.71875 
Q 11.71875 9.328125 16.59375 8.109375 
Q 21.484375 6.890625 26.8125 6.890625 
Q 36.078125 6.890625 40.9375 10.546875 
Q 45.796875 14.203125 45.796875 21.1875 
Q 45.796875 27.640625 41.28125 31.265625 
Q 36.765625 34.90625 28.71875 34.90625 
L 20.21875 34.90625 
L 20.21875 43.015625 
L 29.109375 43.015625 
Q 36.375 43.015625 40.234375 45.921875 
Q 44.09375 48.828125 44.09375 54.296875 
Q 44.09375 59.90625 40.109375 62.90625 
Q 36.140625 65.921875 28.71875 65.921875 
Q 24.65625 65.921875 20.015625 65.03125 
Q 15.375 64.15625 9.8125 62.3125 
L 9.8125 71.09375 
Q 15.4375 72.65625 20.34375 73.4375 
Q 25.25 74.21875 29.59375 74.21875 
Q 40.828125 74.21875 47.359375 69.109375 
Q 53.90625 64.015625 53.90625 55.328125 
Q 53.90625 49.265625 50.4375 45.09375 
Q 46.96875 40.921875 40.578125 39.3125 
z
" id="DejaVuSans-51"/>
      </defs>
      <g transform="translate(68.658135 157.158437)scale(0.1 -0.1)">
       <use xlink:href="#DejaVuSans-51"/>
      </g>
     </g>
    </g>
    <g id="xtick_5">
     <g id="line2d_5">
      <g>
       <use style="stroke:#000000;stroke-width:0.8;" x="92.553231" xlink:href="#m449592d834" y="142.56"/>
      </g>
     </g>
     <g id="text_5">
      <!-- 4 -->
      <defs>
       <path d="M 37.796875 64.3125 
L 12.890625 25.390625 
L 37.796875 25.390625 
z
M 35.203125 72.90625 
L 47.609375 72.90625 
L 47.609375 25.390625 
L 58.015625 25.390625 
L 58.015625 17.1875 
L 47.609375 17.1875 
L 47.609375 0 
L 37.796875 0 
L 37.796875 17.1875 
L 4.890625 17.1875 
L 4.890625 26.703125 
z
" id="DejaVuSans-52"/>
      </defs>
      <g transform="translate(89.371981 157.158437)scale(0.1 -0.1)">
       <use xlink:href="#DejaVuSans-52"/>
      </g>
     </g>
    </g>
    <g id="xtick_6">
     <g id="line2d_6">
      <g>
       <use style="stroke:#000000;stroke-width:0.8;" x="113.267077" xlink:href="#m449592d834" y="142.56"/>
      </g>
     </g>
     <g id="text_6">
      <!-- 5 -->
      <defs>
       <path d="M 10.796875 72.90625 
L 49.515625 72.90625 
L 49.515625 64.59375 
L 19.828125 64.59375 
L 19.828125 46.734375 
Q 21.96875 47.46875 24.109375 47.828125 
Q 26.265625 48.1875 28.421875 48.1875 
Q 40.625 48.1875 47.75 41.5 
Q 54.890625 34.8125 54.890625 23.390625 
Q 54.890625 11.625 47.5625 5.09375 
Q 40.234375 -1.421875 26.90625 -1.421875 
Q 22.3125 -1.421875 17.546875 -0.640625 
Q 12.796875 0.140625 7.71875 1.703125 
L 7.71875 11.625 
Q 12.109375 9.234375 16.796875 8.0625 
Q 21.484375 6.890625 26.703125 6.890625 
Q 35.15625 6.890625 40.078125 11.328125 
Q 45.015625 15.765625 45.015625 23.390625 
Q 45.015625 31 40.078125 35.4375 
Q 35.15625 39.890625 26.703125 39.890625 
Q 22.75 39.890625 18.8125 39.015625 
Q 14.890625 38.140625 10.796875 36.28125 
z
" id="DejaVuSans-53"/>
      </defs>
      <g transform="translate(110.085827 157.158437)scale(0.1 -0.1)">
       <use xlink:href="#DejaVuSans-53"/>
      </g>
     </g>
    </g>
    <g id="xtick_7">
     <g id="line2d_7">
      <g>
       <use style="stroke:#000000;stroke-width:0.8;" x="133.980923" xlink:href="#m449592d834" y="142.56"/>
      </g>
     </g>
     <g id="text_7">
      <!-- 6 -->
      <defs>
       <path d="M 33.015625 40.375 
Q 26.375 40.375 22.484375 35.828125 
Q 18.609375 31.296875 18.609375 23.390625 
Q 18.609375 15.53125 22.484375 10.953125 
Q 26.375 6.390625 33.015625 6.390625 
Q 39.65625 6.390625 43.53125 10.953125 
Q 47.40625 15.53125 47.40625 23.390625 
Q 47.40625 31.296875 43.53125 35.828125 
Q 39.65625 40.375 33.015625 40.375 
z
M 52.59375 71.296875 
L 52.59375 62.3125 
Q 48.875 64.0625 45.09375 64.984375 
Q 41.3125 65.921875 37.59375 65.921875 
Q 27.828125 65.921875 22.671875 59.328125 
Q 17.53125 52.734375 16.796875 39.40625 
Q 19.671875 43.65625 24.015625 45.921875 
Q 28.375 48.1875 33.59375 48.1875 
Q 44.578125 48.1875 50.953125 41.515625 
Q 57.328125 34.859375 57.328125 23.390625 
Q 57.328125 12.15625 50.6875 5.359375 
Q 44.046875 -1.421875 33.015625 -1.421875 
Q 20.359375 -1.421875 13.671875 8.265625 
Q 6.984375 17.96875 6.984375 36.375 
Q 6.984375 53.65625 15.1875 63.9375 
Q 23.390625 74.21875 37.203125 74.21875 
Q 40.921875 74.21875 44.703125 73.484375 
Q 48.484375 72.75 52.59375 71.296875 
z
" id="DejaVuSans-54"/>
      </defs>
      <g transform="translate(130.799673 157.158437)scale(0.1 -0.1)">
       <use xlink:href="#DejaVuSans-54"/>
      </g>
     </g>
    </g>
    <g id="xtick_8">
     <g id="line2d_8">
      <g>
       <use style="stroke:#000000;stroke-width:0.8;" x="154.694769" xlink:href="#m449592d834" y="142.56"/>
      </g>
     </g>
     <g id="text_8">
      <!-- 7 -->
      <defs>
       <path d="M 8.203125 72.90625 
L 55.078125 72.90625 
L 55.078125 68.703125 
L 28.609375 0 
L 18.3125 0 
L 43.21875 64.59375 
L 8.203125 64.59375 
z
" id="DejaVuSans-55"/>
      </defs>
      <g transform="translate(151.513519 157.158437)scale(0.1 -0.1)">
       <use xlink:href="#DejaVuSans-55"/>
      </g>
     </g>
    </g>
    <g id="xtick_9">
     <g id="line2d_9">
      <g>
       <use style="stroke:#000000;stroke-width:0.8;" x="175.408615" xlink:href="#m449592d834" y="142.56"/>
      </g>
     </g>
     <g id="text_9">
      <!-- 8 -->
      <defs>
       <path d="M 31.78125 34.625 
Q 24.75 34.625 20.71875 30.859375 
Q 16.703125 27.09375 16.703125 20.515625 
Q 16.703125 13.921875 20.71875 10.15625 
Q 24.75 6.390625 31.78125 6.390625 
Q 38.8125 6.390625 42.859375 10.171875 
Q 46.921875 13.96875 46.921875 20.515625 
Q 46.921875 27.09375 42.890625 30.859375 
Q 38.875 34.625 31.78125 34.625 
z
M 21.921875 38.8125 
Q 15.578125 40.375 12.03125 44.71875 
Q 8.5 49.078125 8.5 55.328125 
Q 8.5 64.0625 14.71875 69.140625 
Q 20.953125 74.21875 31.78125 74.21875 
Q 42.671875 74.21875 48.875 69.140625 
Q 55.078125 64.0625 55.078125 55.328125 
Q 55.078125 49.078125 51.53125 44.71875 
Q 48 40.375 41.703125 38.8125 
Q 48.828125 37.15625 52.796875 32.3125 
Q 56.78125 27.484375 56.78125 20.515625 
Q 56.78125 9.90625 50.3125 4.234375 
Q 43.84375 -1.421875 31.78125 -1.421875 
Q 19.734375 -1.421875 13.25 4.234375 
Q 6.78125 9.90625 6.78125 20.515625 
Q 6.78125 27.484375 10.78125 32.3125 
Q 14.796875 37.15625 21.921875 38.8125 
z
M 18.3125 54.390625 
Q 18.3125 48.734375 21.84375 45.5625 
Q 25.390625 42.390625 31.78125 42.390625 
Q 38.140625 42.390625 41.71875 45.5625 
Q 45.3125 48.734375 45.3125 54.390625 
Q 45.3125 60.0625 41.71875 63.234375 
Q 38.140625 66.40625 31.78125 66.40625 
Q 25.390625 66.40625 21.84375 63.234375 
Q 18.3125 60.0625 18.3125 54.390625 
z
" id="DejaVuSans-56"/>
      </defs>
      <g transform="translate(172.227365 157.158437)scale(0.1 -0.1)">
       <use xlink:href="#DejaVuSans-56"/>
      </g>
     </g>
    </g>
    <g id="xtick_10">
     <g id="line2d_10">
      <g>
       <use style="stroke:#000000;stroke-width:0.8;" x="196.122462" xlink:href="#m449592d834" y="142.56"/>
      </g>
     </g>
     <g id="text_10">
      <!-- 9 -->
      <defs>
       <path d="M 10.984375 1.515625 
L 10.984375 10.5 
Q 14.703125 8.734375 18.5 7.8125 
Q 22.3125 6.890625 25.984375 6.890625 
Q 35.75 6.890625 40.890625 13.453125 
Q 46.046875 20.015625 46.78125 33.40625 
Q 43.953125 29.203125 39.59375 26.953125 
Q 35.25 24.703125 29.984375 24.703125 
Q 19.046875 24.703125 12.671875 31.3125 
Q 6.296875 37.9375 6.296875 49.421875 
Q 6.296875 60.640625 12.9375 67.421875 
Q 19.578125 74.21875 30.609375 74.21875 
Q 43.265625 74.21875 49.921875 64.515625 
Q 56.59375 54.828125 56.59375 36.375 
Q 56.59375 19.140625 48.40625 8.859375 
Q 40.234375 -1.421875 26.421875 -1.421875 
Q 22.703125 -1.421875 18.890625 -0.6875 
Q 15.09375 0.046875 10.984375 1.515625 
z
M 30.609375 32.421875 
Q 37.25 32.421875 41.125 36.953125 
Q 45.015625 41.5 45.015625 49.421875 
Q 45.015625 57.28125 41.125 61.84375 
Q 37.25 66.40625 30.609375 66.40625 
Q 23.96875 66.40625 20.09375 61.84375 
Q 16.21875 57.28125 16.21875 49.421875 
Q 16.21875 41.5 20.09375 36.953125 
Q 23.96875 32.421875 30.609375 32.421875 
z
" id="DejaVuSans-57"/>
      </defs>
      <g transform="translate(192.941212 157.158437)scale(0.1 -0.1)">
       <use xlink:href="#DejaVuSans-57"/>
      </g>
     </g>
    </g>
    <g id="xtick_11">
     <g id="line2d_11">
      <g>
       <use style="stroke:#000000;stroke-width:0.8;" x="216.836308" xlink:href="#m449592d834" y="142.56"/>
      </g>
     </g>
     <g id="text_11">
      <!-- 10 -->
      <g transform="translate(210.473808 157.158437)scale(0.1 -0.1)">
       <use xlink:href="#DejaVuSans-49"/>
       <use x="63.623047" xlink:href="#DejaVuSans-48"/>
      </g>
     </g>
    </g>
    <g id="xtick_12">
     <g id="line2d_12">
      <g>
       <use style="stroke:#000000;stroke-width:0.8;" x="237.550154" xlink:href="#m449592d834" y="142.56"/>
      </g>
     </g>
     <g id="text_12">
      <!-- 11 -->
      <g transform="translate(231.187654 157.158437)scale(0.1 -0.1)">
       <use xlink:href="#DejaVuSans-49"/>
       <use x="63.623047" xlink:href="#DejaVuSans-49"/>
      </g>
     </g>
    </g>
   </g>
   <g id="matplotlib.axis_2">
    <g id="ytick_1">
     <g id="line2d_13">
      <defs>
       <path d="M 0 0 
L -3.5 0 
" id="m4f667879d2" style="stroke:#000000;stroke-width:0.8;"/>
      </defs>
      <g>
       <use style="stroke:#000000;stroke-width:0.8;" x="2.448" xlink:href="#m4f667879d2" y="142.56"/>
      </g>
     </g>
     <g id="text_13">
      <!-- 0.0 -->
      <defs>
       <path d="M 10.6875 12.40625 
L 21 12.40625 
L 21 0 
L 10.6875 0 
z
" id="DejaVuSans-46"/>
      </defs>
      <g transform="translate(-20.455125 146.359219)scale(0.1 -0.1)">
       <use xlink:href="#DejaVuSans-48"/>
       <use x="63.623047" xlink:href="#DejaVuSans-46"/>
       <use x="95.410156" xlink:href="#DejaVuSans-48"/>
      </g>
     </g>
    </g>
    <g id="ytick_2">
     <g id="line2d_14">
      <g>
       <use style="stroke:#000000;stroke-width:0.8;" x="2.448" xlink:href="#m4f667879d2" y="118.8"/>
      </g>
     </g>
     <g id="text_14">
      <!-- 0.5 -->
      <g transform="translate(-20.455125 122.599219)scale(0.1 -0.1)">
       <use xlink:href="#DejaVuSans-48"/>
       <use x="63.623047" xlink:href="#DejaVuSans-46"/>
       <use x="95.410156" xlink:href="#DejaVuSans-53"/>
      </g>
     </g>
    </g>
    <g id="ytick_3">
     <g id="line2d_15">
      <g>
       <use style="stroke:#000000;stroke-width:0.8;" x="2.448" xlink:href="#m4f667879d2" y="95.04"/>
      </g>
     </g>
     <g id="text_15">
      <!-- 1.0 -->
      <g transform="translate(-20.455125 98.839219)scale(0.1 -0.1)">
       <use xlink:href="#DejaVuSans-49"/>
       <use x="63.623047" xlink:href="#DejaVuSans-46"/>
       <use x="95.410156" xlink:href="#DejaVuSans-48"/>
      </g>
     </g>
    </g>
    <g id="ytick_4">
     <g id="line2d_16">
      <g>
       <use style="stroke:#000000;stroke-width:0.8;" x="2.448" xlink:href="#m4f667879d2" y="71.28"/>
      </g>
     </g>
     <g id="text_16">
      <!-- 1.5 -->
      <g transform="translate(-20.455125 75.079219)scale(0.1 -0.1)">
       <use xlink:href="#DejaVuSans-49"/>
       <use x="63.623047" xlink:href="#DejaVuSans-46"/>
       <use x="95.410156" xlink:href="#DejaVuSans-53"/>
      </g>
     </g>
    </g>
    <g id="ytick_5">
     <g id="line2d_17">
      <g>
       <use style="stroke:#000000;stroke-width:0.8;" x="2.448" xlink:href="#m4f667879d2" y="47.52"/>
      </g>
     </g>
     <g id="text_17">
      <!-- 2.0 -->
      <g transform="translate(-20.455125 51.319219)scale(0.1 -0.1)">
       <use xlink:href="#DejaVuSans-50"/>
       <use x="63.623047" xlink:href="#DejaVuSans-46"/>
       <use x="95.410156" xlink:href="#DejaVuSans-48"/>
      </g>
     </g>
    </g>
    <g id="ytick_6">
     <g id="line2d_18">
      <g>
       <use style="stroke:#000000;stroke-width:0.8;" x="2.448" xlink:href="#m4f667879d2" y="23.76"/>
      </g>
     </g>
     <g id="text_18">
      <!-- 2.5 -->
      <g transform="translate(-20.455125 27.559219)scale(0.1 -0.1)">
       <use xlink:href="#DejaVuSans-50"/>
       <use x="63.623047" xlink:href="#DejaVuSans-46"/>
       <use x="95.410156" xlink:href="#DejaVuSans-53"/>
      </g>
     </g>
    </g>
    <g id="ytick_7">
     <g id="line2d_19">
      <g>
       <use style="stroke:#000000;stroke-width:0.8;" x="2.448" xlink:href="#m4f667879d2" y="0"/>
      </g>
     </g>
     <g id="text_19">
      <!-- 3.0 -->
      <g transform="translate(-20.455125 3.799219)scale(0.1 -0.1)">
       <use xlink:href="#DejaVuSans-51"/>
       <use x="63.623047" xlink:href="#DejaVuSans-46"/>
       <use x="95.410156" xlink:href="#DejaVuSans-48"/>
      </g>
     </g>
    </g>
   </g>
   <g id="LineCollection_1">
    <path clip-path="url(#p4a38230cf9)" d="M 4.519385 95.04 
L 242.728615 95.04 
" style="fill:none;stroke:#000000;stroke-dasharray:3.7,1.6;stroke-dashoffset:0;"/>
   </g>
   <g id="LineCollection_2">
    <path clip-path="url(#p4a38230cf9)" d="M 6.590769 95.04 
L 6.590769 0 
" style="fill:none;stroke:#ff0029;"/>
    <path clip-path="url(#p4a38230cf9)" d="M 27.304615 142.56 
L 27.304615 95.04 
" style="fill:none;stroke:#ff0029;"/>
    <path clip-path="url(#p4a38230cf9)" d="M 48.018462 142.56 
L 48.018462 95.04 
" style="fill:none;stroke:#ff0029;"/>
    <path clip-path="url(#p4a38230cf9)" d="M 68.732308 142.56 
L 68.732308 95.04 
" style="fill:none;stroke:#ff0029;"/>
    <path clip-path="url(#p4a38230cf9)" d="M 89.446154 95.04 
L 89.446154 0 
" style="fill:none;stroke:#ff0029;"/>
    <path clip-path="url(#p4a38230cf9)" d="M 110.16 142.56 
L 110.16 47.52 
" style="fill:none;stroke:#ff0029;"/>
    <path clip-path="url(#p4a38230cf9)" d="M 130.873846 95.04 
L 130.873846 95.04 
" style="fill:none;stroke:#ff0029;"/>
    <path clip-path="url(#p4a38230cf9)" d="M 151.587692 142.56 
L 151.587692 95.04 
" style="fill:none;stroke:#ff0029;"/>
    <path clip-path="url(#p4a38230cf9)" d="M 172.301538 142.56 
L 172.301538 47.52 
" style="fill:none;stroke:#ff0029;"/>
    <path clip-path="url(#p4a38230cf9)" d="M 193.015385 95.04 
L 193.015385 95.04 
" style="fill:none;stroke:#ff0029;"/>
    <path clip-path="url(#p4a38230cf9)" d="M 213.729231 95.04 
L 213.729231 47.52 
" style="fill:none;stroke:#ff0029;"/>
    <path clip-path="url(#p4a38230cf9)" d="M 234.443077 142.56 
L 234.443077 47.52 
" style="fill:none;stroke:#ff0029;"/>
   </g>
   <g id="LineCollection_3">
    <path clip-path="url(#p4a38230cf9)" d="M 8.662154 95.04 
L 8.662154 31.68 
" style="fill:none;stroke:#5cff00;"/>
    <path clip-path="url(#p4a38230cf9)" d="M 29.376 110.88 
L 29.376 79.2 
" style="fill:none;stroke:#5cff00;"/>
    <path clip-path="url(#p4a38230cf9)" d="M 50.089846 126.72 
L 50.089846 95.04 
" style="fill:none;stroke:#5cff00;"/>
    <path clip-path="url(#p4a38230cf9)" d="M 70.803692 126.72 
L 70.803692 95.04 
" style="fill:none;stroke:#5cff00;"/>
    <path clip-path="url(#p4a38230cf9)" d="M 91.517538 95.04 
L 91.517538 95.04 
" style="fill:none;stroke:#5cff00;"/>
    <path clip-path="url(#p4a38230cf9)" d="M 112.231385 126.72 
L 112.231385 95.04 
" style="fill:none;stroke:#5cff00;"/>
    <path clip-path="url(#p4a38230cf9)" d="M 132.945231 95.04 
L 132.945231 63.36 
" style="fill:none;stroke:#5cff00;"/>
    <path clip-path="url(#p4a38230cf9)" d="M 153.659077 110.88 
L 153.659077 63.36 
" style="fill:none;stroke:#5cff00;"/>
    <path clip-path="url(#p4a38230cf9)" d="M 174.372923 110.88 
L 174.372923 63.36 
" style="fill:none;stroke:#5cff00;"/>
    <path clip-path="url(#p4a38230cf9)" d="M 195.086769 126.72 
L 195.086769 95.04 
" style="fill:none;stroke:#5cff00;"/>
    <path clip-path="url(#p4a38230cf9)" d="M 215.800615 110.88 
L 215.800615 47.52 
" style="fill:none;stroke:#5cff00;"/>
    <path clip-path="url(#p4a38230cf9)" d="M 236.514462 110.88 
L 236.514462 47.52 
" style="fill:none;stroke:#5cff00;"/>
   </g>
   <g id="LineCollection_4">
    <path clip-path="url(#p4a38230cf9)" d="M 10.733538 95.04 
L 10.733538 71.28 
" style="fill:none;stroke:#008fff;"/>
    <path clip-path="url(#p4a38230cf9)" d="M 31.447385 102.96 
L 31.447385 79.2 
" style="fill:none;stroke:#008fff;"/>
    <path clip-path="url(#p4a38230cf9)" d="M 52.161231 118.8 
L 52.161231 87.12 
" style="fill:none;stroke:#008fff;"/>
    <path clip-path="url(#p4a38230cf9)" d="M 72.875077 126.72 
L 72.875077 87.12 
" style="fill:none;stroke:#008fff;"/>
    <path clip-path="url(#p4a38230cf9)" d="M 93.588923 118.8 
L 93.588923 95.04 
" style="fill:none;stroke:#008fff;"/>
    <path clip-path="url(#p4a38230cf9)" d="M 114.302769 118.8 
L 114.302769 95.04 
" style="fill:none;stroke:#008fff;"/>
    <path clip-path="url(#p4a38230cf9)" d="M 135.016615 95.04 
L 135.016615 71.28 
" style="fill:none;stroke:#008fff;"/>
    <path clip-path="url(#p4a38230cf9)" d="M 155.730462 110.88 
L 155.730462 79.2 
" style="fill:none;stroke:#008fff;"/>
    <path clip-path="url(#p4a38230cf9)" d="M 176.444308 118.8 
L 176.444308 79.2 
" style="fill:none;stroke:#008fff;"/>
    <path clip-path="url(#p4a38230cf9)" d="M 197.158154 118.8 
L 197.158154 63.36 
" style="fill:none;stroke:#008fff;"/>
    <path clip-path="url(#p4a38230cf9)" d="M 217.872 110.88 
L 217.872 63.36 
" style="fill:none;stroke:#008fff;"/>
    <path clip-path="url(#p4a38230cf9)" d="M 238.585846 110.88 
L 238.585846 71.28 
" style="fill:none;stroke:#008fff;"/>
   </g>
   <g id="LineCollection_5">
    <path clip-path="url(#p4a38230cf9)" d="M 12.804923 99.792 
L 12.804923 80.784 
" style="fill:none;stroke:#ff00bf;"/>
    <path clip-path="url(#p4a38230cf9)" d="M 33.518769 104.544 
L 33.518769 76.032 
" style="fill:none;stroke:#ff00bf;"/>
    <path clip-path="url(#p4a38230cf9)" d="M 54.232615 104.544 
L 54.232615 76.032 
" style="fill:none;stroke:#ff00bf;"/>
    <path clip-path="url(#p4a38230cf9)" d="M 74.946462 114.048 
L 74.946462 95.04 
" style="fill:none;stroke:#ff00bf;"/>
    <path clip-path="url(#p4a38230cf9)" d="M 95.660308 104.544 
L 95.660308 80.784 
" style="fill:none;stroke:#ff00bf;"/>
    <path clip-path="url(#p4a38230cf9)" d="M 116.374154 118.8 
L 116.374154 99.792 
" style="fill:none;stroke:#ff00bf;"/>
    <path clip-path="url(#p4a38230cf9)" d="M 137.088 99.792 
L 137.088 76.032 
" style="fill:none;stroke:#ff00bf;"/>
    <path clip-path="url(#p4a38230cf9)" d="M 157.801846 99.792 
L 157.801846 80.784 
" style="fill:none;stroke:#ff00bf;"/>
    <path clip-path="url(#p4a38230cf9)" d="M 178.515692 109.296 
L 178.515692 90.288 
" style="fill:none;stroke:#ff00bf;"/>
    <path clip-path="url(#p4a38230cf9)" d="M 199.229538 118.8 
L 199.229538 76.032 
" style="fill:none;stroke:#ff00bf;"/>
    <path clip-path="url(#p4a38230cf9)" d="M 219.943385 104.544 
L 219.943385 71.28 
" style="fill:none;stroke:#ff00bf;"/>
    <path clip-path="url(#p4a38230cf9)" d="M 240.657231 104.544 
L 240.657231 80.784 
" style="fill:none;stroke:#ff00bf;"/>
   </g>
  </g>
 </g>
 <defs>
  <clipPath id="p4a38230cf9">
   <rect height="142.56" width="242.352" x="2.448" y="0"/>
  </clipPath>
 </defs>
</svg>
