<?xml version="1.0" encoding="utf-8" standalone="no"?>
<!DOCTYPE svg PUBLIC "-//W3C//DTD SVG 1.1//EN"
  "http://www.w3.org/Graphics/SVG/1.1/DTD/svg11.dtd">
<!-- Created with matplotlib (https://matplotlib.org/) -->
<svg height="360pt" version="1.1" viewBox="0 0 360 360" width="360pt" xmlns="http://www.w3.org/2000/svg" xmlns:xlink="http://www.w3.org/1999/xlink">
 <defs>
  <style type="text/css">
*{stroke-linecap:butt;stroke-linejoin:round;}
  </style>
 </defs>
 <g id="figure_1">
  <g id="patch_1">
   <path d="M 0 360 
L 360 360 
L 360 0 
L 0 0 
z
" style="fill:#ffffff;"/>
  </g>
  <g id="axes_1">
   <g id="matplotlib.axis_1">
    <g id="xtick_1">
     <g id="line2d_1">
      <defs>
       <path d="M 0 0 
L 0 3.5 
" id="m214dd25e7f" style="stroke:#000000;stroke-width:0.8;"/>
      </defs>
      <g>
       <use style="stroke:#000000;stroke-width:0.8;" x="16.363636" xlink:href="#m214dd25e7f" y="360"/>
      </g>
     </g>
     <g id="text_1">
      <!-- 0 -->
      <defs>
       <path d="M 31.78125 66.40625 
Q 24.171875 66.40625 20.328125 58.90625 
Q 16.5 51.421875 16.5 36.375 
Q 16.5 21.390625 20.328125 13.890625 
Q 24.171875 6.390625 31.78125 6.390625 
Q 39.453125 6.390625 43.28125 13.890625 
Q 47.125 21.390625 47.125 36.375 
Q 47.125 51.421875 43.28125 58.90625 
Q 39.453125 66.40625 31.78125 66.40625 
z
M 31.78125 74.21875 
Q 44.046875 74.21875 50.515625 64.515625 
Q 56.984375 54.828125 56.984375 36.375 
Q 56.984375 17.96875 50.515625 8.265625 
Q 44.046875 -1.421875 31.78125 -1.421875 
Q 19.53125 -1.421875 13.0625 8.265625 
Q 6.59375 17.96875 6.59375 36.375 
Q 6.59375 54.828125 13.0625 64.515625 
Q 19.53125 74.21875 31.78125 74.21875 
z
" id="DejaVuSans-48"/>
      </defs>
      <g transform="translate(13.182386 374.598437)scale(0.1 -0.1)">
       <use xlink:href="#DejaVuSans-48"/>
      </g>
     </g>
    </g>
    <g id="xtick_2">
     <g id="line2d_2">
      <g>
       <use style="stroke:#000000;stroke-width:0.8;" x="71.83359" xlink:href="#m214dd25e7f" y="360"/>
      </g>
     </g>
     <g id="text_2">
      <!-- 10 -->
      <defs>
       <path d="M 12.40625 8.296875 
L 28.515625 8.296875 
L 28.515625 63.921875 
L 10.984375 60.40625 
L 10.984375 69.390625 
L 28.421875 72.90625 
L 38.28125 72.90625 
L 38.28125 8.296875 
L 54.390625 8.296875 
L 54.390625 0 
L 12.40625 0 
z
" id="DejaVuSans-49"/>
      </defs>
      <g transform="translate(65.47109 374.598437)scale(0.1 -0.1)">
       <use xlink:href="#DejaVuSans-49"/>
       <use x="63.623047" xlink:href="#DejaVuSans-48"/>
      </g>
     </g>
    </g>
    <g id="xtick_3">
     <g id="line2d_3">
      <g>
       <use style="stroke:#000000;stroke-width:0.8;" x="127.303544" xlink:href="#m214dd25e7f" y="360"/>
      </g>
     </g>
     <g id="text_3">
      <!-- 20 -->
      <defs>
       <path d="M 19.1875 8.296875 
L 53.609375 8.296875 
L 53.609375 0 
L 7.328125 0 
L 7.328125 8.296875 
Q 12.9375 14.109375 22.625 23.890625 
Q 32.328125 33.6875 34.8125 36.53125 
Q 39.546875 41.84375 41.421875 45.53125 
Q 43.3125 49.21875 43.3125 52.78125 
Q 43.3125 58.59375 39.234375 62.25 
Q 35.15625 65.921875 28.609375 65.921875 
Q 23.96875 65.921875 18.8125 64.3125 
Q 13.671875 62.703125 7.8125 59.421875 
L 7.8125 69.390625 
Q 13.765625 71.78125 18.9375 73 
Q 24.125 74.21875 28.421875 74.21875 
Q 39.75 74.21875 46.484375 68.546875 
Q 53.21875 62.890625 53.21875 53.421875 
Q 53.21875 48.921875 51.53125 44.890625 
Q 49.859375 40.875 45.40625 35.40625 
Q 44.1875 33.984375 37.640625 27.21875 
Q 31.109375 20.453125 19.1875 8.296875 
z
" id="DejaVuSans-50"/>
      </defs>
      <g transform="translate(120.941044 374.598437)scale(0.1 -0.1)">
       <use xlink:href="#DejaVuSans-50"/>
       <use x="63.623047" xlink:href="#DejaVuSans-48"/>
      </g>
     </g>
    </g>
    <g id="xtick_4">
     <g id="line2d_4">
      <g>
       <use style="stroke:#000000;stroke-width:0.8;" x="182.773498" xlink:href="#m214dd25e7f" y="360"/>
      </g>
     </g>
     <g id="text_4">
      <!-- 30 -->
      <defs>
       <path d="M 40.578125 39.3125 
Q 47.65625 37.796875 51.625 33 
Q 55.609375 28.21875 55.609375 21.1875 
Q 55.609375 10.40625 48.1875 4.484375 
Q 40.765625 -1.421875 27.09375 -1.421875 
Q 22.515625 -1.421875 17.65625 -0.515625 
Q 12.796875 0.390625 7.625 2.203125 
L 7.625 11.71875 
Q 11.71875 9.328125 16.59375 8.109375 
Q 21.484375 6.890625 26.8125 6.890625 
Q 36.078125 6.890625 40.9375 10.546875 
Q 45.796875 14.203125 45.796875 21.1875 
Q 45.796875 27.640625 41.28125 31.265625 
Q 36.765625 34.90625 28.71875 34.90625 
L 20.21875 34.90625 
L 20.21875 43.015625 
L 29.109375 43.015625 
Q 36.375 43.015625 40.234375 45.921875 
Q 44.09375 48.828125 44.09375 54.296875 
Q 44.09375 59.90625 40.109375 62.90625 
Q 36.140625 65.921875 28.71875 65.921875 
Q 24.65625 65.921875 20.015625 65.03125 
Q 15.375 64.15625 9.8125 62.3125 
L 9.8125 71.09375 
Q 15.4375 72.65625 20.34375 73.4375 
Q 25.25 74.21875 29.59375 74.21875 
Q 40.828125 74.21875 47.359375 69.109375 
Q 53.90625 64.015625 53.90625 55.328125 
Q 53.90625 49.265625 50.4375 45.09375 
Q 46.96875 40.921875 40.578125 39.3125 
z
" id="DejaVuSans-51"/>
      </defs>
      <g transform="translate(176.410998 374.598437)scale(0.1 -0.1)">
       <use xlink:href="#DejaVuSans-51"/>
       <use x="63.623047" xlink:href="#DejaVuSans-48"/>
      </g>
     </g>
    </g>
    <g id="xtick_5">
     <g id="line2d_5">
      <g>
       <use style="stroke:#000000;stroke-width:0.8;" x="238.243451" xlink:href="#m214dd25e7f" y="360"/>
      </g>
     </g>
     <g id="text_5">
      <!-- 40 -->
      <defs>
       <path d="M 37.796875 64.3125 
L 12.890625 25.390625 
L 37.796875 25.390625 
z
M 35.203125 72.90625 
L 47.609375 72.90625 
L 47.609375 25.390625 
L 58.015625 25.390625 
L 58.015625 17.1875 
L 47.609375 17.1875 
L 47.609375 0 
L 37.796875 0 
L 37.796875 17.1875 
L 4.890625 17.1875 
L 4.890625 26.703125 
z
" id="DejaVuSans-52"/>
      </defs>
      <g transform="translate(231.880951 374.598437)scale(0.1 -0.1)">
       <use xlink:href="#DejaVuSans-52"/>
       <use x="63.623047" xlink:href="#DejaVuSans-48"/>
      </g>
     </g>
    </g>
    <g id="xtick_6">
     <g id="line2d_6">
      <g>
       <use style="stroke:#000000;stroke-width:0.8;" x="293.713405" xlink:href="#m214dd25e7f" y="360"/>
      </g>
     </g>
     <g id="text_6">
      <!-- 50 -->
      <defs>
       <path d="M 10.796875 72.90625 
L 49.515625 72.90625 
L 49.515625 64.59375 
L 19.828125 64.59375 
L 19.828125 46.734375 
Q 21.96875 47.46875 24.109375 47.828125 
Q 26.265625 48.1875 28.421875 48.1875 
Q 40.625 48.1875 47.75 41.5 
Q 54.890625 34.8125 54.890625 23.390625 
Q 54.890625 11.625 47.5625 5.09375 
Q 40.234375 -1.421875 26.90625 -1.421875 
Q 22.3125 -1.421875 17.546875 -0.640625 
Q 12.796875 0.140625 7.71875 1.703125 
L 7.71875 11.625 
Q 12.109375 9.234375 16.796875 8.0625 
Q 21.484375 6.890625 26.703125 6.890625 
Q 35.15625 6.890625 40.078125 11.328125 
Q 45.015625 15.765625 45.015625 23.390625 
Q 45.015625 31 40.078125 35.4375 
Q 35.15625 39.890625 26.703125 39.890625 
Q 22.75 39.890625 18.8125 39.015625 
Q 14.890625 38.140625 10.796875 36.28125 
z
" id="DejaVuSans-53"/>
      </defs>
      <g transform="translate(287.350905 374.598437)scale(0.1 -0.1)">
       <use xlink:href="#DejaVuSans-53"/>
       <use x="63.623047" xlink:href="#DejaVuSans-48"/>
      </g>
     </g>
    </g>
    <g id="xtick_7">
     <g id="line2d_7">
      <g>
       <use style="stroke:#000000;stroke-width:0.8;" x="349.183359" xlink:href="#m214dd25e7f" y="360"/>
      </g>
     </g>
     <g id="text_7">
      <!-- 60 -->
      <defs>
       <path d="M 33.015625 40.375 
Q 26.375 40.375 22.484375 35.828125 
Q 18.609375 31.296875 18.609375 23.390625 
Q 18.609375 15.53125 22.484375 10.953125 
Q 26.375 6.390625 33.015625 6.390625 
Q 39.65625 6.390625 43.53125 10.953125 
Q 47.40625 15.53125 47.40625 23.390625 
Q 47.40625 31.296875 43.53125 35.828125 
Q 39.65625 40.375 33.015625 40.375 
z
M 52.59375 71.296875 
L 52.59375 62.3125 
Q 48.875 64.0625 45.09375 64.984375 
Q 41.3125 65.921875 37.59375 65.921875 
Q 27.828125 65.921875 22.671875 59.328125 
Q 17.53125 52.734375 16.796875 39.40625 
Q 19.671875 43.65625 24.015625 45.921875 
Q 28.375 48.1875 33.59375 48.1875 
Q 44.578125 48.1875 50.953125 41.515625 
Q 57.328125 34.859375 57.328125 23.390625 
Q 57.328125 12.15625 50.6875 5.359375 
Q 44.046875 -1.421875 33.015625 -1.421875 
Q 20.359375 -1.421875 13.671875 8.265625 
Q 6.984375 17.96875 6.984375 36.375 
Q 6.984375 53.65625 15.1875 63.9375 
Q 23.390625 74.21875 37.203125 74.21875 
Q 40.921875 74.21875 44.703125 73.484375 
Q 48.484375 72.75 52.59375 71.296875 
z
" id="DejaVuSans-54"/>
      </defs>
      <g transform="translate(342.820859 374.598437)scale(0.1 -0.1)">
       <use xlink:href="#DejaVuSans-54"/>
       <use x="63.623047" xlink:href="#DejaVuSans-48"/>
      </g>
     </g>
    </g>
   </g>
   <g id="matplotlib.axis_2">
    <g id="ytick_1">
     <g id="line2d_8">
      <defs>
       <path d="M 0 0 
L -3.5 0 
" id="ma6c19a4189" style="stroke:#000000;stroke-width:0.8;"/>
      </defs>
      <g>
       <use style="stroke:#000000;stroke-width:0.8;" x="0" xlink:href="#ma6c19a4189" y="348.671186"/>
      </g>
     </g>
     <g id="text_8">
      <!-- 0.00 -->
      <defs>
       <path d="M 10.6875 12.40625 
L 21 12.40625 
L 21 0 
L 10.6875 0 
z
" id="DejaVuSans-46"/>
      </defs>
      <g transform="translate(-29.265625 352.470404)scale(0.1 -0.1)">
       <use xlink:href="#DejaVuSans-48"/>
       <use x="63.623047" xlink:href="#DejaVuSans-46"/>
       <use x="95.410156" xlink:href="#DejaVuSans-48"/>
       <use x="159.033203" xlink:href="#DejaVuSans-48"/>
      </g>
     </g>
    </g>
    <g id="ytick_2">
     <g id="line2d_9">
      <g>
       <use style="stroke:#000000;stroke-width:0.8;" x="0" xlink:href="#ma6c19a4189" y="295.546784"/>
      </g>
     </g>
     <g id="text_9">
      <!-- 0.05 -->
      <g transform="translate(-29.265625 299.346003)scale(0.1 -0.1)">
       <use xlink:href="#DejaVuSans-48"/>
       <use x="63.623047" xlink:href="#DejaVuSans-46"/>
       <use x="95.410156" xlink:href="#DejaVuSans-48"/>
       <use x="159.033203" xlink:href="#DejaVuSans-53"/>
      </g>
     </g>
    </g>
    <g id="ytick_3">
     <g id="line2d_10">
      <g>
       <use style="stroke:#000000;stroke-width:0.8;" x="0" xlink:href="#ma6c19a4189" y="242.422383"/>
      </g>
     </g>
     <g id="text_10">
      <!-- 0.10 -->
      <g transform="translate(-29.265625 246.221602)scale(0.1 -0.1)">
       <use xlink:href="#DejaVuSans-48"/>
       <use x="63.623047" xlink:href="#DejaVuSans-46"/>
       <use x="95.410156" xlink:href="#DejaVuSans-49"/>
       <use x="159.033203" xlink:href="#DejaVuSans-48"/>
      </g>
     </g>
    </g>
    <g id="ytick_4">
     <g id="line2d_11">
      <g>
       <use style="stroke:#000000;stroke-width:0.8;" x="0" xlink:href="#ma6c19a4189" y="189.297982"/>
      </g>
     </g>
     <g id="text_11">
      <!-- 0.15 -->
      <g transform="translate(-29.265625 193.097201)scale(0.1 -0.1)">
       <use xlink:href="#DejaVuSans-48"/>
       <use x="63.623047" xlink:href="#DejaVuSans-46"/>
       <use x="95.410156" xlink:href="#DejaVuSans-49"/>
       <use x="159.033203" xlink:href="#DejaVuSans-53"/>
      </g>
     </g>
    </g>
    <g id="ytick_5">
     <g id="line2d_12">
      <g>
       <use style="stroke:#000000;stroke-width:0.8;" x="0" xlink:href="#ma6c19a4189" y="136.173581"/>
      </g>
     </g>
     <g id="text_12">
      <!-- 0.20 -->
      <g transform="translate(-29.265625 139.9728)scale(0.1 -0.1)">
       <use xlink:href="#DejaVuSans-48"/>
       <use x="63.623047" xlink:href="#DejaVuSans-46"/>
       <use x="95.410156" xlink:href="#DejaVuSans-50"/>
       <use x="159.033203" xlink:href="#DejaVuSans-48"/>
      </g>
     </g>
    </g>
    <g id="ytick_6">
     <g id="line2d_13">
      <g>
       <use style="stroke:#000000;stroke-width:0.8;" x="0" xlink:href="#ma6c19a4189" y="83.04918"/>
      </g>
     </g>
     <g id="text_13">
      <!-- 0.25 -->
      <g transform="translate(-29.265625 86.848398)scale(0.1 -0.1)">
       <use xlink:href="#DejaVuSans-48"/>
       <use x="63.623047" xlink:href="#DejaVuSans-46"/>
       <use x="95.410156" xlink:href="#DejaVuSans-50"/>
       <use x="159.033203" xlink:href="#DejaVuSans-53"/>
      </g>
     </g>
    </g>
    <g id="ytick_7">
     <g id="line2d_14">
      <g>
       <use style="stroke:#000000;stroke-width:0.8;" x="0" xlink:href="#ma6c19a4189" y="29.924778"/>
      </g>
     </g>
     <g id="text_14">
      <!-- 0.30 -->
      <g transform="translate(-29.265625 33.723997)scale(0.1 -0.1)">
       <use xlink:href="#DejaVuSans-48"/>
       <use x="63.623047" xlink:href="#DejaVuSans-46"/>
       <use x="95.410156" xlink:href="#DejaVuSans-51"/>
       <use x="159.033203" xlink:href="#DejaVuSans-48"/>
      </g>
     </g>
    </g>
   </g>
   <g id="line2d_15">
    <path clip-path="url(#p485d1d6ab3)" d="M 16.363636 16.363636 
L 21.910632 34.959502 
L 27.457627 123.930282 
L 33.004622 114.551588 
L 38.551618 137.021081 
L 44.098613 141.841337 
L 49.645609 151.330936 
L 55.192604 158.152079 
L 60.739599 160.141107 
L 66.286595 176.106341 
L 71.83359 173.855873 
L 77.380586 188.302203 
L 82.927581 181.939136 
L 88.474576 174.759043 
L 94.021572 186.536838 
L 99.568567 187.23539 
L 105.115562 192.393286 
L 110.662558 195.148108 
L 116.209553 200.640113 
L 121.756549 198.373275 
L 127.303544 190.328089 
L 132.850539 189.755593 
L 138.397535 206.886875 
L 143.94453 199.02061 
L 149.491525 201.499949 
L 155.038521 201.908439 
L 160.585516 198.121209 
L 166.132512 203.404623 
L 171.679507 204.387588 
L 177.226502 208.261563 
L 182.773498 198.967635 
L 188.320493 198.238399 
L 193.867488 189.865722 
L 199.414484 204.913917 
L 204.961479 206.594342 
L 210.508475 202.597999 
L 216.05547 212.589878 
L 221.602465 210.568298 
L 227.149461 205.825493 
L 232.696456 199.137136 
L 238.243451 207.428863 
L 243.790447 201.150989 
L 249.337442 202.229549 
L 254.884438 207.213702 
L 260.431433 191.030964 
L 265.978428 209.404481 
L 271.525424 200.520025 
L 277.072419 201.752823 
L 282.619414 207.510811 
L 288.16641 213.253251 
L 293.713405 187.145574 
L 299.260401 206.233191 
L 304.807396 205.827662 
L 310.354391 214.208905 
L 315.901387 213.61019 
L 321.448382 208.011222 
L 326.995378 204.779548 
L 332.542373 210.568852 
L 338.089368 207.081565 
L 343.636364 212.930715 
" style="fill:none;stroke:#ff0000;stroke-linecap:square;stroke-width:1.5;"/>
   </g>
   <g id="line2d_16">
    <path clip-path="url(#p485d1d6ab3)" d="M 16.363636 38.12856 
L 21.910632 75.120361 
L 27.457627 107.93579 
L 33.004622 129.61799 
L 38.551618 137.900771 
L 44.098613 145.274921 
L 49.645609 150.853212 
L 55.192604 154.219192 
L 60.739599 157.674181 
L 66.286595 163.380128 
L 71.83359 174.859531 
L 77.380586 180.025422 
L 82.927581 183.333503 
L 88.474576 185.192912 
L 94.021572 187.561647 
L 99.568567 189.126939 
L 105.115562 190.554317 
L 110.662558 191.58872 
L 116.209553 192.760358 
L 121.756549 193.976343 
L 127.303544 194.557499 
L 132.850539 195.670399 
L 138.397535 196.479003 
L 143.94453 197.010018 
L 149.491525 197.981425 
L 155.038521 198.493917 
L 160.585516 198.990228 
L 166.132512 199.593756 
L 171.679507 200.108274 
L 177.226502 200.590811 
L 182.773498 201.064545 
L 188.320493 201.057785 
L 193.867488 201.776096 
L 199.414484 201.743418 
L 204.961479 201.763937 
L 210.508475 202.496055 
L 216.05547 202.748596 
L 221.602465 203.04618 
L 227.149461 203.298958 
L 232.696456 203.607657 
L 238.243451 203.854957 
L 243.790447 203.698423 
L 249.337442 204.346534 
L 254.884438 204.28273 
L 260.431433 204.223945 
L 265.978428 204.378642 
L 271.525424 204.996023 
L 277.072419 204.983927 
L 282.619414 204.874241 
L 288.16641 205.183018 
L 293.713405 205.194624 
L 299.260401 205.465483 
L 304.807396 205.548333 
L 310.354391 205.398686 
L 315.901387 205.655169 
L 321.448382 205.691156 
L 326.995378 205.297359 
L 332.542373 206.026295 
L 338.089368 206.050613 
L 343.636364 206.152668 
" style="fill:none;stroke:#ff0000;stroke-dasharray:5.55,2.4;stroke-dashoffset:0;stroke-width:1.5;"/>
   </g>
   <g id="line2d_17">
    <path clip-path="url(#p485d1d6ab3)" d="M 16.363636 182.177159 
L 21.910632 226.397429 
L 27.457627 229.865757 
L 33.004622 235.407325 
L 38.551618 243.210403 
L 44.098613 248.64409 
L 49.645609 256.163722 
L 55.192604 265.10413 
L 60.739599 260.082447 
L 66.286595 257.233147 
L 71.83359 261.564019 
L 77.380586 262.336612 
L 82.927581 267.492378 
L 88.474576 273.084507 
L 94.021572 270.22976 
L 99.568567 276.488199 
L 105.115562 272.696172 
L 110.662558 268.190575 
L 116.209553 272.527795 
L 121.756549 277.152507 
L 127.303544 279.244057 
L 132.850539 281.420255 
L 138.397535 282.733141 
L 143.94453 274.492236 
L 149.491525 278.63217 
L 155.038521 277.612506 
L 160.585516 280.715717 
L 166.132512 279.433688 
L 171.679507 279.208355 
L 177.226502 281.834254 
L 182.773498 285.649364 
L 188.320493 285.067001 
L 193.867488 283.797175 
L 199.414484 283.891583 
L 204.961479 286.046641 
L 210.508475 281.790478 
L 216.05547 282.642018 
L 221.602465 283.389287 
L 227.149461 287.059081 
L 232.696456 286.752401 
L 238.243451 288.347858 
L 243.790447 287.211122 
L 249.337442 284.635412 
L 254.884438 292.503355 
L 260.431433 286.517264 
L 265.978428 283.841446 
L 271.525424 287.453103 
L 277.072419 292.209504 
L 282.619414 289.823397 
L 288.16641 290.504416 
L 293.713405 287.233802 
L 299.260401 288.360326 
L 304.807396 284.236212 
L 310.354391 290.04896 
L 315.901387 289.882345 
L 321.448382 292.774234 
L 326.995378 294.17311 
L 332.542373 292.463798 
L 338.089368 288.423762 
L 343.636364 292.221798 
" style="fill:none;stroke:#0000ff;stroke-linecap:square;stroke-width:1.5;"/>
   </g>
   <g id="line2d_18">
    <path clip-path="url(#p485d1d6ab3)" d="M 16.363636 153.64098 
L 21.910632 217.698131 
L 27.457627 232.329976 
L 33.004622 237.335224 
L 38.551618 240.865251 
L 44.098613 251.908592 
L 49.645609 254.751346 
L 55.192604 256.407896 
L 60.739599 257.725817 
L 66.286595 258.936774 
L 71.83359 261.308881 
L 77.380586 264.075189 
L 82.927581 266.497785 
L 88.474576 268.398366 
L 94.021572 269.91195 
L 99.568567 271.443773 
L 105.115562 272.492014 
L 110.662558 273.631164 
L 116.209553 274.891258 
L 121.756549 275.76585 
L 127.303544 276.351424 
L 132.850539 276.961553 
L 138.397535 277.537548 
L 143.94453 278.241959 
L 149.491525 278.728549 
L 155.038521 278.968393 
L 160.585516 279.569245 
L 166.132512 279.940433 
L 171.679507 280.620059 
L 177.226502 280.800119 
L 182.773498 281.416154 
L 188.320493 281.815975 
L 193.867488 282.282213 
L 199.414484 282.667191 
L 204.961479 283.171458 
L 210.508475 283.506612 
L 216.05547 283.699723 
L 221.602465 283.691617 
L 227.149461 284.150176 
L 232.696456 284.624995 
L 238.243451 284.84559 
L 243.790447 285.296447 
L 249.337442 285.620122 
L 254.884438 286.059362 
L 260.431433 286.234234 
L 265.978428 286.745288 
L 271.525424 287.127777 
L 277.072419 287.355798 
L 282.619414 287.737772 
L 288.16641 287.838762 
L 293.713405 288.115282 
L 299.260401 288.469458 
L 304.807396 288.362349 
L 310.354391 289.075151 
L 315.901387 289.263579 
L 321.448382 289.744018 
L 326.995378 290.022528 
L 332.542373 290.462868 
L 338.089368 290.643883 
L 343.636364 291.035562 
" style="fill:none;stroke:#0000ff;stroke-dasharray:5.55,2.4;stroke-dashoffset:0;stroke-width:1.5;"/>
   </g>
   <g id="line2d_19">
    <path clip-path="url(#p485d1d6ab3)" d="M 16.363636 192.722139 
L 21.910632 256.390528 
L 27.457627 283.740717 
L 33.004622 291.017363 
L 38.551618 293.528525 
L 44.098613 297.268804 
L 49.645609 301.258711 
L 55.192604 295.912736 
L 60.739599 300.140606 
L 66.286595 301.262175 
L 71.83359 304.557253 
L 77.380586 296.083879 
L 82.927581 305.345097 
L 88.474576 302.112532 
L 94.021572 300.764332 
L 99.568567 301.436647 
L 105.115562 305.14901 
L 110.662558 302.77108 
L 116.209553 306.750871 
L 121.756549 306.211797 
L 127.303544 309.347179 
L 132.850539 306.850804 
L 138.397535 305.672279 
L 143.94453 307.472282 
L 149.491525 308.886981 
L 155.038521 309.600804 
L 160.585516 310.701003 
L 166.132512 310.588297 
L 171.679507 309.002878 
L 177.226502 308.038294 
L 182.773498 312.585538 
L 188.320493 308.208175 
L 193.867488 306.387899 
L 199.414484 309.836852 
L 204.961479 308.617294 
L 210.508475 310.430089 
L 216.05547 310.838653 
L 221.602465 311.188599 
L 227.149461 308.575975 
L 232.696456 308.712454 
L 238.243451 310.516775 
L 243.790447 307.814596 
L 249.337442 308.499335 
L 254.884438 311.481579 
L 260.431433 311.307036 
L 265.978428 312.221427 
L 271.525424 307.064521 
L 277.072419 309.389059 
L 282.619414 311.431197 
L 288.16641 310.804899 
L 293.713405 309.345121 
L 299.260401 311.637524 
L 304.807396 310.258688 
L 310.354391 308.77534 
L 315.901387 311.138014 
L 321.448382 308.363284 
L 326.995378 306.942913 
L 332.542373 310.921389 
L 338.089368 309.610399 
L 343.636364 311.408905 
" style="fill:none;stroke:#000000;stroke-linecap:square;stroke-width:1.5;"/>
   </g>
   <g id="line2d_20">
    <path clip-path="url(#p485d1d6ab3)" d="M 16.363636 181.432993 
L 21.910632 249.409423 
L 27.457627 278.79328 
L 33.004622 284.779245 
L 38.551618 292.755137 
L 44.098613 297.143911 
L 49.645609 299.167086 
L 55.192604 299.801114 
L 60.739599 300.344791 
L 66.286595 300.859611 
L 71.83359 301.258319 
L 77.380586 301.426846 
L 82.927581 301.585862 
L 88.474576 301.682225 
L 94.021572 302.286256 
L 99.568567 302.372114 
L 105.115562 303.492416 
L 110.662558 304.518935 
L 116.209553 305.639162 
L 121.756549 306.770463 
L 127.303544 307.73674 
L 132.850539 308.34706 
L 138.397535 308.78679 
L 143.94453 309.014004 
L 149.491525 309.317343 
L 155.038521 309.479691 
L 160.585516 309.606801 
L 166.132512 309.618727 
L 171.679507 309.805263 
L 177.226502 309.722452 
L 182.773498 309.949535 
L 188.320493 310.059419 
L 193.867488 309.704463 
L 199.414484 309.875079 
L 204.961479 310.056553 
L 210.508475 310.191911 
L 216.05547 310.284166 
L 221.602465 310.078564 
L 227.149461 310.383767 
L 232.696456 310.301091 
L 238.243451 309.525071 
L 243.790447 310.162978 
L 249.337442 310.414142 
L 254.884438 310.503507 
L 260.431433 310.475587 
L 265.978428 310.546797 
L 271.525424 310.52986 
L 277.072419 310.420708 
L 282.619414 310.680413 
L 288.16641 310.702218 
L 293.713405 310.524675 
L 299.260401 310.753412 
L 304.807396 310.912685 
L 310.354391 310.892087 
L 315.901387 310.965874 
L 321.448382 311.008233 
L 326.995378 311.183053 
L 332.542373 311.239539 
L 338.089368 311.45434 
L 343.636364 311.525854 
" style="fill:none;stroke:#000000;stroke-dasharray:5.55,2.4;stroke-dashoffset:0;stroke-width:1.5;"/>
   </g>
   <g id="line2d_21">
    <path clip-path="url(#p485d1d6ab3)" d="M 16.363636 224.614703 
L 21.910632 288.60843 
L 27.457627 300.435071 
L 33.004622 311.207035 
L 38.551618 312.328311 
L 44.098613 315.841282 
L 49.645609 317.310118 
L 55.192604 322.514434 
L 60.739599 323.13964 
L 66.286595 323.525549 
L 71.83359 327.406452 
L 77.380586 327.413343 
L 82.927581 328.602468 
L 88.474576 328.480916 
L 94.021572 327.925192 
L 99.568567 329.533936 
L 105.115562 328.377075 
L 110.662558 328.684361 
L 116.209553 329.26162 
L 121.756549 329.238935 
L 127.303544 329.304193 
L 132.850539 328.354218 
L 138.397535 328.704094 
L 143.94453 330.083034 
L 149.491525 329.557471 
L 155.038521 328.688305 
L 160.585516 329.885655 
L 166.132512 328.091023 
L 171.679507 329.926245 
L 177.226502 328.936546 
L 182.773498 330.352148 
L 188.320493 327.68635 
L 193.867488 329.714864 
L 199.414484 329.19877 
L 204.961479 329.121075 
L 210.508475 329.912544 
L 216.05547 329.567095 
L 221.602465 329.76129 
L 227.149461 329.302165 
L 232.696456 330.376951 
L 238.243451 329.617804 
L 243.790447 330.024263 
L 249.337442 330.263307 
L 254.884438 329.653828 
L 260.431433 329.565791 
L 265.978428 329.184424 
L 271.525424 330.540598 
L 277.072419 329.527659 
L 282.619414 331.816072 
L 288.16641 329.416371 
L 293.713405 330.878857 
L 299.260401 330.75017 
L 304.807396 332.343215 
L 310.354391 331.620915 
L 315.901387 332.288205 
L 321.448382 332.467587 
L 326.995378 331.63332 
L 332.542373 332.215716 
L 338.089368 332.517546 
L 343.636364 332.409153 
" style="fill:none;stroke:#800080;stroke-linecap:square;stroke-width:1.5;"/>
   </g>
   <g id="line2d_22">
    <path clip-path="url(#p485d1d6ab3)" d="M 16.363636 221.994449 
L 21.910632 284.646435 
L 27.457627 299.288702 
L 33.004622 307.426997 
L 38.551618 312.97151 
L 44.098613 316.05648 
L 49.645609 320.461809 
L 55.192604 322.169476 
L 60.739599 323.187188 
L 66.286595 324.667984 
L 71.83359 327.158449 
L 77.380586 327.811536 
L 82.927581 328.017154 
L 88.474576 328.124703 
L 94.021572 328.471169 
L 99.568567 328.448934 
L 105.115562 328.750843 
L 110.662558 328.745157 
L 116.209553 328.951921 
L 121.756549 328.576117 
L 127.303544 328.306064 
L 132.850539 329.016517 
L 138.397535 329.171293 
L 143.94453 329.270114 
L 149.491525 329.265563 
L 155.038521 329.311336 
L 160.585516 329.283338 
L 166.132512 329.164321 
L 171.679507 329.439605 
L 177.226502 329.404932 
L 182.773498 329.495848 
L 188.320493 329.4495 
L 193.867488 329.43422 
L 199.414484 329.505933 
L 204.961479 329.500607 
L 210.508475 329.07608 
L 216.05547 329.54398 
L 221.602465 329.165675 
L 227.149461 329.53881 
L 232.696456 329.561833 
L 238.243451 329.517449 
L 243.790447 329.611016 
L 249.337442 329.66612 
L 254.884438 329.41627 
L 260.431433 329.793831 
L 265.978428 329.705402 
L 271.525424 329.863549 
L 277.072419 329.912429 
L 282.619414 330.183819 
L 288.16641 330.292549 
L 293.713405 330.552145 
L 299.260401 330.559581 
L 304.807396 331.243578 
L 310.354391 331.847911 
L 315.901387 331.683805 
L 321.448382 332.432413 
L 326.995378 332.536643 
L 332.542373 332.748551 
L 338.089368 332.820659 
L 343.636364 332.71925 
" style="fill:none;stroke:#800080;stroke-dasharray:5.55,2.4;stroke-dashoffset:0;stroke-width:1.5;"/>
   </g>
   <g id="line2d_23">
    <path clip-path="url(#p485d1d6ab3)" d="M 16.363636 261.867247 
L 21.910632 294.884653 
L 27.457627 314.615865 
L 33.004622 325.439401 
L 38.551618 330.731418 
L 44.098613 333.45977 
L 49.645609 335.265642 
L 55.192604 337.551295 
L 60.739599 337.780534 
L 66.286595 337.960663 
L 71.83359 339.65852 
L 77.380586 339.778866 
L 82.927581 341.327401 
L 88.474576 341.946066 
L 94.021572 341.740354 
L 99.568567 342.598002 
L 105.115562 342.544139 
L 110.662558 342.32262 
L 116.209553 342.093051 
L 121.756549 342.73391 
L 127.303544 342.662524 
L 132.850539 341.825472 
L 138.397535 343.088415 
L 143.94453 343.066583 
L 149.491525 342.881107 
L 155.038521 342.796233 
L 160.585516 342.567411 
L 166.132512 342.86894 
L 171.679507 343.203365 
L 177.226502 342.799622 
L 182.773498 342.948533 
L 188.320493 343.293126 
L 193.867488 343.08211 
L 199.414484 343.190384 
L 204.961479 342.953116 
L 210.508475 343.546129 
L 216.05547 343.06059 
L 221.602465 343.08302 
L 227.149461 343.384088 
L 232.696456 343.229148 
L 238.243451 343.509232 
L 243.790447 342.859312 
L 249.337442 343.095312 
L 254.884438 343.354392 
L 260.431433 343.080681 
L 265.978428 343.293699 
L 271.525424 342.940322 
L 277.072419 343.226965 
L 282.619414 343.322592 
L 288.16641 343.029522 
L 293.713405 343.338992 
L 299.260401 342.740838 
L 304.807396 343.497134 
L 310.354391 342.967378 
L 315.901387 342.904507 
L 321.448382 343.636364 
L 326.995378 343.214514 
L 332.542373 343.488154 
L 338.089368 343.225414 
L 343.636364 343.336409 
" style="fill:none;stroke:#008000;stroke-linecap:square;stroke-width:1.5;"/>
   </g>
   <g id="line2d_24">
    <path clip-path="url(#p485d1d6ab3)" d="M 16.363636 250.565767 
L 21.910632 297.715485 
L 27.457627 313.995326 
L 33.004622 322.655706 
L 38.551618 328.623943 
L 44.098613 332.608353 
L 49.645609 335.729296 
L 55.192604 336.710924 
L 60.739599 337.417757 
L 66.286595 338.177271 
L 71.83359 339.251701 
L 77.380586 339.970627 
L 82.927581 341.722026 
L 88.474576 341.984447 
L 94.021572 341.860824 
L 99.568567 342.157899 
L 105.115562 342.398438 
L 110.662558 342.456777 
L 116.209553 341.802505 
L 121.756549 342.518493 
L 127.303544 342.713951 
L 132.850539 342.62677 
L 138.397535 342.755394 
L 143.94453 342.839177 
L 149.491525 342.930945 
L 155.038521 342.966826 
L 160.585516 342.997624 
L 166.132512 342.875645 
L 171.679507 343.146319 
L 177.226502 343.032613 
L 182.773498 343.078964 
L 188.320493 343.126415 
L 193.867488 343.148207 
L 199.414484 343.000339 
L 204.961479 343.158516 
L 210.508475 343.222596 
L 216.05547 343.16094 
L 221.602465 343.200878 
L 227.149461 343.207394 
L 232.696456 343.182581 
L 238.243451 343.076785 
L 243.790447 342.861608 
L 249.337442 343.255233 
L 254.884438 343.271806 
L 260.431433 343.231864 
L 265.978428 342.835158 
L 271.525424 343.271941 
L 277.072419 343.296633 
L 282.619414 343.280303 
L 288.16641 343.313968 
L 293.713405 343.334967 
L 299.260401 343.301968 
L 304.807396 343.238674 
L 310.354391 343.04682 
L 315.901387 343.295161 
L 321.448382 343.165951 
L 326.995378 343.342183 
L 332.542373 343.211069 
L 338.089368 343.287622 
L 343.636364 343.239296 
" style="fill:none;stroke:#008000;stroke-dasharray:5.55,2.4;stroke-dashoffset:0;stroke-width:1.5;"/>
   </g>
  </g>
 </g>
 <defs>
  <clipPath id="p485d1d6ab3">
   <rect height="360" width="360" x="0" y="0"/>
  </clipPath>
 </defs>
</svg>
