<?xml version="1.0" encoding="utf-8" standalone="no"?>
<!DOCTYPE svg PUBLIC "-//W3C//DTD SVG 1.1//EN"
  "http://www.w3.org/Graphics/SVG/1.1/DTD/svg11.dtd">
<!-- Created with matplotlib (https://matplotlib.org/) -->
<svg height="266.4pt" version="1.1" viewBox="0 0 316.8 266.4" width="316.8pt" xmlns="http://www.w3.org/2000/svg" xmlns:xlink="http://www.w3.org/1999/xlink">
 <defs>
  <style type="text/css">
*{stroke-linecap:butt;stroke-linejoin:round;white-space:pre;}
  </style>
 </defs>
 <g id="figure_1">
  <g id="patch_1">
   <path d="M 0 266.4 
L 316.8 266.4 
L 316.8 0 
L 0 0 
z
" style="fill:#ffffff;"/>
  </g>
  <g id="axes_1">
   <g id="matplotlib.axis_1">
    <g id="xtick_1">
     <g id="line2d_1">
      <defs>
       <path d="M 0 0 
L 0 3.5 
" id="m393e09d9e0" style="stroke:#000000;stroke-width:0.8;"/>
      </defs>
      <g>
       <use style="stroke:#000000;stroke-width:0.8;" x="11.225826" xlink:href="#m393e09d9e0" y="266.4"/>
      </g>
     </g>
     <g id="text_1">
      <!-- 0.0 -->
      <defs>
       <path d="M 31.78125 66.40625 
Q 24.171875 66.40625 20.328125 58.90625 
Q 16.5 51.421875 16.5 36.375 
Q 16.5 21.390625 20.328125 13.890625 
Q 24.171875 6.390625 31.78125 6.390625 
Q 39.453125 6.390625 43.28125 13.890625 
Q 47.125 21.390625 47.125 36.375 
Q 47.125 51.421875 43.28125 58.90625 
Q 39.453125 66.40625 31.78125 66.40625 
z
M 31.78125 74.21875 
Q 44.046875 74.21875 50.515625 64.515625 
Q 56.984375 54.828125 56.984375 36.375 
Q 56.984375 17.96875 50.515625 8.265625 
Q 44.046875 -1.421875 31.78125 -1.421875 
Q 19.53125 -1.421875 13.0625 8.265625 
Q 6.59375 17.96875 6.59375 36.375 
Q 6.59375 54.828125 13.0625 64.515625 
Q 19.53125 74.21875 31.78125 74.21875 
z
" id="DejaVuSans-48"/>
       <path d="M 10.6875 12.40625 
L 21 12.40625 
L 21 0 
L 10.6875 0 
z
" id="DejaVuSans-46"/>
      </defs>
      <g transform="translate(3.274263 280.998438)scale(0.1 -0.1)">
       <use xlink:href="#DejaVuSans-48"/>
       <use x="63.623047" xlink:href="#DejaVuSans-46"/>
       <use x="95.410156" xlink:href="#DejaVuSans-48"/>
      </g>
     </g>
    </g>
    <g id="xtick_2">
     <g id="line2d_2">
      <g>
       <use style="stroke:#000000;stroke-width:0.8;" x="63.456276" xlink:href="#m393e09d9e0" y="266.4"/>
      </g>
     </g>
     <g id="text_2">
      <!-- 0.2 -->
      <defs>
       <path d="M 19.1875 8.296875 
L 53.609375 8.296875 
L 53.609375 0 
L 7.328125 0 
L 7.328125 8.296875 
Q 12.9375 14.109375 22.625 23.890625 
Q 32.328125 33.6875 34.8125 36.53125 
Q 39.546875 41.84375 41.421875 45.53125 
Q 43.3125 49.21875 43.3125 52.78125 
Q 43.3125 58.59375 39.234375 62.25 
Q 35.15625 65.921875 28.609375 65.921875 
Q 23.96875 65.921875 18.8125 64.3125 
Q 13.671875 62.703125 7.8125 59.421875 
L 7.8125 69.390625 
Q 13.765625 71.78125 18.9375 73 
Q 24.125 74.21875 28.421875 74.21875 
Q 39.75 74.21875 46.484375 68.546875 
Q 53.21875 62.890625 53.21875 53.421875 
Q 53.21875 48.921875 51.53125 44.890625 
Q 49.859375 40.875 45.40625 35.40625 
Q 44.1875 33.984375 37.640625 27.21875 
Q 31.109375 20.453125 19.1875 8.296875 
z
" id="DejaVuSans-50"/>
      </defs>
      <g transform="translate(55.504713 280.998438)scale(0.1 -0.1)">
       <use xlink:href="#DejaVuSans-48"/>
       <use x="63.623047" xlink:href="#DejaVuSans-46"/>
       <use x="95.410156" xlink:href="#DejaVuSans-50"/>
      </g>
     </g>
    </g>
    <g id="xtick_3">
     <g id="line2d_3">
      <g>
       <use style="stroke:#000000;stroke-width:0.8;" x="115.686726" xlink:href="#m393e09d9e0" y="266.4"/>
      </g>
     </g>
     <g id="text_3">
      <!-- 0.4 -->
      <defs>
       <path d="M 37.796875 64.3125 
L 12.890625 25.390625 
L 37.796875 25.390625 
z
M 35.203125 72.90625 
L 47.609375 72.90625 
L 47.609375 25.390625 
L 58.015625 25.390625 
L 58.015625 17.1875 
L 47.609375 17.1875 
L 47.609375 0 
L 37.796875 0 
L 37.796875 17.1875 
L 4.890625 17.1875 
L 4.890625 26.703125 
z
" id="DejaVuSans-52"/>
      </defs>
      <g transform="translate(107.735163 280.998438)scale(0.1 -0.1)">
       <use xlink:href="#DejaVuSans-48"/>
       <use x="63.623047" xlink:href="#DejaVuSans-46"/>
       <use x="95.410156" xlink:href="#DejaVuSans-52"/>
      </g>
     </g>
    </g>
    <g id="xtick_4">
     <g id="line2d_4">
      <g>
       <use style="stroke:#000000;stroke-width:0.8;" x="167.917176" xlink:href="#m393e09d9e0" y="266.4"/>
      </g>
     </g>
     <g id="text_4">
      <!-- 0.6 -->
      <defs>
       <path d="M 33.015625 40.375 
Q 26.375 40.375 22.484375 35.828125 
Q 18.609375 31.296875 18.609375 23.390625 
Q 18.609375 15.53125 22.484375 10.953125 
Q 26.375 6.390625 33.015625 6.390625 
Q 39.65625 6.390625 43.53125 10.953125 
Q 47.40625 15.53125 47.40625 23.390625 
Q 47.40625 31.296875 43.53125 35.828125 
Q 39.65625 40.375 33.015625 40.375 
z
M 52.59375 71.296875 
L 52.59375 62.3125 
Q 48.875 64.0625 45.09375 64.984375 
Q 41.3125 65.921875 37.59375 65.921875 
Q 27.828125 65.921875 22.671875 59.328125 
Q 17.53125 52.734375 16.796875 39.40625 
Q 19.671875 43.65625 24.015625 45.921875 
Q 28.375 48.1875 33.59375 48.1875 
Q 44.578125 48.1875 50.953125 41.515625 
Q 57.328125 34.859375 57.328125 23.390625 
Q 57.328125 12.15625 50.6875 5.359375 
Q 44.046875 -1.421875 33.015625 -1.421875 
Q 20.359375 -1.421875 13.671875 8.265625 
Q 6.984375 17.96875 6.984375 36.375 
Q 6.984375 53.65625 15.1875 63.9375 
Q 23.390625 74.21875 37.203125 74.21875 
Q 40.921875 74.21875 44.703125 73.484375 
Q 48.484375 72.75 52.59375 71.296875 
z
" id="DejaVuSans-54"/>
      </defs>
      <g transform="translate(159.965613 280.998438)scale(0.1 -0.1)">
       <use xlink:href="#DejaVuSans-48"/>
       <use x="63.623047" xlink:href="#DejaVuSans-46"/>
       <use x="95.410156" xlink:href="#DejaVuSans-54"/>
      </g>
     </g>
    </g>
    <g id="xtick_5">
     <g id="line2d_5">
      <g>
       <use style="stroke:#000000;stroke-width:0.8;" x="220.147626" xlink:href="#m393e09d9e0" y="266.4"/>
      </g>
     </g>
     <g id="text_5">
      <!-- 0.8 -->
      <defs>
       <path d="M 31.78125 34.625 
Q 24.75 34.625 20.71875 30.859375 
Q 16.703125 27.09375 16.703125 20.515625 
Q 16.703125 13.921875 20.71875 10.15625 
Q 24.75 6.390625 31.78125 6.390625 
Q 38.8125 6.390625 42.859375 10.171875 
Q 46.921875 13.96875 46.921875 20.515625 
Q 46.921875 27.09375 42.890625 30.859375 
Q 38.875 34.625 31.78125 34.625 
z
M 21.921875 38.8125 
Q 15.578125 40.375 12.03125 44.71875 
Q 8.5 49.078125 8.5 55.328125 
Q 8.5 64.0625 14.71875 69.140625 
Q 20.953125 74.21875 31.78125 74.21875 
Q 42.671875 74.21875 48.875 69.140625 
Q 55.078125 64.0625 55.078125 55.328125 
Q 55.078125 49.078125 51.53125 44.71875 
Q 48 40.375 41.703125 38.8125 
Q 48.828125 37.15625 52.796875 32.3125 
Q 56.78125 27.484375 56.78125 20.515625 
Q 56.78125 9.90625 50.3125 4.234375 
Q 43.84375 -1.421875 31.78125 -1.421875 
Q 19.734375 -1.421875 13.25 4.234375 
Q 6.78125 9.90625 6.78125 20.515625 
Q 6.78125 27.484375 10.78125 32.3125 
Q 14.796875 37.15625 21.921875 38.8125 
z
M 18.3125 54.390625 
Q 18.3125 48.734375 21.84375 45.5625 
Q 25.390625 42.390625 31.78125 42.390625 
Q 38.140625 42.390625 41.71875 45.5625 
Q 45.3125 48.734375 45.3125 54.390625 
Q 45.3125 60.0625 41.71875 63.234375 
Q 38.140625 66.40625 31.78125 66.40625 
Q 25.390625 66.40625 21.84375 63.234375 
Q 18.3125 60.0625 18.3125 54.390625 
z
" id="DejaVuSans-56"/>
      </defs>
      <g transform="translate(212.196063 280.998438)scale(0.1 -0.1)">
       <use xlink:href="#DejaVuSans-48"/>
       <use x="63.623047" xlink:href="#DejaVuSans-46"/>
       <use x="95.410156" xlink:href="#DejaVuSans-56"/>
      </g>
     </g>
    </g>
    <g id="xtick_6">
     <g id="line2d_6">
      <g>
       <use style="stroke:#000000;stroke-width:0.8;" x="272.378076" xlink:href="#m393e09d9e0" y="266.4"/>
      </g>
     </g>
     <g id="text_6">
      <!-- 1.0 -->
      <defs>
       <path d="M 12.40625 8.296875 
L 28.515625 8.296875 
L 28.515625 63.921875 
L 10.984375 60.40625 
L 10.984375 69.390625 
L 28.421875 72.90625 
L 38.28125 72.90625 
L 38.28125 8.296875 
L 54.390625 8.296875 
L 54.390625 0 
L 12.40625 0 
z
" id="DejaVuSans-49"/>
      </defs>
      <g transform="translate(264.426513 280.998438)scale(0.1 -0.1)">
       <use xlink:href="#DejaVuSans-49"/>
       <use x="63.623047" xlink:href="#DejaVuSans-46"/>
       <use x="95.410156" xlink:href="#DejaVuSans-48"/>
      </g>
     </g>
    </g>
   </g>
   <g id="matplotlib.axis_2">
    <g id="ytick_1">
     <g id="line2d_7">
      <defs>
       <path d="M 0 0 
L -3.5 0 
" id="ma5c7b74f5d" style="stroke:#000000;stroke-width:0.8;"/>
      </defs>
      <g>
       <use style="stroke:#000000;stroke-width:0.8;" x="0" xlink:href="#ma5c7b74f5d" y="266.4"/>
      </g>
     </g>
     <g id="text_7">
      <!-- 0.0 -->
      <g transform="translate(-22.903125 270.199219)scale(0.1 -0.1)">
       <use xlink:href="#DejaVuSans-48"/>
       <use x="63.623047" xlink:href="#DejaVuSans-46"/>
       <use x="95.410156" xlink:href="#DejaVuSans-48"/>
      </g>
     </g>
    </g>
    <g id="ytick_2">
     <g id="line2d_8">
      <g>
       <use style="stroke:#000000;stroke-width:0.8;" x="0" xlink:href="#ma5c7b74f5d" y="229.4"/>
      </g>
     </g>
     <g id="text_8">
      <!-- 0.5 -->
      <defs>
       <path d="M 10.796875 72.90625 
L 49.515625 72.90625 
L 49.515625 64.59375 
L 19.828125 64.59375 
L 19.828125 46.734375 
Q 21.96875 47.46875 24.109375 47.828125 
Q 26.265625 48.1875 28.421875 48.1875 
Q 40.625 48.1875 47.75 41.5 
Q 54.890625 34.8125 54.890625 23.390625 
Q 54.890625 11.625 47.5625 5.09375 
Q 40.234375 -1.421875 26.90625 -1.421875 
Q 22.3125 -1.421875 17.546875 -0.640625 
Q 12.796875 0.140625 7.71875 1.703125 
L 7.71875 11.625 
Q 12.109375 9.234375 16.796875 8.0625 
Q 21.484375 6.890625 26.703125 6.890625 
Q 35.15625 6.890625 40.078125 11.328125 
Q 45.015625 15.765625 45.015625 23.390625 
Q 45.015625 31 40.078125 35.4375 
Q 35.15625 39.890625 26.703125 39.890625 
Q 22.75 39.890625 18.8125 39.015625 
Q 14.890625 38.140625 10.796875 36.28125 
z
" id="DejaVuSans-53"/>
      </defs>
      <g transform="translate(-22.903125 233.199219)scale(0.1 -0.1)">
       <use xlink:href="#DejaVuSans-48"/>
       <use x="63.623047" xlink:href="#DejaVuSans-46"/>
       <use x="95.410156" xlink:href="#DejaVuSans-53"/>
      </g>
     </g>
    </g>
    <g id="ytick_3">
     <g id="line2d_9">
      <g>
       <use style="stroke:#000000;stroke-width:0.8;" x="0" xlink:href="#ma5c7b74f5d" y="192.4"/>
      </g>
     </g>
     <g id="text_9">
      <!-- 1.0 -->
      <g transform="translate(-22.903125 196.199219)scale(0.1 -0.1)">
       <use xlink:href="#DejaVuSans-49"/>
       <use x="63.623047" xlink:href="#DejaVuSans-46"/>
       <use x="95.410156" xlink:href="#DejaVuSans-48"/>
      </g>
     </g>
    </g>
    <g id="ytick_4">
     <g id="line2d_10">
      <g>
       <use style="stroke:#000000;stroke-width:0.8;" x="0" xlink:href="#ma5c7b74f5d" y="155.4"/>
      </g>
     </g>
     <g id="text_10">
      <!-- 1.5 -->
      <g transform="translate(-22.903125 159.199219)scale(0.1 -0.1)">
       <use xlink:href="#DejaVuSans-49"/>
       <use x="63.623047" xlink:href="#DejaVuSans-46"/>
       <use x="95.410156" xlink:href="#DejaVuSans-53"/>
      </g>
     </g>
    </g>
    <g id="ytick_5">
     <g id="line2d_11">
      <g>
       <use style="stroke:#000000;stroke-width:0.8;" x="0" xlink:href="#ma5c7b74f5d" y="118.4"/>
      </g>
     </g>
     <g id="text_11">
      <!-- 2.0 -->
      <g transform="translate(-22.903125 122.199219)scale(0.1 -0.1)">
       <use xlink:href="#DejaVuSans-50"/>
       <use x="63.623047" xlink:href="#DejaVuSans-46"/>
       <use x="95.410156" xlink:href="#DejaVuSans-48"/>
      </g>
     </g>
    </g>
    <g id="ytick_6">
     <g id="line2d_12">
      <g>
       <use style="stroke:#000000;stroke-width:0.8;" x="0" xlink:href="#ma5c7b74f5d" y="81.4"/>
      </g>
     </g>
     <g id="text_12">
      <!-- 2.5 -->
      <g transform="translate(-22.903125 85.199219)scale(0.1 -0.1)">
       <use xlink:href="#DejaVuSans-50"/>
       <use x="63.623047" xlink:href="#DejaVuSans-46"/>
       <use x="95.410156" xlink:href="#DejaVuSans-53"/>
      </g>
     </g>
    </g>
    <g id="ytick_7">
     <g id="line2d_13">
      <g>
       <use style="stroke:#000000;stroke-width:0.8;" x="0" xlink:href="#ma5c7b74f5d" y="44.4"/>
      </g>
     </g>
     <g id="text_13">
      <!-- 3.0 -->
      <defs>
       <path d="M 40.578125 39.3125 
Q 47.65625 37.796875 51.625 33 
Q 55.609375 28.21875 55.609375 21.1875 
Q 55.609375 10.40625 48.1875 4.484375 
Q 40.765625 -1.421875 27.09375 -1.421875 
Q 22.515625 -1.421875 17.65625 -0.515625 
Q 12.796875 0.390625 7.625 2.203125 
L 7.625 11.71875 
Q 11.71875 9.328125 16.59375 8.109375 
Q 21.484375 6.890625 26.8125 6.890625 
Q 36.078125 6.890625 40.9375 10.546875 
Q 45.796875 14.203125 45.796875 21.1875 
Q 45.796875 27.640625 41.28125 31.265625 
Q 36.765625 34.90625 28.71875 34.90625 
L 20.21875 34.90625 
L 20.21875 43.015625 
L 29.109375 43.015625 
Q 36.375 43.015625 40.234375 45.921875 
Q 44.09375 48.828125 44.09375 54.296875 
Q 44.09375 59.90625 40.109375 62.90625 
Q 36.140625 65.921875 28.71875 65.921875 
Q 24.65625 65.921875 20.015625 65.03125 
Q 15.375 64.15625 9.8125 62.3125 
L 9.8125 71.09375 
Q 15.4375 72.65625 20.34375 73.4375 
Q 25.25 74.21875 29.59375 74.21875 
Q 40.828125 74.21875 47.359375 69.109375 
Q 53.90625 64.015625 53.90625 55.328125 
Q 53.90625 49.265625 50.4375 45.09375 
Q 46.96875 40.921875 40.578125 39.3125 
z
" id="DejaVuSans-51"/>
      </defs>
      <g transform="translate(-22.903125 48.199219)scale(0.1 -0.1)">
       <use xlink:href="#DejaVuSans-51"/>
       <use x="63.623047" xlink:href="#DejaVuSans-46"/>
       <use x="95.410156" xlink:href="#DejaVuSans-48"/>
      </g>
     </g>
    </g>
    <g id="ytick_8">
     <g id="line2d_14">
      <g>
       <use style="stroke:#000000;stroke-width:0.8;" x="0" xlink:href="#ma5c7b74f5d" y="7.4"/>
      </g>
     </g>
     <g id="text_14">
      <!-- 3.5 -->
      <g transform="translate(-22.903125 11.199219)scale(0.1 -0.1)">
       <use xlink:href="#DejaVuSans-51"/>
       <use x="63.623047" xlink:href="#DejaVuSans-46"/>
       <use x="95.410156" xlink:href="#DejaVuSans-53"/>
      </g>
     </g>
    </g>
   </g>
   <g id="line2d_15">
    <path clip-path="url(#pd50bee9ec1)" d="M 14.4 266.296971 
L 16.88974 266.153769 
L 19.379481 265.846993 
L 21.869221 265.231854 
L 24.358961 264.076885 
L 26.848701 262.045387 
L 29.338442 258.696038 
L 31.828182 253.516292 
L 34.317922 245.995808 
L 36.807663 235.733166 
L 39.297403 222.551668 
L 41.787143 206.587991 
L 44.276883 188.319597 
L 46.766624 168.515989 
L 49.256364 148.12757 
L 51.746104 128.149572 
L 54.235845 109.50382 
L 56.725585 92.965366 
L 59.215325 79.134511 
L 61.705065 68.433817 
L 64.194806 61.106059 
L 66.684546 57.201697 
L 69.174286 56.562383 
L 71.664027 58.817745 
L 74.153767 63.410958 
L 76.643507 69.65795 
L 79.133247 76.833084 
L 81.622988 84.266054 
L 84.112728 91.430971 
L 86.602468 98.007905 
L 89.092209 103.899609 
L 91.581949 109.194659 
L 94.071689 114.083712 
L 96.561429 118.754076 
L 99.05117 123.299864 
L 101.54091 127.682125 
L 104.03065 131.754102 
L 106.520391 135.338953 
L 109.010131 138.323755 
L 111.499871 140.725039 
L 113.989611 142.690973 
L 116.479352 144.429777 
L 118.969092 146.084251 
L 121.458832 147.598304 
L 123.948572 148.633749 
L 126.438313 148.588457 
L 128.928053 146.739212 
L 131.417793 142.490002 
L 133.907534 135.661293 
L 136.397274 126.724207 
L 138.887014 116.881072 
L 141.376754 107.928726 
L 143.866495 101.908277 
L 146.356235 100.624259 
L 148.845975 105.176074 
L 151.335716 115.655789 
L 153.825456 131.117045 
L 156.315196 149.825444 
L 158.804936 169.700532 
L 161.294677 188.7973 
L 163.784417 205.676947 
L 166.274157 219.576384 
L 168.763898 230.370881 
L 171.253638 238.394112 
L 173.743378 244.20891 
L 176.233118 248.408627 
L 178.722859 251.491203 
L 181.212599 253.809256 
L 183.702339 255.575585 
L 186.19208 256.897587 
L 188.68182 257.819769 
L 191.17156 258.362157 
L 193.6613 258.54864 
L 196.151041 258.422789 
L 198.640781 258.051157 
L 201.130521 257.516822 
L 203.620262 256.90815 
L 206.110002 256.308039 
L 208.599742 255.786913 
L 211.089482 255.399833 
L 213.579223 255.18625 
L 216.068963 255.170888 
L 218.558703 255.365315 
L 221.048444 255.770227 
L 223.538184 256.377901 
L 226.027924 257.1733 
L 228.517664 258.132584 
L 231.007405 259.219616 
L 233.497145 260.383324 
L 235.986885 261.559443 
L 238.476626 262.678314 
L 240.966366 263.676954 
L 243.456106 264.510901 
L 245.945846 265.161163 
L 248.435587 265.633953 
L 250.925327 265.954225 
L 253.415067 266.15627 
L 255.904808 266.274946 
L 258.394548 266.339848 
L 260.884288 266.372896 
" style="fill:none;stroke:#1f77b4;stroke-linecap:square;stroke-width:1.5;"/>
   </g>
   <g id="line2d_16">
    <path clip-path="url(#pd50bee9ec1)" d="M 16.055599 266.374875 
L 18.947967 266.332065 
L 21.840335 266.228817 
L 24.732702 265.997617 
L 27.62507 265.516675 
L 30.517438 264.586718 
L 33.409805 262.914094 
L 36.302173 260.113683 
L 39.194541 255.745859 
L 42.086908 249.394966 
L 44.979276 240.781759 
L 47.871644 229.883726 
L 50.764011 217.023637 
L 53.656379 202.886641 
L 56.548747 188.443008 
L 59.441115 174.783098 
L 62.333482 162.902721 
L 65.22585 153.498596 
L 68.118218 146.835485 
L 71.010585 142.726387 
L 73.902953 140.630791 
L 76.795321 139.836486 
L 79.687688 139.663165 
L 82.580056 139.622338 
L 85.472424 139.489433 
L 88.364791 139.28092 
L 91.257159 139.164676 
L 94.149527 139.350482 
L 97.041894 140.00334 
L 99.934262 141.20162 
L 102.82663 142.937274 
L 105.718997 145.138077 
L 108.611365 147.687149 
L 111.503733 150.422313 
L 114.396101 153.112747 
L 117.288468 155.42688 
L 120.180836 156.917165 
L 123.073204 157.049592 
L 125.965571 155.296211 
L 128.857939 151.286934 
L 131.750307 144.985374 
L 134.642674 136.822609 
L 137.535042 127.71242 
L 140.42741 118.901004 
L 143.319777 111.673386 
L 146.212145 107.016437 
L 149.104513 105.375805 
L 151.99688 106.609877 
L 154.889248 110.151756 
L 157.781616 115.292855 
L 160.673983 121.453796 
L 163.566351 128.330805 
L 166.458719 135.877919 
L 169.351087 144.164473 
L 172.243454 153.196808 
L 175.135822 162.795945 
L 178.02819 172.584457 
L 180.920557 182.077453 
L 183.812925 190.82354 
L 186.705293 198.524824 
L 189.59766 205.08573 
L 192.490028 210.582769 
L 195.382396 215.185645 
L 198.274763 219.074909 
L 201.167131 222.39049 
L 204.059499 225.221271 
L 206.951866 227.624201 
L 209.844234 229.651879 
L 212.736602 231.370822 
L 215.628969 232.863347 
L 218.521337 234.217171 
L 221.413705 235.512721 
L 224.306073 236.816318 
L 227.19844 238.180259 
L 230.090808 239.644216 
L 232.983176 241.231511 
L 235.875543 242.939294 
L 238.767911 244.728667 
L 241.660279 246.523368 
L 244.552646 248.221523 
L 247.445014 249.717604 
L 250.337382 250.926799 
L 253.229749 251.804932 
L 256.122117 252.361586 
L 259.014485 252.666953 
L 261.906852 252.850815 
L 264.79922 253.087623 
L 267.691588 253.561847 
L 270.583955 254.416896 
L 273.476323 255.704726 
L 276.368691 257.36056 
L 279.261059 259.219102 
L 282.153426 261.067981 
L 285.045794 262.714371 
L 287.938162 264.035446 
L 290.830529 264.995038 
L 293.722897 265.628085 
L 296.615265 266.008298 
L 299.507632 266.216579 
L 302.4 266.320793 
" style="fill:none;stroke:#ff7f0e;stroke-linecap:square;stroke-width:1.5;"/>
   </g>
   <g id="line2d_17">
    <path clip-path="url(#pd50bee9ec1)" d="M 15.896602 266.390028 
L 18.789033 266.37331 
L 21.681464 266.333348 
L 24.573895 266.244441 
L 27.466326 266.060085 
L 30.358757 265.703217 
L 33.251188 265.0572 
L 36.143619 263.961545 
L 39.03605 262.217232 
L 41.928481 259.605872 
L 44.820912 255.924319 
L 47.713343 251.03223 
L 50.605774 244.904934 
L 53.498205 237.678624 
L 56.390636 229.670874 
L 59.283067 221.359666 
L 62.175498 213.312205 
L 65.06793 206.071769 
L 67.960361 200.031562 
L 70.852792 195.337965 
L 73.745223 191.861578 
L 76.637654 189.251301 
L 79.530085 187.054362 
L 82.422516 184.859231 
L 85.314947 182.410815 
L 88.207378 179.660572 
L 91.099809 176.741234 
L 93.99224 173.884884 
L 96.884671 171.32236 
L 99.777102 169.203871 
L 102.669533 167.565331 
L 105.561964 166.340799 
L 108.454395 165.401604 
L 111.346826 164.596763 
L 114.239257 163.777047 
L 117.131688 162.798419 
L 120.024119 161.511115 
L 122.91655 159.746412 
L 125.808981 157.31635 
L 128.701412 154.042019 
L 131.593844 149.818001 
L 134.486275 144.699938 
L 137.378706 138.97661 
L 140.271137 133.176209 
L 143.163568 127.975702 
L 146.055999 124.029466 
L 148.94843 121.782735 
L 151.840861 121.353907 
L 154.733292 122.541836 
L 157.625723 124.953869 
L 160.518154 128.191558 
L 163.410585 132.005939 
L 166.303016 136.354226 
L 169.195447 141.341574 
L 172.087878 147.087 
L 174.980309 153.584332 
L 177.87274 160.624604 
L 180.765171 167.811839 
L 183.657602 174.659918 
L 186.550033 180.725806 
L 189.442464 185.725914 
L 192.334895 189.596568 
L 195.227327 192.48582 
L 198.119758 194.689483 
L 201.012189 196.559981 
L 203.90462 198.418814 
L 206.797051 200.49479 
L 209.689482 202.896745 
L 212.581913 205.617848 
L 215.474344 208.561949 
L 218.366775 211.580441 
L 221.259206 214.508907 
L 224.151637 217.195232 
L 227.044068 219.514962 
L 229.936499 221.374863 
L 232.82893 222.709884 
L 235.721361 223.479251 
L 238.613792 223.663739 
L 241.506223 223.261321 
L 244.398654 222.277717 
L 247.291085 220.714556 
L 250.183516 218.568003 
L 253.075947 215.856232 
L 255.968378 212.685888 
L 258.860809 209.342698 
L 261.753241 206.358836 
L 264.645672 204.491816 
L 267.538103 204.571162 
L 270.430534 207.23516 
L 273.322965 212.659534 
L 276.215396 220.416128 
L 279.107827 229.55293 
L 282.000258 238.874542 
L 284.892689 247.295846 
L 287.78512 254.111986 
L 290.677551 259.089063 
L 293.569982 262.382236 
L 296.462413 264.362724 
L 299.354844 265.447608 
L 302.247275 265.989785 
" style="fill:none;stroke:#2ca02c;stroke-linecap:square;stroke-width:1.5;"/>
   </g>
   <g id="line2d_18">
    <path clip-path="url(#pd50bee9ec1)" d="M 17.744671 266.397277 
L 20.598935 266.392088 
L 23.453199 266.378456 
L 26.307464 266.344977 
L 29.161728 266.268148 
L 32.015992 266.10358 
L 34.870256 265.774963 
L 37.72452 265.163978 
L 40.578784 264.107132 
L 43.433048 262.406855 
L 46.287312 259.861654 
L 49.141576 256.312912 
L 51.995841 251.69677 
L 54.850105 246.083642 
L 57.704369 239.689787 
L 60.558633 232.854463 
L 63.412897 225.987163 
L 66.267161 219.496718 
L 69.121425 213.716395 
L 71.975689 208.839758 
L 74.829954 204.88331 
L 77.684218 201.691416 
L 80.538482 198.991121 
L 83.392746 196.487218 
L 86.24701 193.9676 
L 89.101274 191.377638 
L 91.955538 188.830034 
L 94.809802 186.543132 
L 97.664066 184.73426 
L 100.518331 183.517342 
L 103.372595 182.851812 
L 106.226859 182.5618 
L 109.081123 182.406159 
L 111.935387 182.153892 
L 114.789651 181.621803 
L 117.643915 180.659295 
L 120.498179 179.101001 
L 123.352443 176.730062 
L 126.206708 173.292133 
L 129.060972 168.574539 
L 131.915236 162.527852 
L 134.7695 155.374453 
L 137.623764 147.639104 
L 140.478028 140.063681 
L 143.332292 133.426356 
L 146.186556 128.342193 
L 149.040821 125.136614 
L 151.895085 123.84082 
L 154.749349 124.287766 
L 157.603613 126.238072 
L 160.457877 129.466298 
L 163.312141 133.778809 
L 166.166405 138.981351 
L 169.020669 144.839439 
L 171.874933 151.069094 
L 174.729198 157.368315 
L 177.583462 163.469633 
L 180.437726 169.180627 
L 183.29199 174.390874 
L 186.146254 179.050516 
L 189.000518 183.145494 
L 191.854782 186.691377 
L 194.709046 189.745449 
L 197.563311 192.415582 
L 200.417575 194.84302 
L 203.271839 197.156024 
L 206.126103 199.416325 
L 208.980367 201.590821 
L 211.834631 203.568899 
L 214.688895 205.219666 
L 217.543159 206.46061 
L 220.397423 207.303581 
L 223.251688 207.857023 
L 226.105952 208.285752 
L 228.960216 208.748411 
L 231.81448 209.339379 
L 234.668744 210.055339 
L 237.523008 210.791912 
L 240.377272 211.360075 
L 243.231536 211.502795 
L 246.085801 210.895454 
L 248.940065 209.133339 
L 251.794329 205.74276 
L 254.648593 200.280433 
L 257.502857 192.572412 
L 260.357121 183.058944 
L 263.211385 173.077048 
L 266.065649 164.82682 
L 268.919913 160.851678 
L 271.774178 163.137525 
L 274.628442 172.240783 
L 277.482706 186.938633 
L 280.33697 204.636942 
L 283.191234 222.329302 
L 286.045498 237.597238 
L 288.899762 249.185476 
L 291.754026 257.001741 
L 294.608291 261.716796 
L 297.462555 264.271233 
L 300.316819 265.517702 
" style="fill:none;stroke:#d62728;stroke-linecap:square;stroke-width:1.5;"/>
   </g>
  </g>
 </g>
 <defs>
  <clipPath id="pd50bee9ec1">
   <rect height="266.4" width="316.8" x="0" y="0"/>
  </clipPath>
 </defs>
</svg>
