<?xml version="1.0" encoding="utf-8" standalone="no"?>
<!DOCTYPE svg PUBLIC "-//W3C//DTD SVG 1.1//EN"
  "http://www.w3.org/Graphics/SVG/1.1/DTD/svg11.dtd">
<!-- Created with matplotlib (https://matplotlib.org/) -->
<svg height="266.4pt" version="1.1" viewBox="0 0 316.8 266.4" width="316.8pt" xmlns="http://www.w3.org/2000/svg" xmlns:xlink="http://www.w3.org/1999/xlink">
 <defs>
  <style type="text/css">
*{stroke-linecap:butt;stroke-linejoin:round;white-space:pre;}
  </style>
 </defs>
 <g id="figure_1">
  <g id="patch_1">
   <path d="M 0 266.4 
L 316.8 266.4 
L 316.8 0 
L 0 0 
z
" style="fill:#ffffff;"/>
  </g>
  <g id="axes_1">
   <g id="matplotlib.axis_1">
    <g id="xtick_1">
     <g id="line2d_1">
      <defs>
       <path d="M 0 0 
L 0 3.5 
" id="mef9e3eb2ef" style="stroke:#000000;stroke-width:0.8;"/>
      </defs>
      <g>
       <use style="stroke:#000000;stroke-width:0.8;" x="6.340448" xlink:href="#mef9e3eb2ef" y="266.4"/>
      </g>
     </g>
     <g id="text_1">
      <!-- 0.0 -->
      <defs>
       <path d="M 31.78125 66.40625 
Q 24.171875 66.40625 20.328125 58.90625 
Q 16.5 51.421875 16.5 36.375 
Q 16.5 21.390625 20.328125 13.890625 
Q 24.171875 6.390625 31.78125 6.390625 
Q 39.453125 6.390625 43.28125 13.890625 
Q 47.125 21.390625 47.125 36.375 
Q 47.125 51.421875 43.28125 58.90625 
Q 39.453125 66.40625 31.78125 66.40625 
z
M 31.78125 74.21875 
Q 44.046875 74.21875 50.515625 64.515625 
Q 56.984375 54.828125 56.984375 36.375 
Q 56.984375 17.96875 50.515625 8.265625 
Q 44.046875 -1.421875 31.78125 -1.421875 
Q 19.53125 -1.421875 13.0625 8.265625 
Q 6.59375 17.96875 6.59375 36.375 
Q 6.59375 54.828125 13.0625 64.515625 
Q 19.53125 74.21875 31.78125 74.21875 
z
" id="DejaVuSans-48"/>
       <path d="M 10.6875 12.40625 
L 21 12.40625 
L 21 0 
L 10.6875 0 
z
" id="DejaVuSans-46"/>
      </defs>
      <g transform="translate(-1.611114 280.998438)scale(0.1 -0.1)">
       <use xlink:href="#DejaVuSans-48"/>
       <use x="63.623047" xlink:href="#DejaVuSans-46"/>
       <use x="95.410156" xlink:href="#DejaVuSans-48"/>
      </g>
     </g>
    </g>
    <g id="xtick_2">
     <g id="line2d_2">
      <g>
       <use style="stroke:#000000;stroke-width:0.8;" x="59.794312" xlink:href="#mef9e3eb2ef" y="266.4"/>
      </g>
     </g>
     <g id="text_2">
      <!-- 0.2 -->
      <defs>
       <path d="M 19.1875 8.296875 
L 53.609375 8.296875 
L 53.609375 0 
L 7.328125 0 
L 7.328125 8.296875 
Q 12.9375 14.109375 22.625 23.890625 
Q 32.328125 33.6875 34.8125 36.53125 
Q 39.546875 41.84375 41.421875 45.53125 
Q 43.3125 49.21875 43.3125 52.78125 
Q 43.3125 58.59375 39.234375 62.25 
Q 35.15625 65.921875 28.609375 65.921875 
Q 23.96875 65.921875 18.8125 64.3125 
Q 13.671875 62.703125 7.8125 59.421875 
L 7.8125 69.390625 
Q 13.765625 71.78125 18.9375 73 
Q 24.125 74.21875 28.421875 74.21875 
Q 39.75 74.21875 46.484375 68.546875 
Q 53.21875 62.890625 53.21875 53.421875 
Q 53.21875 48.921875 51.53125 44.890625 
Q 49.859375 40.875 45.40625 35.40625 
Q 44.1875 33.984375 37.640625 27.21875 
Q 31.109375 20.453125 19.1875 8.296875 
z
" id="DejaVuSans-50"/>
      </defs>
      <g transform="translate(51.842749 280.998438)scale(0.1 -0.1)">
       <use xlink:href="#DejaVuSans-48"/>
       <use x="63.623047" xlink:href="#DejaVuSans-46"/>
       <use x="95.410156" xlink:href="#DejaVuSans-50"/>
      </g>
     </g>
    </g>
    <g id="xtick_3">
     <g id="line2d_3">
      <g>
       <use style="stroke:#000000;stroke-width:0.8;" x="113.248176" xlink:href="#mef9e3eb2ef" y="266.4"/>
      </g>
     </g>
     <g id="text_3">
      <!-- 0.4 -->
      <defs>
       <path d="M 37.796875 64.3125 
L 12.890625 25.390625 
L 37.796875 25.390625 
z
M 35.203125 72.90625 
L 47.609375 72.90625 
L 47.609375 25.390625 
L 58.015625 25.390625 
L 58.015625 17.1875 
L 47.609375 17.1875 
L 47.609375 0 
L 37.796875 0 
L 37.796875 17.1875 
L 4.890625 17.1875 
L 4.890625 26.703125 
z
" id="DejaVuSans-52"/>
      </defs>
      <g transform="translate(105.296613 280.998438)scale(0.1 -0.1)">
       <use xlink:href="#DejaVuSans-48"/>
       <use x="63.623047" xlink:href="#DejaVuSans-46"/>
       <use x="95.410156" xlink:href="#DejaVuSans-52"/>
      </g>
     </g>
    </g>
    <g id="xtick_4">
     <g id="line2d_4">
      <g>
       <use style="stroke:#000000;stroke-width:0.8;" x="166.70204" xlink:href="#mef9e3eb2ef" y="266.4"/>
      </g>
     </g>
     <g id="text_4">
      <!-- 0.6 -->
      <defs>
       <path d="M 33.015625 40.375 
Q 26.375 40.375 22.484375 35.828125 
Q 18.609375 31.296875 18.609375 23.390625 
Q 18.609375 15.53125 22.484375 10.953125 
Q 26.375 6.390625 33.015625 6.390625 
Q 39.65625 6.390625 43.53125 10.953125 
Q 47.40625 15.53125 47.40625 23.390625 
Q 47.40625 31.296875 43.53125 35.828125 
Q 39.65625 40.375 33.015625 40.375 
z
M 52.59375 71.296875 
L 52.59375 62.3125 
Q 48.875 64.0625 45.09375 64.984375 
Q 41.3125 65.921875 37.59375 65.921875 
Q 27.828125 65.921875 22.671875 59.328125 
Q 17.53125 52.734375 16.796875 39.40625 
Q 19.671875 43.65625 24.015625 45.921875 
Q 28.375 48.1875 33.59375 48.1875 
Q 44.578125 48.1875 50.953125 41.515625 
Q 57.328125 34.859375 57.328125 23.390625 
Q 57.328125 12.15625 50.6875 5.359375 
Q 44.046875 -1.421875 33.015625 -1.421875 
Q 20.359375 -1.421875 13.671875 8.265625 
Q 6.984375 17.96875 6.984375 36.375 
Q 6.984375 53.65625 15.1875 63.9375 
Q 23.390625 74.21875 37.203125 74.21875 
Q 40.921875 74.21875 44.703125 73.484375 
Q 48.484375 72.75 52.59375 71.296875 
z
" id="DejaVuSans-54"/>
      </defs>
      <g transform="translate(158.750477 280.998438)scale(0.1 -0.1)">
       <use xlink:href="#DejaVuSans-48"/>
       <use x="63.623047" xlink:href="#DejaVuSans-46"/>
       <use x="95.410156" xlink:href="#DejaVuSans-54"/>
      </g>
     </g>
    </g>
    <g id="xtick_5">
     <g id="line2d_5">
      <g>
       <use style="stroke:#000000;stroke-width:0.8;" x="220.155904" xlink:href="#mef9e3eb2ef" y="266.4"/>
      </g>
     </g>
     <g id="text_5">
      <!-- 0.8 -->
      <defs>
       <path d="M 31.78125 34.625 
Q 24.75 34.625 20.71875 30.859375 
Q 16.703125 27.09375 16.703125 20.515625 
Q 16.703125 13.921875 20.71875 10.15625 
Q 24.75 6.390625 31.78125 6.390625 
Q 38.8125 6.390625 42.859375 10.171875 
Q 46.921875 13.96875 46.921875 20.515625 
Q 46.921875 27.09375 42.890625 30.859375 
Q 38.875 34.625 31.78125 34.625 
z
M 21.921875 38.8125 
Q 15.578125 40.375 12.03125 44.71875 
Q 8.5 49.078125 8.5 55.328125 
Q 8.5 64.0625 14.71875 69.140625 
Q 20.953125 74.21875 31.78125 74.21875 
Q 42.671875 74.21875 48.875 69.140625 
Q 55.078125 64.0625 55.078125 55.328125 
Q 55.078125 49.078125 51.53125 44.71875 
Q 48 40.375 41.703125 38.8125 
Q 48.828125 37.15625 52.796875 32.3125 
Q 56.78125 27.484375 56.78125 20.515625 
Q 56.78125 9.90625 50.3125 4.234375 
Q 43.84375 -1.421875 31.78125 -1.421875 
Q 19.734375 -1.421875 13.25 4.234375 
Q 6.78125 9.90625 6.78125 20.515625 
Q 6.78125 27.484375 10.78125 32.3125 
Q 14.796875 37.15625 21.921875 38.8125 
z
M 18.3125 54.390625 
Q 18.3125 48.734375 21.84375 45.5625 
Q 25.390625 42.390625 31.78125 42.390625 
Q 38.140625 42.390625 41.71875 45.5625 
Q 45.3125 48.734375 45.3125 54.390625 
Q 45.3125 60.0625 41.71875 63.234375 
Q 38.140625 66.40625 31.78125 66.40625 
Q 25.390625 66.40625 21.84375 63.234375 
Q 18.3125 60.0625 18.3125 54.390625 
z
" id="DejaVuSans-56"/>
      </defs>
      <g transform="translate(212.204341 280.998438)scale(0.1 -0.1)">
       <use xlink:href="#DejaVuSans-48"/>
       <use x="63.623047" xlink:href="#DejaVuSans-46"/>
       <use x="95.410156" xlink:href="#DejaVuSans-56"/>
      </g>
     </g>
    </g>
    <g id="xtick_6">
     <g id="line2d_6">
      <g>
       <use style="stroke:#000000;stroke-width:0.8;" x="273.609767" xlink:href="#mef9e3eb2ef" y="266.4"/>
      </g>
     </g>
     <g id="text_6">
      <!-- 1.0 -->
      <defs>
       <path d="M 12.40625 8.296875 
L 28.515625 8.296875 
L 28.515625 63.921875 
L 10.984375 60.40625 
L 10.984375 69.390625 
L 28.421875 72.90625 
L 38.28125 72.90625 
L 38.28125 8.296875 
L 54.390625 8.296875 
L 54.390625 0 
L 12.40625 0 
z
" id="DejaVuSans-49"/>
      </defs>
      <g transform="translate(265.658205 280.998438)scale(0.1 -0.1)">
       <use xlink:href="#DejaVuSans-49"/>
       <use x="63.623047" xlink:href="#DejaVuSans-46"/>
       <use x="95.410156" xlink:href="#DejaVuSans-48"/>
      </g>
     </g>
    </g>
   </g>
   <g id="matplotlib.axis_2">
    <g id="ytick_1">
     <g id="line2d_7">
      <defs>
       <path d="M 0 0 
L -3.5 0 
" id="m6843e83bb2" style="stroke:#000000;stroke-width:0.8;"/>
      </defs>
      <g>
       <use style="stroke:#000000;stroke-width:0.8;" x="0" xlink:href="#m6843e83bb2" y="266.4"/>
      </g>
     </g>
     <g id="text_7">
      <!-- 0.0 -->
      <g transform="translate(-22.903125 270.199219)scale(0.1 -0.1)">
       <use xlink:href="#DejaVuSans-48"/>
       <use x="63.623047" xlink:href="#DejaVuSans-46"/>
       <use x="95.410156" xlink:href="#DejaVuSans-48"/>
      </g>
     </g>
    </g>
    <g id="ytick_2">
     <g id="line2d_8">
      <g>
       <use style="stroke:#000000;stroke-width:0.8;" x="0" xlink:href="#m6843e83bb2" y="229.4"/>
      </g>
     </g>
     <g id="text_8">
      <!-- 0.5 -->
      <defs>
       <path d="M 10.796875 72.90625 
L 49.515625 72.90625 
L 49.515625 64.59375 
L 19.828125 64.59375 
L 19.828125 46.734375 
Q 21.96875 47.46875 24.109375 47.828125 
Q 26.265625 48.1875 28.421875 48.1875 
Q 40.625 48.1875 47.75 41.5 
Q 54.890625 34.8125 54.890625 23.390625 
Q 54.890625 11.625 47.5625 5.09375 
Q 40.234375 -1.421875 26.90625 -1.421875 
Q 22.3125 -1.421875 17.546875 -0.640625 
Q 12.796875 0.140625 7.71875 1.703125 
L 7.71875 11.625 
Q 12.109375 9.234375 16.796875 8.0625 
Q 21.484375 6.890625 26.703125 6.890625 
Q 35.15625 6.890625 40.078125 11.328125 
Q 45.015625 15.765625 45.015625 23.390625 
Q 45.015625 31 40.078125 35.4375 
Q 35.15625 39.890625 26.703125 39.890625 
Q 22.75 39.890625 18.8125 39.015625 
Q 14.890625 38.140625 10.796875 36.28125 
z
" id="DejaVuSans-53"/>
      </defs>
      <g transform="translate(-22.903125 233.199219)scale(0.1 -0.1)">
       <use xlink:href="#DejaVuSans-48"/>
       <use x="63.623047" xlink:href="#DejaVuSans-46"/>
       <use x="95.410156" xlink:href="#DejaVuSans-53"/>
      </g>
     </g>
    </g>
    <g id="ytick_3">
     <g id="line2d_9">
      <g>
       <use style="stroke:#000000;stroke-width:0.8;" x="0" xlink:href="#m6843e83bb2" y="192.4"/>
      </g>
     </g>
     <g id="text_9">
      <!-- 1.0 -->
      <g transform="translate(-22.903125 196.199219)scale(0.1 -0.1)">
       <use xlink:href="#DejaVuSans-49"/>
       <use x="63.623047" xlink:href="#DejaVuSans-46"/>
       <use x="95.410156" xlink:href="#DejaVuSans-48"/>
      </g>
     </g>
    </g>
    <g id="ytick_4">
     <g id="line2d_10">
      <g>
       <use style="stroke:#000000;stroke-width:0.8;" x="0" xlink:href="#m6843e83bb2" y="155.4"/>
      </g>
     </g>
     <g id="text_10">
      <!-- 1.5 -->
      <g transform="translate(-22.903125 159.199219)scale(0.1 -0.1)">
       <use xlink:href="#DejaVuSans-49"/>
       <use x="63.623047" xlink:href="#DejaVuSans-46"/>
       <use x="95.410156" xlink:href="#DejaVuSans-53"/>
      </g>
     </g>
    </g>
    <g id="ytick_5">
     <g id="line2d_11">
      <g>
       <use style="stroke:#000000;stroke-width:0.8;" x="0" xlink:href="#m6843e83bb2" y="118.4"/>
      </g>
     </g>
     <g id="text_11">
      <!-- 2.0 -->
      <g transform="translate(-22.903125 122.199219)scale(0.1 -0.1)">
       <use xlink:href="#DejaVuSans-50"/>
       <use x="63.623047" xlink:href="#DejaVuSans-46"/>
       <use x="95.410156" xlink:href="#DejaVuSans-48"/>
      </g>
     </g>
    </g>
    <g id="ytick_6">
     <g id="line2d_12">
      <g>
       <use style="stroke:#000000;stroke-width:0.8;" x="0" xlink:href="#m6843e83bb2" y="81.4"/>
      </g>
     </g>
     <g id="text_12">
      <!-- 2.5 -->
      <g transform="translate(-22.903125 85.199219)scale(0.1 -0.1)">
       <use xlink:href="#DejaVuSans-50"/>
       <use x="63.623047" xlink:href="#DejaVuSans-46"/>
       <use x="95.410156" xlink:href="#DejaVuSans-53"/>
      </g>
     </g>
    </g>
    <g id="ytick_7">
     <g id="line2d_13">
      <g>
       <use style="stroke:#000000;stroke-width:0.8;" x="0" xlink:href="#m6843e83bb2" y="44.4"/>
      </g>
     </g>
     <g id="text_13">
      <!-- 3.0 -->
      <defs>
       <path d="M 40.578125 39.3125 
Q 47.65625 37.796875 51.625 33 
Q 55.609375 28.21875 55.609375 21.1875 
Q 55.609375 10.40625 48.1875 4.484375 
Q 40.765625 -1.421875 27.09375 -1.421875 
Q 22.515625 -1.421875 17.65625 -0.515625 
Q 12.796875 0.390625 7.625 2.203125 
L 7.625 11.71875 
Q 11.71875 9.328125 16.59375 8.109375 
Q 21.484375 6.890625 26.8125 6.890625 
Q 36.078125 6.890625 40.9375 10.546875 
Q 45.796875 14.203125 45.796875 21.1875 
Q 45.796875 27.640625 41.28125 31.265625 
Q 36.765625 34.90625 28.71875 34.90625 
L 20.21875 34.90625 
L 20.21875 43.015625 
L 29.109375 43.015625 
Q 36.375 43.015625 40.234375 45.921875 
Q 44.09375 48.828125 44.09375 54.296875 
Q 44.09375 59.90625 40.109375 62.90625 
Q 36.140625 65.921875 28.71875 65.921875 
Q 24.65625 65.921875 20.015625 65.03125 
Q 15.375 64.15625 9.8125 62.3125 
L 9.8125 71.09375 
Q 15.4375 72.65625 20.34375 73.4375 
Q 25.25 74.21875 29.59375 74.21875 
Q 40.828125 74.21875 47.359375 69.109375 
Q 53.90625 64.015625 53.90625 55.328125 
Q 53.90625 49.265625 50.4375 45.09375 
Q 46.96875 40.921875 40.578125 39.3125 
z
" id="DejaVuSans-51"/>
      </defs>
      <g transform="translate(-22.903125 48.199219)scale(0.1 -0.1)">
       <use xlink:href="#DejaVuSans-51"/>
       <use x="63.623047" xlink:href="#DejaVuSans-46"/>
       <use x="95.410156" xlink:href="#DejaVuSans-48"/>
      </g>
     </g>
    </g>
    <g id="ytick_8">
     <g id="line2d_14">
      <g>
       <use style="stroke:#000000;stroke-width:0.8;" x="0" xlink:href="#m6843e83bb2" y="7.4"/>
      </g>
     </g>
     <g id="text_14">
      <!-- 3.5 -->
      <g transform="translate(-22.903125 11.199219)scale(0.1 -0.1)">
       <use xlink:href="#DejaVuSans-51"/>
       <use x="63.623047" xlink:href="#DejaVuSans-46"/>
       <use x="95.410156" xlink:href="#DejaVuSans-53"/>
      </g>
     </g>
    </g>
   </g>
   <g id="line2d_15">
    <path clip-path="url(#p8e00268da4)" d="M 15.1827 265.922585 
L 17.778805 265.344507 
L 20.37491 264.236863 
L 22.971015 262.28845 
L 25.56712 259.145806 
L 28.163225 254.502879 
L 30.75933 248.221358 
L 33.355435 240.423961 
L 35.95154 231.4803 
L 38.547646 221.83069 
L 41.143751 211.677778 
L 43.739856 200.684243 
L 46.335961 187.87524 
L 48.932066 171.893617 
L 51.528171 151.594431 
L 54.124276 126.77116 
L 56.720381 98.691812 
L 59.316486 70.1624 
L 61.912591 45.015839 
L 64.508696 27.159622 
L 67.104802 19.497539 
L 69.700907 23.093232 
L 72.297012 36.85047 
L 74.893117 57.790887 
L 77.489222 81.799847 
L 80.085327 104.576332 
L 82.681432 122.514134 
L 85.277537 133.337507 
L 87.873642 136.433777 
L 90.469747 132.88893 
L 93.065853 125.22814 
L 95.661958 116.854285 
L 98.258063 111.234998 
L 100.854168 111.011601 
L 103.450273 117.303371 
L 106.046378 129.457811 
L 108.642483 145.333009 
L 111.238588 161.978502 
L 113.834693 176.431699 
L 116.430798 186.340204 
L 119.026903 190.238884 
L 121.623009 187.480827 
L 124.219114 177.969274 
L 126.815219 161.91419 
L 129.411324 139.814004 
L 132.007429 112.732152 
L 134.603534 82.734475 
L 137.199639 53.174289 
L 139.795744 28.484566 
L 142.391849 13.33209 
L 144.987954 11.337956 
L 147.58406 23.872806 
L 150.180165 49.485721 
L 152.77627 84.261256 
L 155.372375 122.964112 
L 157.96848 160.480926 
L 160.564585 192.993886 
L 163.16069 218.526764 
L 165.756795 236.833592 
L 168.3529 248.860355 
L 170.949005 256.094813 
L 173.545111 260.045565 
L 176.141216 261.949514 
L 178.737321 262.685936 
L 181.333426 262.81717 
L 183.929531 262.675304 
L 186.525636 262.443264 
L 189.121741 262.21133 
L 191.717846 262.011951 
L 194.313951 261.843645 
L 196.910056 261.69228 
L 199.506161 261.550999 
L 202.102267 261.434241 
L 204.698372 261.380102 
L 207.294477 261.438924 
L 209.890582 261.651933 
L 212.486687 262.028445 
L 215.082792 262.530943 
L 217.678897 263.074036 
L 220.275002 263.53795 
L 222.871107 263.792916 
L 225.467212 263.729262 
L 228.063318 263.288179 
L 230.659423 262.487618 
L 233.255528 261.435465 
L 235.851633 260.320597 
L 238.447738 259.376124 
L 241.043843 258.819972 
L 243.639948 258.791403 
L 246.236053 259.308906 
L 248.832158 260.268369 
L 251.428263 261.482392 
L 254.024368 262.742517 
L 256.620474 263.877526 
L 259.216579 264.786885 
L 261.812684 265.443507 
L 264.408789 265.874151 
L 267.004894 266.131965 
L 269.600999 266.273335 
L 272.197104 266.344506 
" style="fill:none;stroke:#1f77b4;stroke-linecap:square;stroke-width:1.5;"/>
   </g>
   <g id="line2d_16">
    <path clip-path="url(#p8e00268da4)" d="M 15.277882 266.302053 
L 18.107128 266.164397 
L 20.936374 265.88216 
L 23.76562 265.358346 
L 26.594867 264.477423 
L 29.424113 263.130556 
L 32.253359 261.243938 
L 35.082605 258.785036 
L 37.911851 255.722751 
L 40.741097 251.945477 
L 43.570343 247.184737 
L 46.39959 241.014724 
L 49.228836 232.964628 
L 52.058082 222.700829 
L 54.887328 210.173711 
L 57.716574 195.645977 
L 60.54582 179.621402 
L 63.375067 162.783094 
L 66.204313 146.029332 
L 69.033559 130.564804 
L 71.862805 117.885987 
L 74.692051 109.521537 
L 77.521297 106.558537 
L 80.350543 109.169937 
L 83.17979 116.404437 
L 86.009036 126.370857 
L 88.838282 136.743149 
L 91.667528 145.366289 
L 94.496774 150.72736 
L 97.32602 152.15116 
L 100.155266 149.720052 
L 102.984513 144.034795 
L 105.813759 135.97269 
L 108.643005 126.540481 
L 111.472251 116.800343 
L 114.301497 107.760992 
L 117.130743 100.155291 
L 119.95999 94.160763 
L 122.789236 89.24801 
L 125.618482 84.34054 
L 128.447728 78.314403 
L 131.276974 70.654796 
L 134.10622 61.955166 
L 136.935466 53.972229 
L 139.764713 49.133107 
L 142.593959 49.657644 
L 145.423205 56.686642 
L 148.252451 69.84978 
L 151.081697 87.491956 
L 153.910943 107.405476 
L 156.740189 127.636076 
L 159.569436 146.945581 
L 162.398682 164.795498 
L 165.227928 181.031216 
L 168.057174 195.568789 
L 170.88642 208.277077 
L 173.715666 219.046499 
L 176.544913 227.907159 
L 179.374159 235.067876 
L 182.203405 240.844872 
L 185.032651 245.541569 
L 187.861897 249.366048 
L 190.691143 252.42929 
L 193.520389 254.801793 
L 196.349636 256.570495 
L 199.178882 257.850679 
L 202.008128 258.748166 
L 204.837374 259.301009 
L 207.66662 259.437675 
L 210.495866 258.975235 
L 213.325112 257.662024 
L 216.154359 255.254685 
L 218.983605 251.609595 
L 221.812851 246.761548 
L 224.642097 240.962739 
L 227.471343 234.669515 
L 230.300589 228.488331 
L 233.129835 223.105922 
L 235.959082 219.215647 
L 238.788328 217.425519 
L 241.617574 218.130804 
L 244.44682 221.374048 
L 247.276066 226.76527 
L 250.105312 233.536494 
L 252.934559 240.737746 
L 255.763805 247.494199 
L 258.593051 253.208034 
L 261.422297 257.629739 
L 264.251543 260.802799 
L 267.080789 262.942738 
L 269.910035 264.318162 
L 272.739282 265.172493 
L 275.568528 265.691342 
L 278.397774 266.001387 
L 281.22702 266.183429 
L 284.056266 266.287528 
L 286.885512 266.344743 
L 289.714758 266.374549 
L 292.544005 266.38909 
L 295.373251 266.395671 
" style="fill:none;stroke:#ff7f0e;stroke-linecap:square;stroke-width:1.5;"/>
   </g>
   <g id="line2d_17">
    <path clip-path="url(#p8e00268da4)" d="M 14.4 266.395632 
L 17.309091 266.387905 
L 20.218182 266.368228 
L 23.127273 266.320644 
L 26.036364 266.211608 
L 28.945455 265.975964 
L 31.854545 265.498645 
L 34.763636 264.598274 
L 37.672727 263.025895 
L 40.581818 260.495757 
L 43.490909 256.757489 
L 46.4 251.695992 
L 49.309091 245.415252 
L 52.218182 238.247763 
L 55.127273 230.654501 
L 58.036364 223.039873 
L 60.945455 215.56676 
L 63.854545 208.072709 
L 66.763636 200.142147 
L 69.672727 191.311466 
L 72.581818 181.324668 
L 75.490909 170.343676 
L 78.4 159.037169 
L 81.309091 148.503375 
L 84.218182 140.02491 
L 87.127273 134.71689 
L 90.036364 133.195112 
L 92.945455 135.407466 
L 95.854545 140.702043 
L 98.763636 148.080001 
L 101.672727 156.486587 
L 104.581818 164.998784 
L 107.490909 172.861116 
L 110.4 179.422994 
L 113.309091 184.06858 
L 116.218182 186.195822 
L 119.127273 185.246367 
L 122.036364 180.766315 
L 124.945455 172.497112 
L 127.854545 160.516798 
L 130.763636 145.428444 
L 133.672727 128.521337 
L 136.581818 111.765601 
L 139.490909 97.519562 
L 142.4 87.962025 
L 145.309091 84.445455 
L 148.218182 87.069579 
L 151.127273 94.698688 
L 154.036364 105.416351 
L 156.945455 117.178217 
L 159.854545 128.34698 
L 162.763636 137.915627 
L 165.672727 145.441752 
L 168.581818 150.867995 
L 171.490909 154.401841 
L 174.4 156.505287 
L 177.309091 157.91417 
L 180.218182 159.568177 
L 183.127273 162.404117 
L 186.036364 167.080446 
L 188.945455 173.767322 
L 191.854545 182.107423 
L 194.763636 191.357792 
L 197.672727 200.634263 
L 200.581818 209.150537 
L 203.490909 216.374672 
L 206.4 222.080105 
L 209.309091 226.310321 
L 212.218182 229.293255 
L 215.127273 231.340602 
L 218.036364 232.759415 
L 220.945455 233.792192 
L 223.854545 234.586561 
L 226.763636 235.180616 
L 229.672727 235.486897 
L 232.581818 235.275215 
L 235.490909 234.182948 
L 238.4 231.794563 
L 241.309091 227.807178 
L 244.218182 222.240615 
L 247.127273 215.594495 
L 250.036364 208.846566 
L 252.945455 203.247034 
L 255.854545 199.968819 
L 258.763636 199.760694 
L 261.672727 202.756975 
L 264.581818 208.511997 
L 267.490909 216.206353 
L 270.4 224.899093 
L 273.309091 233.718271 
L 276.218182 241.958361 
L 279.127273 249.115764 
L 282.036364 254.901617 
L 284.945455 259.241582 
L 287.854545 262.249515 
L 290.763636 264.168006 
L 293.672727 265.290451 
L 296.581818 265.891465 
L 299.490909 266.185541 
L 302.4 266.316909 
" style="fill:none;stroke:#2ca02c;stroke-linecap:square;stroke-width:1.5;"/>
   </g>
   <g id="line2d_18">
    <path clip-path="url(#p8e00268da4)" d="M 16.388378 266.397575 
L 19.257753 266.393168 
L 22.127128 266.381854 
L 24.996503 266.354181 
L 27.865878 266.289482 
L 30.735253 266.145463 
L 33.604628 265.843029 
L 36.474003 265.250804 
L 39.343378 264.181239 
L 42.212753 262.415674 
L 45.082128 259.769318 
L 47.951503 256.182992 
L 50.820878 251.795832 
L 53.690253 246.939433 
L 56.559628 242.02456 
L 59.429003 237.359668 
L 62.298378 232.998703 
L 65.167753 228.711438 
L 68.037128 224.097313 
L 70.906503 218.777749 
L 73.775878 212.568323 
L 76.645253 205.566951 
L 79.514628 198.152252 
L 82.384004 190.914252 
L 85.253379 184.53154 
L 88.122754 179.603486 
L 90.992129 176.471809 
L 93.861504 175.101739 
L 96.730879 175.091022 
L 99.600254 175.817204 
L 102.469629 176.657316 
L 105.339004 177.175969 
L 108.208379 177.2007 
L 111.077754 176.763767 
L 113.947129 175.94887 
L 116.816504 174.716743 
L 119.685879 172.789725 
L 122.555254 169.654386 
L 125.424629 164.699927 
L 128.294004 157.462248 
L 131.163379 147.902045 
L 134.032754 136.616524 
L 136.902129 124.876825 
L 139.771504 114.417011 
L 142.640879 106.990696 
L 145.510254 103.83372 
L 148.379629 105.253781 
L 151.249004 110.53872 
L 154.118379 118.231202 
L 156.987754 126.641297 
L 159.85713 134.366886 
L 162.726505 140.615226 
L 165.59588 145.237056 
L 168.465255 148.525372 
L 171.33463 150.929067 
L 174.204005 152.847007 
L 177.07338 154.592786 
L 179.942755 156.492677 
L 182.81213 158.980014 
L 185.681505 162.553368 
L 188.55088 167.577535 
L 191.420255 174.043534 
L 194.28963 181.459723 
L 197.159005 188.975855 
L 200.02838 195.696821 
L 202.897755 201.02592 
L 205.76713 204.863309 
L 208.636505 207.572543 
L 211.50588 209.753784 
L 214.375255 211.951423 
L 217.24463 214.434511 
L 220.114005 217.128266 
L 222.98338 219.689162 
L 225.852755 221.655541 
L 228.72213 222.594809 
L 231.591505 222.196871 
L 234.460881 220.30413 
L 237.330256 216.900108 
L 240.199631 212.091759 
L 243.069006 206.110531 
L 245.938381 199.327739 
L 248.807756 192.251032 
L 251.677131 185.471068 
L 254.546506 179.570801 
L 257.415881 175.059948 
L 260.285256 172.394857 
L 263.154631 172.064973 
L 266.024006 174.628788 
L 268.893381 180.572653 
L 271.762756 189.996566 
L 274.632131 202.313946 
L 277.501506 216.214169 
L 280.370881 229.989066 
L 283.240256 242.072998 
L 286.109631 251.501115 
L 288.979006 258.06439 
L 291.848381 262.150513 
L 294.717756 264.429695 
L 297.587131 265.570307 
L 300.456506 266.083024 
" style="fill:none;stroke:#d62728;stroke-linecap:square;stroke-width:1.5;"/>
   </g>
  </g>
 </g>
 <defs>
  <clipPath id="p8e00268da4">
   <rect height="266.4" width="316.8" x="0" y="0"/>
  </clipPath>
 </defs>
</svg>
