<?xml version="1.0" encoding="UTF-8" standalone="no"?>
<!-- Created with matplotlib (https://matplotlib.org/) -->

<svg
   xmlns:dc="http://purl.org/dc/elements/1.1/"
   xmlns:cc="http://creativecommons.org/ns#"
   xmlns:rdf="http://www.w3.org/1999/02/22-rdf-syntax-ns#"
   xmlns:svg="http://www.w3.org/2000/svg"
   xmlns="http://www.w3.org/2000/svg"
   xmlns:xlink="http://www.w3.org/1999/xlink"
   xmlns:sodipodi="http://sodipodi.sourceforge.net/DTD/sodipodi-0.dtd"
   xmlns:inkscape="http://www.inkscape.org/namespaces/inkscape"
   height="4in"
   version="1.1"
   viewBox="0 0 360.00003 288.00001"
   width="5in"
   id="svg276"
   sodipodi:docname="purity_dist_bsq_framed.svg"
   inkscape:version="0.92.4 (5da689c313, 2019-01-14)">
  <metadata
     id="metadata280">
    <rdf:RDF>
      <cc:Work
         rdf:about="">
        <dc:format>image/svg+xml</dc:format>
        <dc:type
           rdf:resource="http://purl.org/dc/dcmitype/StillImage" />
        <dc:title />
      </cc:Work>
    </rdf:RDF>
  </metadata>
  <sodipodi:namedview
     pagecolor="#ffffff"
     bordercolor="#666666"
     borderopacity="1"
     objecttolerance="10"
     gridtolerance="10"
     guidetolerance="10"
     inkscape:pageopacity="0"
     inkscape:pageshadow="2"
     inkscape:window-width="1902"
     inkscape:window-height="1032"
     id="namedview278"
     showgrid="false"
     units="in"
     inkscape:zoom="1.3288289"
     inkscape:cx="60.526891"
     inkscape:cy="101.00703"
     inkscape:window-x="106"
     inkscape:window-y="130"
     inkscape:window-maximized="0"
     inkscape:current-layer="svg276" />
  <defs
     id="defs4"
     style="white-space:pre;stroke-linecap:butt;stroke-linejoin:round">
    <style
       type="text/css"
       id="style2">
*{stroke-linecap:butt;stroke-linejoin:round;white-space:pre;}
  </style>
    <style
       id="style1112"
       type="text/css">
*{stroke-linecap:butt;stroke-linejoin:round;}
  </style>
    <path
       style="stroke:#000000;stroke-width:0.8;"
       id="m07ccfd01e8"
       d="M 0 0  L 0 3.5  " />
    <path
       id="DejaVuSans-50"
       d="M 19.1875 8.296875  L 53.609375 8.296875  L 53.609375 0  L 7.328125 0  L 7.328125 8.296875  Q 12.9375 14.109375 22.625 23.890625  Q 32.328125 33.6875 34.8125 36.53125  Q 39.546875 41.84375 41.421875 45.53125  Q 43.3125 49.21875 43.3125 52.78125  Q 43.3125 58.59375 39.234375 62.25  Q 35.15625 65.921875 28.609375 65.921875  Q 23.96875 65.921875 18.8125 64.3125  Q 13.671875 62.703125 7.8125 59.421875  L 7.8125 69.390625  Q 13.765625 71.78125 18.9375 73  Q 24.125 74.21875 28.421875 74.21875  Q 39.75 74.21875 46.484375 68.546875  Q 53.21875 62.890625 53.21875 53.421875  Q 53.21875 48.921875 51.53125 44.890625  Q 49.859375 40.875 45.40625 35.40625  Q 44.1875 33.984375 37.640625 27.21875  Q 31.109375 20.453125 19.1875 8.296875  z " />
    <path
       id="DejaVuSans-48"
       d="M 31.78125 66.40625  Q 24.171875 66.40625 20.328125 58.90625  Q 16.5 51.421875 16.5 36.375  Q 16.5 21.390625 20.328125 13.890625  Q 24.171875 6.390625 31.78125 6.390625  Q 39.453125 6.390625 43.28125 13.890625  Q 47.125 21.390625 47.125 36.375  Q 47.125 51.421875 43.28125 58.90625  Q 39.453125 66.40625 31.78125 66.40625  z M 31.78125 74.21875  Q 44.046875 74.21875 50.515625 64.515625  Q 56.984375 54.828125 56.984375 36.375  Q 56.984375 17.96875 50.515625 8.265625  Q 44.046875 -1.421875 31.78125 -1.421875  Q 19.53125 -1.421875 13.0625 8.265625  Q 6.59375 17.96875 6.59375 36.375  Q 6.59375 54.828125 13.0625 64.515625  Q 19.53125 74.21875 31.78125 74.21875  z " />
    <path
       id="DejaVuSans-52"
       d="M 37.796875 64.3125  L 12.890625 25.390625  L 37.796875 25.390625  z M 35.203125 72.90625  L 47.609375 72.90625  L 47.609375 25.390625  L 58.015625 25.390625  L 58.015625 17.1875  L 47.609375 17.1875  L 47.609375 0  L 37.796875 0  L 37.796875 17.1875  L 4.890625 17.1875  L 4.890625 26.703125  z " />
    <path
       id="DejaVuSans-54"
       d="M 33.015625 40.375  Q 26.375 40.375 22.484375 35.828125  Q 18.609375 31.296875 18.609375 23.390625  Q 18.609375 15.53125 22.484375 10.953125  Q 26.375 6.390625 33.015625 6.390625  Q 39.65625 6.390625 43.53125 10.953125  Q 47.40625 15.53125 47.40625 23.390625  Q 47.40625 31.296875 43.53125 35.828125  Q 39.65625 40.375 33.015625 40.375  z M 52.59375 71.296875  L 52.59375 62.3125  Q 48.875 64.0625 45.09375 64.984375  Q 41.3125 65.921875 37.59375 65.921875  Q 27.828125 65.921875 22.671875 59.328125  Q 17.53125 52.734375 16.796875 39.40625  Q 19.671875 43.65625 24.015625 45.921875  Q 28.375 48.1875 33.59375 48.1875  Q 44.578125 48.1875 50.953125 41.515625  Q 57.328125 34.859375 57.328125 23.390625  Q 57.328125 12.15625 50.6875 5.359375  Q 44.046875 -1.421875 33.015625 -1.421875  Q 20.359375 -1.421875 13.671875 8.265625  Q 6.984375 17.96875 6.984375 36.375  Q 6.984375 53.65625 15.1875 63.9375  Q 23.390625 74.21875 37.203125 74.21875  Q 40.921875 74.21875 44.703125 73.484375  Q 48.484375 72.75 52.59375 71.296875  z " />
    <path
       id="DejaVuSans-56"
       d="M 31.78125 34.625  Q 24.75 34.625 20.71875 30.859375  Q 16.703125 27.09375 16.703125 20.515625  Q 16.703125 13.921875 20.71875 10.15625  Q 24.75 6.390625 31.78125 6.390625  Q 38.8125 6.390625 42.859375 10.171875  Q 46.921875 13.96875 46.921875 20.515625  Q 46.921875 27.09375 42.890625 30.859375  Q 38.875 34.625 31.78125 34.625  z M 21.921875 38.8125  Q 15.578125 40.375 12.03125 44.71875  Q 8.5 49.078125 8.5 55.328125  Q 8.5 64.0625 14.71875 69.140625  Q 20.953125 74.21875 31.78125 74.21875  Q 42.671875 74.21875 48.875 69.140625  Q 55.078125 64.0625 55.078125 55.328125  Q 55.078125 49.078125 51.53125 44.71875  Q 48 40.375 41.703125 38.8125  Q 48.828125 37.15625 52.796875 32.3125  Q 56.78125 27.484375 56.78125 20.515625  Q 56.78125 9.90625 50.3125 4.234375  Q 43.84375 -1.421875 31.78125 -1.421875  Q 19.734375 -1.421875 13.25 4.234375  Q 6.78125 9.90625 6.78125 20.515625  Q 6.78125 27.484375 10.78125 32.3125  Q 14.796875 37.15625 21.921875 38.8125  z M 18.3125 54.390625  Q 18.3125 48.734375 21.84375 45.5625  Q 25.390625 42.390625 31.78125 42.390625  Q 38.140625 42.390625 41.71875 45.5625  Q 45.3125 48.734375 45.3125 54.390625  Q 45.3125 60.0625 41.71875 63.234375  Q 38.140625 66.40625 31.78125 66.40625  Q 25.390625 66.40625 21.84375 63.234375  Q 18.3125 60.0625 18.3125 54.390625  z " />
    <path
       id="DejaVuSans-49"
       d="M 12.40625 8.296875  L 28.515625 8.296875  L 28.515625 63.921875  L 10.984375 60.40625  L 10.984375 69.390625  L 28.421875 72.90625  L 38.28125 72.90625  L 38.28125 8.296875  L 54.390625 8.296875  L 54.390625 0  L 12.40625 0  z " />
    <path
       style="stroke:#000000;stroke-width:0.8;"
       id="m11437aa5fe"
       d="M 0 0  L -3.5 0  " />
    <path
       id="DejaVuSans-46"
       d="M 10.6875 12.40625  L 21 12.40625  L 21 0  L 10.6875 0  z " />
    <path
       id="DejaVuSans-51"
       d="M 40.578125 39.3125  Q 47.65625 37.796875 51.625 33  Q 55.609375 28.21875 55.609375 21.1875  Q 55.609375 10.40625 48.1875 4.484375  Q 40.765625 -1.421875 27.09375 -1.421875  Q 22.515625 -1.421875 17.65625 -0.515625  Q 12.796875 0.390625 7.625 2.203125  L 7.625 11.71875  Q 11.71875 9.328125 16.59375 8.109375  Q 21.484375 6.890625 26.8125 6.890625  Q 36.078125 6.890625 40.9375 10.546875  Q 45.796875 14.203125 45.796875 21.1875  Q 45.796875 27.640625 41.28125 31.265625  Q 36.765625 34.90625 28.71875 34.90625  L 20.21875 34.90625  L 20.21875 43.015625  L 29.109375 43.015625  Q 36.375 43.015625 40.234375 45.921875  Q 44.09375 48.828125 44.09375 54.296875  Q 44.09375 59.90625 40.109375 62.90625  Q 36.140625 65.921875 28.71875 65.921875  Q 24.65625 65.921875 20.015625 65.03125  Q 15.375 64.15625 9.8125 62.3125  L 9.8125 71.09375  Q 15.4375 72.65625 20.34375 73.4375  Q 25.25 74.21875 29.59375 74.21875  Q 40.828125 74.21875 47.359375 69.109375  Q 53.90625 64.015625 53.90625 55.328125  Q 53.90625 49.265625 50.4375 45.09375  Q 46.96875 40.921875 40.578125 39.3125  z " />
    <path
       id="DejaVuSans-53"
       d="M 10.796875 72.90625  L 49.515625 72.90625  L 49.515625 64.59375  L 19.828125 64.59375  L 19.828125 46.734375  Q 21.96875 47.46875 24.109375 47.828125  Q 26.265625 48.1875 28.421875 48.1875  Q 40.625 48.1875 47.75 41.5  Q 54.890625 34.8125 54.890625 23.390625  Q 54.890625 11.625 47.5625 5.09375  Q 40.234375 -1.421875 26.90625 -1.421875  Q 22.3125 -1.421875 17.546875 -0.640625  Q 12.796875 0.140625 7.71875 1.703125  L 7.71875 11.625  Q 12.109375 9.234375 16.796875 8.0625  Q 21.484375 6.890625 26.703125 6.890625  Q 35.15625 6.890625 40.078125 11.328125  Q 45.015625 15.765625 45.015625 23.390625  Q 45.015625 31 40.078125 35.4375  Q 35.15625 39.890625 26.703125 39.890625  Q 22.75 39.890625 18.8125 39.015625  Q 14.890625 38.140625 10.796875 36.28125  z " />
    <clipPath
       id="p70de277eae">
      <rect
         id="rect1346"
         y="0"
         x="0"
         width="316.8"
         height="266.4" />
    </clipPath>
    <style
       id="style983"
       type="text/css">
*{stroke-linecap:butt;stroke-linejoin:round;white-space:pre;}
  </style>
    <path
       style="stroke:#000000;stroke-width:0.8;"
       id="m52337dcf6b"
       d="M 0 0  L 0 3.5  " />
    <path
       id="DejaVuSans-48-7"
       d="M 31.78125 66.40625  Q 24.171875 66.40625 20.328125 58.90625  Q 16.5 51.421875 16.5 36.375  Q 16.5 21.390625 20.328125 13.890625  Q 24.171875 6.390625 31.78125 6.390625  Q 39.453125 6.390625 43.28125 13.890625  Q 47.125 21.390625 47.125 36.375  Q 47.125 51.421875 43.28125 58.90625  Q 39.453125 66.40625 31.78125 66.40625  z M 31.78125 74.21875  Q 44.046875 74.21875 50.515625 64.515625  Q 56.984375 54.828125 56.984375 36.375  Q 56.984375 17.96875 50.515625 8.265625  Q 44.046875 -1.421875 31.78125 -1.421875  Q 19.53125 -1.421875 13.0625 8.265625  Q 6.59375 17.96875 6.59375 36.375  Q 6.59375 54.828125 13.0625 64.515625  Q 19.53125 74.21875 31.78125 74.21875  z " />
    <path
       id="DejaVuSans-46-1"
       d="M 10.6875 12.40625  L 21 12.40625  L 21 0  L 10.6875 0  z " />
    <path
       id="DejaVuSans-50-9"
       d="M 19.1875 8.296875  L 53.609375 8.296875  L 53.609375 0  L 7.328125 0  L 7.328125 8.296875  Q 12.9375 14.109375 22.625 23.890625  Q 32.328125 33.6875 34.8125 36.53125  Q 39.546875 41.84375 41.421875 45.53125  Q 43.3125 49.21875 43.3125 52.78125  Q 43.3125 58.59375 39.234375 62.25  Q 35.15625 65.921875 28.609375 65.921875  Q 23.96875 65.921875 18.8125 64.3125  Q 13.671875 62.703125 7.8125 59.421875  L 7.8125 69.390625  Q 13.765625 71.78125 18.9375 73  Q 24.125 74.21875 28.421875 74.21875  Q 39.75 74.21875 46.484375 68.546875  Q 53.21875 62.890625 53.21875 53.421875  Q 53.21875 48.921875 51.53125 44.890625  Q 49.859375 40.875 45.40625 35.40625  Q 44.1875 33.984375 37.640625 27.21875  Q 31.109375 20.453125 19.1875 8.296875  z " />
    <path
       id="DejaVuSans-52-2"
       d="M 37.796875 64.3125  L 12.890625 25.390625  L 37.796875 25.390625  z M 35.203125 72.90625  L 47.609375 72.90625  L 47.609375 25.390625  L 58.015625 25.390625  L 58.015625 17.1875  L 47.609375 17.1875  L 47.609375 0  L 37.796875 0  L 37.796875 17.1875  L 4.890625 17.1875  L 4.890625 26.703125  z " />
    <path
       id="DejaVuSans-54-1"
       d="M 33.015625 40.375  Q 26.375 40.375 22.484375 35.828125  Q 18.609375 31.296875 18.609375 23.390625  Q 18.609375 15.53125 22.484375 10.953125  Q 26.375 6.390625 33.015625 6.390625  Q 39.65625 6.390625 43.53125 10.953125  Q 47.40625 15.53125 47.40625 23.390625  Q 47.40625 31.296875 43.53125 35.828125  Q 39.65625 40.375 33.015625 40.375  z M 52.59375 71.296875  L 52.59375 62.3125  Q 48.875 64.0625 45.09375 64.984375  Q 41.3125 65.921875 37.59375 65.921875  Q 27.828125 65.921875 22.671875 59.328125  Q 17.53125 52.734375 16.796875 39.40625  Q 19.671875 43.65625 24.015625 45.921875  Q 28.375 48.1875 33.59375 48.1875  Q 44.578125 48.1875 50.953125 41.515625  Q 57.328125 34.859375 57.328125 23.390625  Q 57.328125 12.15625 50.6875 5.359375  Q 44.046875 -1.421875 33.015625 -1.421875  Q 20.359375 -1.421875 13.671875 8.265625  Q 6.984375 17.96875 6.984375 36.375  Q 6.984375 53.65625 15.1875 63.9375  Q 23.390625 74.21875 37.203125 74.21875  Q 40.921875 74.21875 44.703125 73.484375  Q 48.484375 72.75 52.59375 71.296875  z " />
    <path
       id="DejaVuSans-56-1"
       d="M 31.78125 34.625  Q 24.75 34.625 20.71875 30.859375  Q 16.703125 27.09375 16.703125 20.515625  Q 16.703125 13.921875 20.71875 10.15625  Q 24.75 6.390625 31.78125 6.390625  Q 38.8125 6.390625 42.859375 10.171875  Q 46.921875 13.96875 46.921875 20.515625  Q 46.921875 27.09375 42.890625 30.859375  Q 38.875 34.625 31.78125 34.625  z M 21.921875 38.8125  Q 15.578125 40.375 12.03125 44.71875  Q 8.5 49.078125 8.5 55.328125  Q 8.5 64.0625 14.71875 69.140625  Q 20.953125 74.21875 31.78125 74.21875  Q 42.671875 74.21875 48.875 69.140625  Q 55.078125 64.0625 55.078125 55.328125  Q 55.078125 49.078125 51.53125 44.71875  Q 48 40.375 41.703125 38.8125  Q 48.828125 37.15625 52.796875 32.3125  Q 56.78125 27.484375 56.78125 20.515625  Q 56.78125 9.90625 50.3125 4.234375  Q 43.84375 -1.421875 31.78125 -1.421875  Q 19.734375 -1.421875 13.25 4.234375  Q 6.78125 9.90625 6.78125 20.515625  Q 6.78125 27.484375 10.78125 32.3125  Q 14.796875 37.15625 21.921875 38.8125  z M 18.3125 54.390625  Q 18.3125 48.734375 21.84375 45.5625  Q 25.390625 42.390625 31.78125 42.390625  Q 38.140625 42.390625 41.71875 45.5625  Q 45.3125 48.734375 45.3125 54.390625  Q 45.3125 60.0625 41.71875 63.234375  Q 38.140625 66.40625 31.78125 66.40625  Q 25.390625 66.40625 21.84375 63.234375  Q 18.3125 60.0625 18.3125 54.390625  z " />
    <path
       id="DejaVuSans-49-8"
       d="M 12.40625 8.296875  L 28.515625 8.296875  L 28.515625 63.921875  L 10.984375 60.40625  L 10.984375 69.390625  L 28.421875 72.90625  L 38.28125 72.90625  L 38.28125 8.296875  L 54.390625 8.296875  L 54.390625 0  L 12.40625 0  z " />
    <path
       style="stroke:#000000;stroke-width:0.8;"
       id="m103b220553"
       d="M 0 0  L -3.5 0  " />
    <path
       id="DejaVuSans-53-5"
       d="M 10.796875 72.90625  L 49.515625 72.90625  L 49.515625 64.59375  L 19.828125 64.59375  L 19.828125 46.734375  Q 21.96875 47.46875 24.109375 47.828125  Q 26.265625 48.1875 28.421875 48.1875  Q 40.625 48.1875 47.75 41.5  Q 54.890625 34.8125 54.890625 23.390625  Q 54.890625 11.625 47.5625 5.09375  Q 40.234375 -1.421875 26.90625 -1.421875  Q 22.3125 -1.421875 17.546875 -0.640625  Q 12.796875 0.140625 7.71875 1.703125  L 7.71875 11.625  Q 12.109375 9.234375 16.796875 8.0625  Q 21.484375 6.890625 26.703125 6.890625  Q 35.15625 6.890625 40.078125 11.328125  Q 45.015625 15.765625 45.015625 23.390625  Q 45.015625 31 40.078125 35.4375  Q 35.15625 39.890625 26.703125 39.890625  Q 22.75 39.890625 18.8125 39.015625  Q 14.890625 38.140625 10.796875 36.28125  z " />
    <path
       id="DejaVuSans-51-4"
       d="M 40.578125 39.3125  Q 47.65625 37.796875 51.625 33  Q 55.609375 28.21875 55.609375 21.1875  Q 55.609375 10.40625 48.1875 4.484375  Q 40.765625 -1.421875 27.09375 -1.421875  Q 22.515625 -1.421875 17.65625 -0.515625  Q 12.796875 0.390625 7.625 2.203125  L 7.625 11.71875  Q 11.71875 9.328125 16.59375 8.109375  Q 21.484375 6.890625 26.8125 6.890625  Q 36.078125 6.890625 40.9375 10.546875  Q 45.796875 14.203125 45.796875 21.1875  Q 45.796875 27.640625 41.28125 31.265625  Q 36.765625 34.90625 28.71875 34.90625  L 20.21875 34.90625  L 20.21875 43.015625  L 29.109375 43.015625  Q 36.375 43.015625 40.234375 45.921875  Q 44.09375 48.828125 44.09375 54.296875  Q 44.09375 59.90625 40.109375 62.90625  Q 36.140625 65.921875 28.71875 65.921875  Q 24.65625 65.921875 20.015625 65.03125  Q 15.375 64.15625 9.8125 62.3125  L 9.8125 71.09375  Q 15.4375 72.65625 20.34375 73.4375  Q 25.25 74.21875 29.59375 74.21875  Q 40.828125 74.21875 47.359375 69.109375  Q 53.90625 64.015625 53.90625 55.328125  Q 53.90625 49.265625 50.4375 45.09375  Q 46.96875 40.921875 40.578125 39.3125  z " />
    <clipPath
       id="pfe9b9ad171">
      <rect
         id="rect1247"
         y="0"
         x="0"
         width="316.8"
         height="266.4" />
    </clipPath>
    <style
       id="style1026"
       type="text/css">
*{stroke-linecap:butt;stroke-linejoin:round;white-space:pre;}
  </style>
    <path
       style="stroke:#000000;stroke-width:0.8;"
       id="m8609240198"
       d="M 0 0  L 0 3.5  " />
    <path
       id="DejaVuSans-48-0"
       d="M 31.78125 66.40625  Q 24.171875 66.40625 20.328125 58.90625  Q 16.5 51.421875 16.5 36.375  Q 16.5 21.390625 20.328125 13.890625  Q 24.171875 6.390625 31.78125 6.390625  Q 39.453125 6.390625 43.28125 13.890625  Q 47.125 21.390625 47.125 36.375  Q 47.125 51.421875 43.28125 58.90625  Q 39.453125 66.40625 31.78125 66.40625  z M 31.78125 74.21875  Q 44.046875 74.21875 50.515625 64.515625  Q 56.984375 54.828125 56.984375 36.375  Q 56.984375 17.96875 50.515625 8.265625  Q 44.046875 -1.421875 31.78125 -1.421875  Q 19.53125 -1.421875 13.0625 8.265625  Q 6.59375 17.96875 6.59375 36.375  Q 6.59375 54.828125 13.0625 64.515625  Q 19.53125 74.21875 31.78125 74.21875  z " />
    <path
       id="DejaVuSans-46-6"
       d="M 10.6875 12.40625  L 21 12.40625  L 21 0  L 10.6875 0  z " />
    <path
       id="DejaVuSans-50-4"
       d="M 19.1875 8.296875  L 53.609375 8.296875  L 53.609375 0  L 7.328125 0  L 7.328125 8.296875  Q 12.9375 14.109375 22.625 23.890625  Q 32.328125 33.6875 34.8125 36.53125  Q 39.546875 41.84375 41.421875 45.53125  Q 43.3125 49.21875 43.3125 52.78125  Q 43.3125 58.59375 39.234375 62.25  Q 35.15625 65.921875 28.609375 65.921875  Q 23.96875 65.921875 18.8125 64.3125  Q 13.671875 62.703125 7.8125 59.421875  L 7.8125 69.390625  Q 13.765625 71.78125 18.9375 73  Q 24.125 74.21875 28.421875 74.21875  Q 39.75 74.21875 46.484375 68.546875  Q 53.21875 62.890625 53.21875 53.421875  Q 53.21875 48.921875 51.53125 44.890625  Q 49.859375 40.875 45.40625 35.40625  Q 44.1875 33.984375 37.640625 27.21875  Q 31.109375 20.453125 19.1875 8.296875  z " />
    <path
       id="DejaVuSans-52-5"
       d="M 37.796875 64.3125  L 12.890625 25.390625  L 37.796875 25.390625  z M 35.203125 72.90625  L 47.609375 72.90625  L 47.609375 25.390625  L 58.015625 25.390625  L 58.015625 17.1875  L 47.609375 17.1875  L 47.609375 0  L 37.796875 0  L 37.796875 17.1875  L 4.890625 17.1875  L 4.890625 26.703125  z " />
    <path
       id="DejaVuSans-54-3"
       d="M 33.015625 40.375  Q 26.375 40.375 22.484375 35.828125  Q 18.609375 31.296875 18.609375 23.390625  Q 18.609375 15.53125 22.484375 10.953125  Q 26.375 6.390625 33.015625 6.390625  Q 39.65625 6.390625 43.53125 10.953125  Q 47.40625 15.53125 47.40625 23.390625  Q 47.40625 31.296875 43.53125 35.828125  Q 39.65625 40.375 33.015625 40.375  z M 52.59375 71.296875  L 52.59375 62.3125  Q 48.875 64.0625 45.09375 64.984375  Q 41.3125 65.921875 37.59375 65.921875  Q 27.828125 65.921875 22.671875 59.328125  Q 17.53125 52.734375 16.796875 39.40625  Q 19.671875 43.65625 24.015625 45.921875  Q 28.375 48.1875 33.59375 48.1875  Q 44.578125 48.1875 50.953125 41.515625  Q 57.328125 34.859375 57.328125 23.390625  Q 57.328125 12.15625 50.6875 5.359375  Q 44.046875 -1.421875 33.015625 -1.421875  Q 20.359375 -1.421875 13.671875 8.265625  Q 6.984375 17.96875 6.984375 36.375  Q 6.984375 53.65625 15.1875 63.9375  Q 23.390625 74.21875 37.203125 74.21875  Q 40.921875 74.21875 44.703125 73.484375  Q 48.484375 72.75 52.59375 71.296875  z " />
    <path
       id="DejaVuSans-56-3"
       d="M 31.78125 34.625  Q 24.75 34.625 20.71875 30.859375  Q 16.703125 27.09375 16.703125 20.515625  Q 16.703125 13.921875 20.71875 10.15625  Q 24.75 6.390625 31.78125 6.390625  Q 38.8125 6.390625 42.859375 10.171875  Q 46.921875 13.96875 46.921875 20.515625  Q 46.921875 27.09375 42.890625 30.859375  Q 38.875 34.625 31.78125 34.625  z M 21.921875 38.8125  Q 15.578125 40.375 12.03125 44.71875  Q 8.5 49.078125 8.5 55.328125  Q 8.5 64.0625 14.71875 69.140625  Q 20.953125 74.21875 31.78125 74.21875  Q 42.671875 74.21875 48.875 69.140625  Q 55.078125 64.0625 55.078125 55.328125  Q 55.078125 49.078125 51.53125 44.71875  Q 48 40.375 41.703125 38.8125  Q 48.828125 37.15625 52.796875 32.3125  Q 56.78125 27.484375 56.78125 20.515625  Q 56.78125 9.90625 50.3125 4.234375  Q 43.84375 -1.421875 31.78125 -1.421875  Q 19.734375 -1.421875 13.25 4.234375  Q 6.78125 9.90625 6.78125 20.515625  Q 6.78125 27.484375 10.78125 32.3125  Q 14.796875 37.15625 21.921875 38.8125  z M 18.3125 54.390625  Q 18.3125 48.734375 21.84375 45.5625  Q 25.390625 42.390625 31.78125 42.390625  Q 38.140625 42.390625 41.71875 45.5625  Q 45.3125 48.734375 45.3125 54.390625  Q 45.3125 60.0625 41.71875 63.234375  Q 38.140625 66.40625 31.78125 66.40625  Q 25.390625 66.40625 21.84375 63.234375  Q 18.3125 60.0625 18.3125 54.390625  z " />
    <path
       id="DejaVuSans-49-9"
       d="M 12.40625 8.296875  L 28.515625 8.296875  L 28.515625 63.921875  L 10.984375 60.40625  L 10.984375 69.390625  L 28.421875 72.90625  L 38.28125 72.90625  L 38.28125 8.296875  L 54.390625 8.296875  L 54.390625 0  L 12.40625 0  z " />
    <path
       style="stroke:#000000;stroke-width:0.8;"
       id="m024fbd963b"
       d="M 0 0  L -3.5 0  " />
    <path
       id="DejaVuSans-53-0"
       d="M 10.796875 72.90625  L 49.515625 72.90625  L 49.515625 64.59375  L 19.828125 64.59375  L 19.828125 46.734375  Q 21.96875 47.46875 24.109375 47.828125  Q 26.265625 48.1875 28.421875 48.1875  Q 40.625 48.1875 47.75 41.5  Q 54.890625 34.8125 54.890625 23.390625  Q 54.890625 11.625 47.5625 5.09375  Q 40.234375 -1.421875 26.90625 -1.421875  Q 22.3125 -1.421875 17.546875 -0.640625  Q 12.796875 0.140625 7.71875 1.703125  L 7.71875 11.625  Q 12.109375 9.234375 16.796875 8.0625  Q 21.484375 6.890625 26.703125 6.890625  Q 35.15625 6.890625 40.078125 11.328125  Q 45.015625 15.765625 45.015625 23.390625  Q 45.015625 31 40.078125 35.4375  Q 35.15625 39.890625 26.703125 39.890625  Q 22.75 39.890625 18.8125 39.015625  Q 14.890625 38.140625 10.796875 36.28125  z " />
    <clipPath
       id="p95ec1ba3e8">
      <rect
         id="rect1257"
         y="0"
         x="0"
         width="316.8"
         height="266.4" />
    </clipPath>
    <style
       id="style1019"
       type="text/css">
*{stroke-linecap:butt;stroke-linejoin:round;white-space:pre;}
  </style>
    <path
       style="stroke:#000000;stroke-width:0.8;"
       id="m393e09d9e0"
       d="M 0 0  L 0 3.5  " />
    <path
       id="DejaVuSans-48-2"
       d="M 31.78125 66.40625  Q 24.171875 66.40625 20.328125 58.90625  Q 16.5 51.421875 16.5 36.375  Q 16.5 21.390625 20.328125 13.890625  Q 24.171875 6.390625 31.78125 6.390625  Q 39.453125 6.390625 43.28125 13.890625  Q 47.125 21.390625 47.125 36.375  Q 47.125 51.421875 43.28125 58.90625  Q 39.453125 66.40625 31.78125 66.40625  z M 31.78125 74.21875  Q 44.046875 74.21875 50.515625 64.515625  Q 56.984375 54.828125 56.984375 36.375  Q 56.984375 17.96875 50.515625 8.265625  Q 44.046875 -1.421875 31.78125 -1.421875  Q 19.53125 -1.421875 13.0625 8.265625  Q 6.59375 17.96875 6.59375 36.375  Q 6.59375 54.828125 13.0625 64.515625  Q 19.53125 74.21875 31.78125 74.21875  z " />
    <path
       id="DejaVuSans-46-3"
       d="M 10.6875 12.40625  L 21 12.40625  L 21 0  L 10.6875 0  z " />
    <path
       id="DejaVuSans-50-47"
       d="M 19.1875 8.296875  L 53.609375 8.296875  L 53.609375 0  L 7.328125 0  L 7.328125 8.296875  Q 12.9375 14.109375 22.625 23.890625  Q 32.328125 33.6875 34.8125 36.53125  Q 39.546875 41.84375 41.421875 45.53125  Q 43.3125 49.21875 43.3125 52.78125  Q 43.3125 58.59375 39.234375 62.25  Q 35.15625 65.921875 28.609375 65.921875  Q 23.96875 65.921875 18.8125 64.3125  Q 13.671875 62.703125 7.8125 59.421875  L 7.8125 69.390625  Q 13.765625 71.78125 18.9375 73  Q 24.125 74.21875 28.421875 74.21875  Q 39.75 74.21875 46.484375 68.546875  Q 53.21875 62.890625 53.21875 53.421875  Q 53.21875 48.921875 51.53125 44.890625  Q 49.859375 40.875 45.40625 35.40625  Q 44.1875 33.984375 37.640625 27.21875  Q 31.109375 20.453125 19.1875 8.296875  z " />
    <path
       id="DejaVuSans-52-57"
       d="M 37.796875 64.3125  L 12.890625 25.390625  L 37.796875 25.390625  z M 35.203125 72.90625  L 47.609375 72.90625  L 47.609375 25.390625  L 58.015625 25.390625  L 58.015625 17.1875  L 47.609375 17.1875  L 47.609375 0  L 37.796875 0  L 37.796875 17.1875  L 4.890625 17.1875  L 4.890625 26.703125  z " />
    <path
       id="DejaVuSans-54-2"
       d="M 33.015625 40.375  Q 26.375 40.375 22.484375 35.828125  Q 18.609375 31.296875 18.609375 23.390625  Q 18.609375 15.53125 22.484375 10.953125  Q 26.375 6.390625 33.015625 6.390625  Q 39.65625 6.390625 43.53125 10.953125  Q 47.40625 15.53125 47.40625 23.390625  Q 47.40625 31.296875 43.53125 35.828125  Q 39.65625 40.375 33.015625 40.375  z M 52.59375 71.296875  L 52.59375 62.3125  Q 48.875 64.0625 45.09375 64.984375  Q 41.3125 65.921875 37.59375 65.921875  Q 27.828125 65.921875 22.671875 59.328125  Q 17.53125 52.734375 16.796875 39.40625  Q 19.671875 43.65625 24.015625 45.921875  Q 28.375 48.1875 33.59375 48.1875  Q 44.578125 48.1875 50.953125 41.515625  Q 57.328125 34.859375 57.328125 23.390625  Q 57.328125 12.15625 50.6875 5.359375  Q 44.046875 -1.421875 33.015625 -1.421875  Q 20.359375 -1.421875 13.671875 8.265625  Q 6.984375 17.96875 6.984375 36.375  Q 6.984375 53.65625 15.1875 63.9375  Q 23.390625 74.21875 37.203125 74.21875  Q 40.921875 74.21875 44.703125 73.484375  Q 48.484375 72.75 52.59375 71.296875  z " />
    <path
       id="DejaVuSans-56-7"
       d="M 31.78125 34.625  Q 24.75 34.625 20.71875 30.859375  Q 16.703125 27.09375 16.703125 20.515625  Q 16.703125 13.921875 20.71875 10.15625  Q 24.75 6.390625 31.78125 6.390625  Q 38.8125 6.390625 42.859375 10.171875  Q 46.921875 13.96875 46.921875 20.515625  Q 46.921875 27.09375 42.890625 30.859375  Q 38.875 34.625 31.78125 34.625  z M 21.921875 38.8125  Q 15.578125 40.375 12.03125 44.71875  Q 8.5 49.078125 8.5 55.328125  Q 8.5 64.0625 14.71875 69.140625  Q 20.953125 74.21875 31.78125 74.21875  Q 42.671875 74.21875 48.875 69.140625  Q 55.078125 64.0625 55.078125 55.328125  Q 55.078125 49.078125 51.53125 44.71875  Q 48 40.375 41.703125 38.8125  Q 48.828125 37.15625 52.796875 32.3125  Q 56.78125 27.484375 56.78125 20.515625  Q 56.78125 9.90625 50.3125 4.234375  Q 43.84375 -1.421875 31.78125 -1.421875  Q 19.734375 -1.421875 13.25 4.234375  Q 6.78125 9.90625 6.78125 20.515625  Q 6.78125 27.484375 10.78125 32.3125  Q 14.796875 37.15625 21.921875 38.8125  z M 18.3125 54.390625  Q 18.3125 48.734375 21.84375 45.5625  Q 25.390625 42.390625 31.78125 42.390625  Q 38.140625 42.390625 41.71875 45.5625  Q 45.3125 48.734375 45.3125 54.390625  Q 45.3125 60.0625 41.71875 63.234375  Q 38.140625 66.40625 31.78125 66.40625  Q 25.390625 66.40625 21.84375 63.234375  Q 18.3125 60.0625 18.3125 54.390625  z " />
    <path
       id="DejaVuSans-49-6"
       d="M 12.40625 8.296875  L 28.515625 8.296875  L 28.515625 63.921875  L 10.984375 60.40625  L 10.984375 69.390625  L 28.421875 72.90625  L 38.28125 72.90625  L 38.28125 8.296875  L 54.390625 8.296875  L 54.390625 0  L 12.40625 0  z " />
    <path
       style="stroke:#000000;stroke-width:0.8;"
       id="ma5c7b74f5d"
       d="M 0 0  L -3.5 0  " />
    <path
       id="DejaVuSans-53-03"
       d="M 10.796875 72.90625  L 49.515625 72.90625  L 49.515625 64.59375  L 19.828125 64.59375  L 19.828125 46.734375  Q 21.96875 47.46875 24.109375 47.828125  Q 26.265625 48.1875 28.421875 48.1875  Q 40.625 48.1875 47.75 41.5  Q 54.890625 34.8125 54.890625 23.390625  Q 54.890625 11.625 47.5625 5.09375  Q 40.234375 -1.421875 26.90625 -1.421875  Q 22.3125 -1.421875 17.546875 -0.640625  Q 12.796875 0.140625 7.71875 1.703125  L 7.71875 11.625  Q 12.109375 9.234375 16.796875 8.0625  Q 21.484375 6.890625 26.703125 6.890625  Q 35.15625 6.890625 40.078125 11.328125  Q 45.015625 15.765625 45.015625 23.390625  Q 45.015625 31 40.078125 35.4375  Q 35.15625 39.890625 26.703125 39.890625  Q 22.75 39.890625 18.8125 39.015625  Q 14.890625 38.140625 10.796875 36.28125  z " />
    <path
       id="DejaVuSans-51-0"
       d="M 40.578125 39.3125  Q 47.65625 37.796875 51.625 33  Q 55.609375 28.21875 55.609375 21.1875  Q 55.609375 10.40625 48.1875 4.484375  Q 40.765625 -1.421875 27.09375 -1.421875  Q 22.515625 -1.421875 17.65625 -0.515625  Q 12.796875 0.390625 7.625 2.203125  L 7.625 11.71875  Q 11.71875 9.328125 16.59375 8.109375  Q 21.484375 6.890625 26.8125 6.890625  Q 36.078125 6.890625 40.9375 10.546875  Q 45.796875 14.203125 45.796875 21.1875  Q 45.796875 27.640625 41.28125 31.265625  Q 36.765625 34.90625 28.71875 34.90625  L 20.21875 34.90625  L 20.21875 43.015625  L 29.109375 43.015625  Q 36.375 43.015625 40.234375 45.921875  Q 44.09375 48.828125 44.09375 54.296875  Q 44.09375 59.90625 40.109375 62.90625  Q 36.140625 65.921875 28.71875 65.921875  Q 24.65625 65.921875 20.015625 65.03125  Q 15.375 64.15625 9.8125 62.3125  L 9.8125 71.09375  Q 15.4375 72.65625 20.34375 73.4375  Q 25.25 74.21875 29.59375 74.21875  Q 40.828125 74.21875 47.359375 69.109375  Q 53.90625 64.015625 53.90625 55.328125  Q 53.90625 49.265625 50.4375 45.09375  Q 46.96875 40.921875 40.578125 39.3125  z " />
    <clipPath
       id="pd50bee9ec1">
      <rect
         id="rect1283"
         y="0"
         x="0"
         width="316.8"
         height="266.4" />
    </clipPath>
    <style
       id="style1177"
       type="text/css">
*{stroke-linecap:butt;stroke-linejoin:round;white-space:pre;}
  </style>
    <path
       style="stroke:#000000;stroke-width:0.8;"
       id="mef9e3eb2ef"
       d="M 0 0  L 0 3.5  " />
    <path
       id="DejaVuSans-48-23"
       d="M 31.78125 66.40625  Q 24.171875 66.40625 20.328125 58.90625  Q 16.5 51.421875 16.5 36.375  Q 16.5 21.390625 20.328125 13.890625  Q 24.171875 6.390625 31.78125 6.390625  Q 39.453125 6.390625 43.28125 13.890625  Q 47.125 21.390625 47.125 36.375  Q 47.125 51.421875 43.28125 58.90625  Q 39.453125 66.40625 31.78125 66.40625  z M 31.78125 74.21875  Q 44.046875 74.21875 50.515625 64.515625  Q 56.984375 54.828125 56.984375 36.375  Q 56.984375 17.96875 50.515625 8.265625  Q 44.046875 -1.421875 31.78125 -1.421875  Q 19.53125 -1.421875 13.0625 8.265625  Q 6.59375 17.96875 6.59375 36.375  Q 6.59375 54.828125 13.0625 64.515625  Q 19.53125 74.21875 31.78125 74.21875  z " />
    <path
       id="DejaVuSans-46-8"
       d="M 10.6875 12.40625  L 21 12.40625  L 21 0  L 10.6875 0  z " />
    <path
       id="DejaVuSans-50-1"
       d="M 19.1875 8.296875  L 53.609375 8.296875  L 53.609375 0  L 7.328125 0  L 7.328125 8.296875  Q 12.9375 14.109375 22.625 23.890625  Q 32.328125 33.6875 34.8125 36.53125  Q 39.546875 41.84375 41.421875 45.53125  Q 43.3125 49.21875 43.3125 52.78125  Q 43.3125 58.59375 39.234375 62.25  Q 35.15625 65.921875 28.609375 65.921875  Q 23.96875 65.921875 18.8125 64.3125  Q 13.671875 62.703125 7.8125 59.421875  L 7.8125 69.390625  Q 13.765625 71.78125 18.9375 73  Q 24.125 74.21875 28.421875 74.21875  Q 39.75 74.21875 46.484375 68.546875  Q 53.21875 62.890625 53.21875 53.421875  Q 53.21875 48.921875 51.53125 44.890625  Q 49.859375 40.875 45.40625 35.40625  Q 44.1875 33.984375 37.640625 27.21875  Q 31.109375 20.453125 19.1875 8.296875  z " />
    <path
       id="DejaVuSans-52-3"
       d="M 37.796875 64.3125  L 12.890625 25.390625  L 37.796875 25.390625  z M 35.203125 72.90625  L 47.609375 72.90625  L 47.609375 25.390625  L 58.015625 25.390625  L 58.015625 17.1875  L 47.609375 17.1875  L 47.609375 0  L 37.796875 0  L 37.796875 17.1875  L 4.890625 17.1875  L 4.890625 26.703125  z " />
    <path
       id="DejaVuSans-54-5"
       d="M 33.015625 40.375  Q 26.375 40.375 22.484375 35.828125  Q 18.609375 31.296875 18.609375 23.390625  Q 18.609375 15.53125 22.484375 10.953125  Q 26.375 6.390625 33.015625 6.390625  Q 39.65625 6.390625 43.53125 10.953125  Q 47.40625 15.53125 47.40625 23.390625  Q 47.40625 31.296875 43.53125 35.828125  Q 39.65625 40.375 33.015625 40.375  z M 52.59375 71.296875  L 52.59375 62.3125  Q 48.875 64.0625 45.09375 64.984375  Q 41.3125 65.921875 37.59375 65.921875  Q 27.828125 65.921875 22.671875 59.328125  Q 17.53125 52.734375 16.796875 39.40625  Q 19.671875 43.65625 24.015625 45.921875  Q 28.375 48.1875 33.59375 48.1875  Q 44.578125 48.1875 50.953125 41.515625  Q 57.328125 34.859375 57.328125 23.390625  Q 57.328125 12.15625 50.6875 5.359375  Q 44.046875 -1.421875 33.015625 -1.421875  Q 20.359375 -1.421875 13.671875 8.265625  Q 6.984375 17.96875 6.984375 36.375  Q 6.984375 53.65625 15.1875 63.9375  Q 23.390625 74.21875 37.203125 74.21875  Q 40.921875 74.21875 44.703125 73.484375  Q 48.484375 72.75 52.59375 71.296875  z " />
    <path
       id="DejaVuSans-56-37"
       d="M 31.78125 34.625  Q 24.75 34.625 20.71875 30.859375  Q 16.703125 27.09375 16.703125 20.515625  Q 16.703125 13.921875 20.71875 10.15625  Q 24.75 6.390625 31.78125 6.390625  Q 38.8125 6.390625 42.859375 10.171875  Q 46.921875 13.96875 46.921875 20.515625  Q 46.921875 27.09375 42.890625 30.859375  Q 38.875 34.625 31.78125 34.625  z M 21.921875 38.8125  Q 15.578125 40.375 12.03125 44.71875  Q 8.5 49.078125 8.5 55.328125  Q 8.5 64.0625 14.71875 69.140625  Q 20.953125 74.21875 31.78125 74.21875  Q 42.671875 74.21875 48.875 69.140625  Q 55.078125 64.0625 55.078125 55.328125  Q 55.078125 49.078125 51.53125 44.71875  Q 48 40.375 41.703125 38.8125  Q 48.828125 37.15625 52.796875 32.3125  Q 56.78125 27.484375 56.78125 20.515625  Q 56.78125 9.90625 50.3125 4.234375  Q 43.84375 -1.421875 31.78125 -1.421875  Q 19.734375 -1.421875 13.25 4.234375  Q 6.78125 9.90625 6.78125 20.515625  Q 6.78125 27.484375 10.78125 32.3125  Q 14.796875 37.15625 21.921875 38.8125  z M 18.3125 54.390625  Q 18.3125 48.734375 21.84375 45.5625  Q 25.390625 42.390625 31.78125 42.390625  Q 38.140625 42.390625 41.71875 45.5625  Q 45.3125 48.734375 45.3125 54.390625  Q 45.3125 60.0625 41.71875 63.234375  Q 38.140625 66.40625 31.78125 66.40625  Q 25.390625 66.40625 21.84375 63.234375  Q 18.3125 60.0625 18.3125 54.390625  z " />
    <path
       id="DejaVuSans-49-5"
       d="M 12.40625 8.296875  L 28.515625 8.296875  L 28.515625 63.921875  L 10.984375 60.40625  L 10.984375 69.390625  L 28.421875 72.90625  L 38.28125 72.90625  L 38.28125 8.296875  L 54.390625 8.296875  L 54.390625 0  L 12.40625 0  z " />
    <path
       style="stroke:#000000;stroke-width:0.8;"
       id="m6843e83bb2"
       d="M 0 0  L -3.5 0  " />
    <path
       id="DejaVuSans-53-2"
       d="M 10.796875 72.90625  L 49.515625 72.90625  L 49.515625 64.59375  L 19.828125 64.59375  L 19.828125 46.734375  Q 21.96875 47.46875 24.109375 47.828125  Q 26.265625 48.1875 28.421875 48.1875  Q 40.625 48.1875 47.75 41.5  Q 54.890625 34.8125 54.890625 23.390625  Q 54.890625 11.625 47.5625 5.09375  Q 40.234375 -1.421875 26.90625 -1.421875  Q 22.3125 -1.421875 17.546875 -0.640625  Q 12.796875 0.140625 7.71875 1.703125  L 7.71875 11.625  Q 12.109375 9.234375 16.796875 8.0625  Q 21.484375 6.890625 26.703125 6.890625  Q 35.15625 6.890625 40.078125 11.328125  Q 45.015625 15.765625 45.015625 23.390625  Q 45.015625 31 40.078125 35.4375  Q 35.15625 39.890625 26.703125 39.890625  Q 22.75 39.890625 18.8125 39.015625  Q 14.890625 38.140625 10.796875 36.28125  z " />
    <path
       id="DejaVuSans-51-05"
       d="M 40.578125 39.3125  Q 47.65625 37.796875 51.625 33  Q 55.609375 28.21875 55.609375 21.1875  Q 55.609375 10.40625 48.1875 4.484375  Q 40.765625 -1.421875 27.09375 -1.421875  Q 22.515625 -1.421875 17.65625 -0.515625  Q 12.796875 0.390625 7.625 2.203125  L 7.625 11.71875  Q 11.71875 9.328125 16.59375 8.109375  Q 21.484375 6.890625 26.8125 6.890625  Q 36.078125 6.890625 40.9375 10.546875  Q 45.796875 14.203125 45.796875 21.1875  Q 45.796875 27.640625 41.28125 31.265625  Q 36.765625 34.90625 28.71875 34.90625  L 20.21875 34.90625  L 20.21875 43.015625  L 29.109375 43.015625  Q 36.375 43.015625 40.234375 45.921875  Q 44.09375 48.828125 44.09375 54.296875  Q 44.09375 59.90625 40.109375 62.90625  Q 36.140625 65.921875 28.71875 65.921875  Q 24.65625 65.921875 20.015625 65.03125  Q 15.375 64.15625 9.8125 62.3125  L 9.8125 71.09375  Q 15.4375 72.65625 20.34375 73.4375  Q 25.25 74.21875 29.59375 74.21875  Q 40.828125 74.21875 47.359375 69.109375  Q 53.90625 64.015625 53.90625 55.328125  Q 53.90625 49.265625 50.4375 45.09375  Q 46.96875 40.921875 40.578125 39.3125  z " />
    <clipPath
       id="p8e00268da4">
      <rect
         id="rect1441"
         y="0"
         x="0"
         width="316.8"
         height="266.4" />
    </clipPath>
  </defs>
  <defs
     id="defs274">
    <clipPath
       id="p5782faec2d"
       style="white-space:pre;stroke-linecap:butt;stroke-linejoin:round">
      <rect
         height="266.39999"
         width="316.79999"
         x="0"
         y="0"
         id="rect271"
         style="white-space:pre;stroke-linecap:butt;stroke-linejoin:round" />
    </clipPath>
  </defs>
  <g
     id="figure_1-7"
     style="white-space:pre;stroke-linecap:butt;stroke-linejoin:round"
     transform="translate(29.379662,-4.7033706)">
    <g
       id="patch_1-0"
       style="white-space:pre;stroke-linecap:butt;stroke-linejoin:round">
      <path
         id="path1023"
         style="white-space:pre;fill:#ffffff;stroke-linecap:butt;stroke-linejoin:round"
         d="M 0,266.4 H 316.8 V 0 H 0 Z"
         inkscape:connector-curvature="0" />
    </g>
    <g
       id="axes_1-6"
       style="white-space:pre;stroke-linecap:butt;stroke-linejoin:round">
      <g
         id="matplotlib.axis_1-1"
         style="white-space:pre;stroke-linecap:butt;stroke-linejoin:round">
        <g
           id="xtick_1-1"
           style="white-space:pre;stroke-linecap:butt;stroke-linejoin:round">
          <g
             id="line2d_1-7"
             style="white-space:pre;stroke-linecap:butt;stroke-linejoin:round">
            <defs
               id="defs1027">
              <path
                 style="white-space:pre;stroke:#000000;stroke-width:0.80000001;stroke-linecap:butt;stroke-linejoin:round"
                 id="path1310"
                 d="M 0,0 V 3.5"
                 inkscape:connector-curvature="0" />
            </defs>
            <g
               id="g1031"
               style="white-space:pre;stroke-linecap:butt;stroke-linejoin:round">
              <use
                 id="use1029"
                 y="266.39999"
                 xlink:href="#m393e09d9e0"
                 x="11.225826"
                 style="white-space:pre;stroke:#000000;stroke-width:0.80000001;stroke-linecap:butt;stroke-linejoin:round"
                 width="100%"
                 height="100%" />
            </g>
          </g>
          <g
             id="text_1-4"
             style="white-space:pre;stroke-linecap:butt;stroke-linejoin:round">
            <!-- 0.0 -->
            <defs
               id="defs1036">
              <path
                 id="path1316"
                 d="m 31.78125,66.40625 q -7.609375,0 -11.453125,-7.5 Q 16.5,51.421875 16.5,36.375 q 0,-14.984375 3.828125,-22.484375 3.84375,-7.5 11.453125,-7.5 7.671875,0 11.5,7.5 3.84375,7.5 3.84375,22.484375 0,15.046875 -3.84375,22.53125 -3.828125,7.5 -11.5,7.5 z m 0,7.8125 q 12.265625,0 18.734375,-9.703125 6.46875,-9.6875 6.46875,-28.140625 0,-18.40625 -6.46875,-28.109375 -6.46875,-9.6875 -18.734375,-9.6875 -12.25,0 -18.71875,9.6875 Q 6.59375,17.96875 6.59375,36.375 q 0,18.453125 6.46875,28.140625 6.46875,9.703125 18.71875,9.703125 z"
                 inkscape:connector-curvature="0"
                 style="white-space:pre;stroke-linecap:butt;stroke-linejoin:round" />
              <path
                 id="path1318"
                 d="M 10.6875,12.40625 H 21 V 0 H 10.6875 Z"
                 inkscape:connector-curvature="0"
                 style="white-space:pre;stroke-linecap:butt;stroke-linejoin:round" />
            </defs>
            <g
               id="g1044"
               transform="matrix(0.1,0,0,-0.1,3.274263,280.99844)"
               style="white-space:pre;stroke-linecap:butt;stroke-linejoin:round">
              <use
                 id="use1038"
                 xlink:href="#DejaVuSans-48-2"
                 style="white-space:pre;stroke-linecap:butt;stroke-linejoin:round"
                 x="0"
                 y="0"
                 width="100%"
                 height="100%" />
              <use
                 id="use1040"
                 xlink:href="#DejaVuSans-46-3"
                 x="63.623047"
                 style="white-space:pre;stroke-linecap:butt;stroke-linejoin:round"
                 y="0"
                 width="100%"
                 height="100%" />
              <use
                 id="use1042"
                 xlink:href="#DejaVuSans-48-2"
                 x="95.410156"
                 style="white-space:pre;stroke-linecap:butt;stroke-linejoin:round"
                 y="0"
                 width="100%"
                 height="100%" />
            </g>
          </g>
        </g>
        <g
           id="xtick_2-1"
           style="white-space:pre;stroke-linecap:butt;stroke-linejoin:round">
          <g
             id="line2d_2-9"
             style="white-space:pre;stroke-linecap:butt;stroke-linejoin:round">
            <g
               id="g1050"
               style="white-space:pre;stroke-linecap:butt;stroke-linejoin:round">
              <use
                 id="use1048"
                 y="266.39999"
                 xlink:href="#m393e09d9e0"
                 x="63.456276"
                 style="white-space:pre;stroke:#000000;stroke-width:0.80000001;stroke-linecap:butt;stroke-linejoin:round"
                 width="100%"
                 height="100%" />
            </g>
          </g>
          <g
             id="text_2-5"
             style="white-space:pre;stroke-linecap:butt;stroke-linejoin:round">
            <!-- 0.2 -->
            <defs
               id="defs1054">
              <path
                 id="path1330"
                 d="M 19.1875,8.296875 H 53.609375 V 0 H 7.328125 v 8.296875 q 5.609375,5.8125 15.296875,15.59375 9.703125,9.796875 12.1875,12.640625 4.734375,5.3125 6.609375,9 1.890625,3.6875 1.890625,7.25 0,5.8125 -4.078125,9.46875 -4.078125,3.671875 -10.625,3.671875 -4.640625,0 -9.796875,-1.609375 -5.140625,-1.609375 -11,-4.890625 v 9.96875 Q 13.765625,71.78125 18.9375,73 q 5.1875,1.21875 9.484375,1.21875 11.328125,0 18.0625,-5.671875 6.734375,-5.65625 6.734375,-15.125 0,-4.5 -1.6875,-8.53125 Q 49.859375,40.875 45.40625,35.40625 44.1875,33.984375 37.640625,27.21875 31.109375,20.453125 19.1875,8.296875 Z"
                 inkscape:connector-curvature="0"
                 style="white-space:pre;stroke-linecap:butt;stroke-linejoin:round" />
            </defs>
            <g
               id="g1062"
               transform="matrix(0.1,0,0,-0.1,55.504713,280.99844)"
               style="white-space:pre;stroke-linecap:butt;stroke-linejoin:round">
              <use
                 id="use1056"
                 xlink:href="#DejaVuSans-48-2"
                 style="white-space:pre;stroke-linecap:butt;stroke-linejoin:round"
                 x="0"
                 y="0"
                 width="100%"
                 height="100%" />
              <use
                 id="use1058"
                 xlink:href="#DejaVuSans-46-3"
                 x="63.623047"
                 style="white-space:pre;stroke-linecap:butt;stroke-linejoin:round"
                 y="0"
                 width="100%"
                 height="100%" />
              <use
                 id="use1060"
                 xlink:href="#DejaVuSans-50-47"
                 x="95.410156"
                 style="white-space:pre;stroke-linecap:butt;stroke-linejoin:round"
                 y="0"
                 width="100%"
                 height="100%" />
            </g>
          </g>
        </g>
        <g
           id="xtick_3-0"
           style="white-space:pre;stroke-linecap:butt;stroke-linejoin:round">
          <g
             id="line2d_3-7"
             style="white-space:pre;stroke-linecap:butt;stroke-linejoin:round">
            <g
               id="g1068"
               style="white-space:pre;stroke-linecap:butt;stroke-linejoin:round">
              <use
                 id="use1066"
                 y="266.39999"
                 xlink:href="#m393e09d9e0"
                 x="115.68673"
                 style="white-space:pre;stroke:#000000;stroke-width:0.80000001;stroke-linecap:butt;stroke-linejoin:round"
                 width="100%"
                 height="100%" />
            </g>
          </g>
          <g
             id="text_3-9"
             style="white-space:pre;stroke-linecap:butt;stroke-linejoin:round">
            <!-- 0.4 -->
            <defs
               id="defs1072">
              <path
                 id="path1342"
                 d="M 37.796875,64.3125 12.890625,25.390625 h 24.90625 z m -2.59375,8.59375 h 12.40625 V 25.390625 h 10.40625 V 17.1875 H 47.609375 V 0 h -9.8125 V 17.1875 H 4.890625 v 9.515625 z"
                 inkscape:connector-curvature="0"
                 style="white-space:pre;stroke-linecap:butt;stroke-linejoin:round" />
            </defs>
            <g
               id="g1080"
               transform="matrix(0.1,0,0,-0.1,107.73516,280.99844)"
               style="white-space:pre;stroke-linecap:butt;stroke-linejoin:round">
              <use
                 id="use1074"
                 xlink:href="#DejaVuSans-48-2"
                 style="white-space:pre;stroke-linecap:butt;stroke-linejoin:round"
                 x="0"
                 y="0"
                 width="100%"
                 height="100%" />
              <use
                 id="use1076"
                 xlink:href="#DejaVuSans-46-3"
                 x="63.623047"
                 style="white-space:pre;stroke-linecap:butt;stroke-linejoin:round"
                 y="0"
                 width="100%"
                 height="100%" />
              <use
                 id="use1078"
                 xlink:href="#DejaVuSans-52-57"
                 x="95.410156"
                 style="white-space:pre;stroke-linecap:butt;stroke-linejoin:round"
                 y="0"
                 width="100%"
                 height="100%" />
            </g>
          </g>
        </g>
        <g
           id="xtick_4-4"
           style="white-space:pre;stroke-linecap:butt;stroke-linejoin:round">
          <g
             id="line2d_4-6"
             style="white-space:pre;stroke-linecap:butt;stroke-linejoin:round">
            <g
               id="g1086"
               style="white-space:pre;stroke-linecap:butt;stroke-linejoin:round">
              <use
                 id="use1084"
                 y="266.39999"
                 xlink:href="#m393e09d9e0"
                 x="167.91718"
                 style="white-space:pre;stroke:#000000;stroke-width:0.80000001;stroke-linecap:butt;stroke-linejoin:round"
                 width="100%"
                 height="100%" />
            </g>
          </g>
          <g
             id="text_4-4"
             style="white-space:pre;stroke-linecap:butt;stroke-linejoin:round">
            <!-- 0.6 -->
            <defs
               id="defs1090">
              <path
                 id="path1354"
                 d="m 33.015625,40.375 q -6.640625,0 -10.53125,-4.546875 -3.875,-4.53125 -3.875,-12.4375 0,-7.859375 3.875,-12.4375 3.890625,-4.5625 10.53125,-4.5625 6.640625,0 10.515625,4.5625 3.875,4.578125 3.875,12.4375 0,7.90625 -3.875,12.4375 Q 39.65625,40.375 33.015625,40.375 Z M 52.59375,71.296875 V 62.3125 q -3.71875,1.75 -7.5,2.671875 -3.78125,0.9375 -7.5,0.9375 -9.765625,0 -14.921875,-6.59375 -5.140625,-6.59375 -5.875,-19.921875 2.875,4.25 7.21875,6.515625 4.359375,2.265625 9.578125,2.265625 10.984375,0 17.359375,-6.671875 6.375,-6.65625 6.375,-18.125 0,-11.234375 -6.640625,-18.03125 -6.640625,-6.78125 -17.671875,-6.78125 -12.65625,0 -19.34375,9.6875 -6.6875,9.703125 -6.6875,28.109375 0,17.28125 8.203125,27.5625 8.203125,10.28125 22.015625,10.28125 3.71875,0 7.5,-0.734375 3.78125,-0.734375 7.890625,-2.1875 z"
                 inkscape:connector-curvature="0"
                 style="white-space:pre;stroke-linecap:butt;stroke-linejoin:round" />
            </defs>
            <g
               id="g1098"
               transform="matrix(0.1,0,0,-0.1,159.96561,280.99844)"
               style="white-space:pre;stroke-linecap:butt;stroke-linejoin:round">
              <use
                 id="use1092"
                 xlink:href="#DejaVuSans-48-2"
                 style="white-space:pre;stroke-linecap:butt;stroke-linejoin:round"
                 x="0"
                 y="0"
                 width="100%"
                 height="100%" />
              <use
                 id="use1094"
                 xlink:href="#DejaVuSans-46-3"
                 x="63.623047"
                 style="white-space:pre;stroke-linecap:butt;stroke-linejoin:round"
                 y="0"
                 width="100%"
                 height="100%" />
              <use
                 id="use1096"
                 xlink:href="#DejaVuSans-54-2"
                 x="95.410156"
                 style="white-space:pre;stroke-linecap:butt;stroke-linejoin:round"
                 y="0"
                 width="100%"
                 height="100%" />
            </g>
          </g>
        </g>
        <g
           id="xtick_5-3"
           style="white-space:pre;stroke-linecap:butt;stroke-linejoin:round">
          <g
             id="line2d_5-3"
             style="white-space:pre;stroke-linecap:butt;stroke-linejoin:round">
            <g
               id="g1104"
               style="white-space:pre;stroke-linecap:butt;stroke-linejoin:round">
              <use
                 id="use1102"
                 y="266.39999"
                 xlink:href="#m393e09d9e0"
                 x="220.14763"
                 style="white-space:pre;stroke:#000000;stroke-width:0.80000001;stroke-linecap:butt;stroke-linejoin:round"
                 width="100%"
                 height="100%" />
            </g>
          </g>
          <g
             id="text_5-2"
             style="white-space:pre;stroke-linecap:butt;stroke-linejoin:round">
            <!-- 0.8 -->
            <defs
               id="defs1108">
              <path
                 id="path1366"
                 d="m 31.78125,34.625 q -7.03125,0 -11.0625,-3.765625 -4.015625,-3.765625 -4.015625,-10.34375 0,-6.59375 4.015625,-10.359375 4.03125,-3.765625 11.0625,-3.765625 7.03125,0 11.078125,3.78125 4.0625,3.796875 4.0625,10.34375 0,6.578125 -4.03125,10.34375 Q 38.875,34.625 31.78125,34.625 Z m -9.859375,4.1875 Q 15.578125,40.375 12.03125,44.71875 8.5,49.078125 8.5,55.328125 q 0,8.734375 6.21875,13.8125 6.234375,5.078125 17.0625,5.078125 10.890625,0 17.09375,-5.078125 6.203125,-5.078125 6.203125,-13.8125 0,-6.25 -3.546875,-10.609375 Q 48,40.375 41.703125,38.8125 q 7.125,-1.65625 11.09375,-6.5 3.984375,-4.828125 3.984375,-11.796875 0,-10.609375 -6.46875,-16.28125 -6.46875,-5.65625 -18.53125,-5.65625 -12.046875,0 -18.53125,5.65625 -6.46875,5.671875 -6.46875,16.28125 0,6.96875 4,11.796875 4.015625,4.84375 11.140625,6.5 z M 18.3125,54.390625 q 0,-5.65625 3.53125,-8.828125 3.546875,-3.171875 9.9375,-3.171875 6.359375,0 9.9375,3.171875 3.59375,3.171875 3.59375,8.828125 0,5.671875 -3.59375,8.84375 -3.578125,3.171875 -9.9375,3.171875 -6.390625,0 -9.9375,-3.171875 Q 18.3125,60.0625 18.3125,54.390625 Z"
                 inkscape:connector-curvature="0"
                 style="white-space:pre;stroke-linecap:butt;stroke-linejoin:round" />
            </defs>
            <g
               id="g1116"
               transform="matrix(0.1,0,0,-0.1,212.19606,280.99844)"
               style="white-space:pre;stroke-linecap:butt;stroke-linejoin:round">
              <use
                 id="use1110"
                 xlink:href="#DejaVuSans-48-2"
                 style="white-space:pre;stroke-linecap:butt;stroke-linejoin:round"
                 x="0"
                 y="0"
                 width="100%"
                 height="100%" />
              <use
                 id="use1112"
                 xlink:href="#DejaVuSans-46-3"
                 x="63.623047"
                 style="white-space:pre;stroke-linecap:butt;stroke-linejoin:round"
                 y="0"
                 width="100%"
                 height="100%" />
              <use
                 id="use1114"
                 xlink:href="#DejaVuSans-56-7"
                 x="95.410156"
                 style="white-space:pre;stroke-linecap:butt;stroke-linejoin:round"
                 y="0"
                 width="100%"
                 height="100%" />
            </g>
          </g>
        </g>
        <g
           id="xtick_6-3"
           style="white-space:pre;stroke-linecap:butt;stroke-linejoin:round">
          <g
             id="line2d_6-8"
             style="white-space:pre;stroke-linecap:butt;stroke-linejoin:round">
            <g
               id="g1122"
               style="white-space:pre;stroke-linecap:butt;stroke-linejoin:round">
              <use
                 id="use1120"
                 y="266.39999"
                 xlink:href="#m393e09d9e0"
                 x="272.37808"
                 style="white-space:pre;stroke:#000000;stroke-width:0.80000001;stroke-linecap:butt;stroke-linejoin:round"
                 width="100%"
                 height="100%" />
            </g>
          </g>
          <g
             id="text_6-4"
             style="white-space:pre;stroke-linecap:butt;stroke-linejoin:round">
            <!-- 1.0 -->
            <defs
               id="defs1126">
              <path
                 id="path1378"
                 d="m 12.40625,8.296875 h 16.109375 v 55.625 L 10.984375,60.40625 v 8.984375 l 17.4375,3.515625 H 38.28125 V 8.296875 H 54.390625 V 0 H 12.40625 Z"
                 inkscape:connector-curvature="0"
                 style="white-space:pre;stroke-linecap:butt;stroke-linejoin:round" />
            </defs>
            <g
               id="g1134"
               transform="matrix(0.1,0,0,-0.1,264.42651,280.99844)"
               style="white-space:pre;stroke-linecap:butt;stroke-linejoin:round">
              <use
                 id="use1128"
                 xlink:href="#DejaVuSans-49-6"
                 style="white-space:pre;stroke-linecap:butt;stroke-linejoin:round"
                 x="0"
                 y="0"
                 width="100%"
                 height="100%" />
              <use
                 id="use1130"
                 xlink:href="#DejaVuSans-46-3"
                 x="63.623047"
                 style="white-space:pre;stroke-linecap:butt;stroke-linejoin:round"
                 y="0"
                 width="100%"
                 height="100%" />
              <use
                 id="use1132"
                 xlink:href="#DejaVuSans-48-2"
                 x="95.410156"
                 style="white-space:pre;stroke-linecap:butt;stroke-linejoin:round"
                 y="0"
                 width="100%"
                 height="100%" />
            </g>
          </g>
        </g>
      </g>
      <g
         id="matplotlib.axis_2-4"
         style="white-space:pre;stroke-linecap:butt;stroke-linejoin:round">
        <g
           id="ytick_1-2"
           style="white-space:pre;stroke-linecap:butt;stroke-linejoin:round">
          <g
             id="line2d_7-9"
             style="white-space:pre;stroke-linecap:butt;stroke-linejoin:round">
            <defs
               id="defs1140">
              <path
                 style="white-space:pre;stroke:#000000;stroke-width:0.80000001;stroke-linecap:butt;stroke-linejoin:round"
                 id="path1388"
                 d="M 0,0 H -3.5"
                 inkscape:connector-curvature="0" />
            </defs>
            <g
               id="g1144"
               style="white-space:pre;stroke-linecap:butt;stroke-linejoin:round">
              <use
                 id="use1142"
                 y="266.39999"
                 xlink:href="#ma5c7b74f5d"
                 x="0"
                 style="white-space:pre;stroke:#000000;stroke-width:0.80000001;stroke-linecap:butt;stroke-linejoin:round"
                 width="100%"
                 height="100%" />
            </g>
          </g>
          <g
             id="text_7-3"
             style="white-space:pre;stroke-linecap:butt;stroke-linejoin:round">
            <!-- 0.0 -->
            <g
               id="g1153"
               transform="matrix(0.1,0,0,-0.1,-22.903125,270.19922)"
               style="white-space:pre;stroke-linecap:butt;stroke-linejoin:round">
              <use
                 id="use1147"
                 xlink:href="#DejaVuSans-48-2"
                 style="white-space:pre;stroke-linecap:butt;stroke-linejoin:round"
                 x="0"
                 y="0"
                 width="100%"
                 height="100%" />
              <use
                 id="use1149-6"
                 xlink:href="#DejaVuSans-46-3"
                 x="63.623047"
                 style="white-space:pre;stroke-linecap:butt;stroke-linejoin:round"
                 y="0"
                 width="100%"
                 height="100%" />
              <use
                 id="use1151"
                 xlink:href="#DejaVuSans-48-2"
                 x="95.410156"
                 style="white-space:pre;stroke-linecap:butt;stroke-linejoin:round"
                 y="0"
                 width="100%"
                 height="100%" />
            </g>
          </g>
        </g>
        <g
           id="ytick_2-7"
           style="white-space:pre;stroke-linecap:butt;stroke-linejoin:round">
          <g
             id="line2d_8-6"
             style="white-space:pre;stroke-linecap:butt;stroke-linejoin:round">
            <g
               id="g1159"
               style="white-space:pre;stroke-linecap:butt;stroke-linejoin:round">
              <use
                 id="use1157"
                 y="229.39999"
                 xlink:href="#ma5c7b74f5d"
                 x="0"
                 style="white-space:pre;stroke:#000000;stroke-width:0.80000001;stroke-linecap:butt;stroke-linejoin:round"
                 width="100%"
                 height="100%" />
            </g>
          </g>
          <g
             id="text_8-6"
             style="white-space:pre;stroke-linecap:butt;stroke-linejoin:round">
            <!-- 0.5 -->
            <defs
               id="defs1163">
              <path
                 id="path1403"
                 d="m 10.796875,72.90625 h 38.71875 v -8.3125 h -29.6875 V 46.734375 q 2.140625,0.734375 4.28125,1.09375 2.15625,0.359375 4.3125,0.359375 Q 40.625,48.1875 47.75,41.5 54.890625,34.8125 54.890625,23.390625 54.890625,11.625 47.5625,5.09375 40.234375,-1.421875 26.90625,-1.421875 q -4.59375,0 -9.359375,0.78125 -4.75,0.78125 -9.828125,2.34375 V 11.625 q 4.390625,-2.390625 9.078125,-3.5625 4.6875,-1.171875 9.90625,-1.171875 8.453125,0 13.375,4.4375 4.9375,4.4375 4.9375,12.0625 0,7.609375 -4.9375,12.046875 -4.921875,4.453125 -13.375,4.453125 -3.953125,0 -7.890625,-0.875 -3.921875,-0.875 -8.015625,-2.734375 z"
                 inkscape:connector-curvature="0"
                 style="white-space:pre;stroke-linecap:butt;stroke-linejoin:round" />
            </defs>
            <g
               id="g1171"
               transform="matrix(0.1,0,0,-0.1,-22.903125,233.19922)"
               style="white-space:pre;stroke-linecap:butt;stroke-linejoin:round">
              <use
                 id="use1165"
                 xlink:href="#DejaVuSans-48-2"
                 style="white-space:pre;stroke-linecap:butt;stroke-linejoin:round"
                 x="0"
                 y="0"
                 width="100%"
                 height="100%" />
              <use
                 id="use1167"
                 xlink:href="#DejaVuSans-46-3"
                 x="63.623047"
                 style="white-space:pre;stroke-linecap:butt;stroke-linejoin:round"
                 y="0"
                 width="100%"
                 height="100%" />
              <use
                 id="use1169"
                 xlink:href="#DejaVuSans-53-03"
                 x="95.410156"
                 style="white-space:pre;stroke-linecap:butt;stroke-linejoin:round"
                 y="0"
                 width="100%"
                 height="100%" />
            </g>
          </g>
        </g>
        <g
           id="ytick_3-5"
           style="white-space:pre;stroke-linecap:butt;stroke-linejoin:round">
          <g
             id="line2d_9-3"
             style="white-space:pre;stroke-linecap:butt;stroke-linejoin:round">
            <g
               id="g1177"
               style="white-space:pre;stroke-linecap:butt;stroke-linejoin:round">
              <use
                 id="use1175"
                 y="192.39999"
                 xlink:href="#ma5c7b74f5d"
                 x="0"
                 style="white-space:pre;stroke:#000000;stroke-width:0.80000001;stroke-linecap:butt;stroke-linejoin:round"
                 width="100%"
                 height="100%" />
            </g>
          </g>
          <g
             id="text_9-6"
             style="white-space:pre;stroke-linecap:butt;stroke-linejoin:round">
            <!-- 1.0 -->
            <g
               id="g1186"
               transform="matrix(0.1,0,0,-0.1,-22.903125,196.19922)"
               style="white-space:pre;stroke-linecap:butt;stroke-linejoin:round">
              <use
                 id="use1180"
                 xlink:href="#DejaVuSans-49-6"
                 style="white-space:pre;stroke-linecap:butt;stroke-linejoin:round"
                 x="0"
                 y="0"
                 width="100%"
                 height="100%" />
              <use
                 id="use1182-2"
                 xlink:href="#DejaVuSans-46-3"
                 x="63.623047"
                 style="white-space:pre;stroke-linecap:butt;stroke-linejoin:round"
                 y="0"
                 width="100%"
                 height="100%" />
              <use
                 id="use1184"
                 xlink:href="#DejaVuSans-48-2"
                 x="95.410156"
                 style="white-space:pre;stroke-linecap:butt;stroke-linejoin:round"
                 y="0"
                 width="100%"
                 height="100%" />
            </g>
          </g>
        </g>
        <g
           id="ytick_4-9"
           style="white-space:pre;stroke-linecap:butt;stroke-linejoin:round">
          <g
             id="line2d_10-6"
             style="white-space:pre;stroke-linecap:butt;stroke-linejoin:round">
            <g
               id="g1192"
               style="white-space:pre;stroke-linecap:butt;stroke-linejoin:round">
              <use
                 id="use1190"
                 y="155.39999"
                 xlink:href="#ma5c7b74f5d"
                 x="0"
                 style="white-space:pre;stroke:#000000;stroke-width:0.80000001;stroke-linecap:butt;stroke-linejoin:round"
                 width="100%"
                 height="100%" />
            </g>
          </g>
          <g
             id="text_10-5"
             style="white-space:pre;stroke-linecap:butt;stroke-linejoin:round">
            <!-- 1.5 -->
            <g
               id="g1201"
               transform="matrix(0.1,0,0,-0.1,-22.903125,159.19922)"
               style="white-space:pre;stroke-linecap:butt;stroke-linejoin:round">
              <use
                 id="use1195"
                 xlink:href="#DejaVuSans-49-6"
                 style="white-space:pre;stroke-linecap:butt;stroke-linejoin:round"
                 x="0"
                 y="0"
                 width="100%"
                 height="100%" />
              <use
                 id="use1197-7"
                 xlink:href="#DejaVuSans-46-3"
                 x="63.623047"
                 style="white-space:pre;stroke-linecap:butt;stroke-linejoin:round"
                 y="0"
                 width="100%"
                 height="100%" />
              <use
                 id="use1199"
                 xlink:href="#DejaVuSans-53-03"
                 x="95.410156"
                 style="white-space:pre;stroke-linecap:butt;stroke-linejoin:round"
                 y="0"
                 width="100%"
                 height="100%" />
            </g>
          </g>
        </g>
        <g
           id="ytick_5-6"
           style="white-space:pre;stroke-linecap:butt;stroke-linejoin:round">
          <g
             id="line2d_11-7"
             style="white-space:pre;stroke-linecap:butt;stroke-linejoin:round">
            <g
               id="g1207"
               style="white-space:pre;stroke-linecap:butt;stroke-linejoin:round">
              <use
                 id="use1205"
                 y="118.4"
                 xlink:href="#ma5c7b74f5d"
                 x="0"
                 style="white-space:pre;stroke:#000000;stroke-width:0.80000001;stroke-linecap:butt;stroke-linejoin:round"
                 width="100%"
                 height="100%" />
            </g>
          </g>
          <g
             id="text_11-5"
             style="white-space:pre;stroke-linecap:butt;stroke-linejoin:round">
            <!-- 2.0 -->
            <g
               id="g1216"
               transform="matrix(0.1,0,0,-0.1,-22.903125,122.19922)"
               style="white-space:pre;stroke-linecap:butt;stroke-linejoin:round">
              <use
                 id="use1210"
                 xlink:href="#DejaVuSans-50-47"
                 style="white-space:pre;stroke-linecap:butt;stroke-linejoin:round"
                 x="0"
                 y="0"
                 width="100%"
                 height="100%" />
              <use
                 id="use1212-1"
                 xlink:href="#DejaVuSans-46-3"
                 x="63.623047"
                 style="white-space:pre;stroke-linecap:butt;stroke-linejoin:round"
                 y="0"
                 width="100%"
                 height="100%" />
              <use
                 id="use1214"
                 xlink:href="#DejaVuSans-48-2"
                 x="95.410156"
                 style="white-space:pre;stroke-linecap:butt;stroke-linejoin:round"
                 y="0"
                 width="100%"
                 height="100%" />
            </g>
          </g>
        </g>
        <g
           id="ytick_6-1"
           style="white-space:pre;stroke-linecap:butt;stroke-linejoin:round">
          <g
             id="line2d_12-7"
             style="white-space:pre;stroke-linecap:butt;stroke-linejoin:round">
            <g
               id="g1222"
               style="white-space:pre;stroke-linecap:butt;stroke-linejoin:round">
              <use
                 id="use1220"
                 y="81.400002"
                 xlink:href="#ma5c7b74f5d"
                 x="0"
                 style="white-space:pre;stroke:#000000;stroke-width:0.80000001;stroke-linecap:butt;stroke-linejoin:round"
                 width="100%"
                 height="100%" />
            </g>
          </g>
          <g
             id="text_12-5"
             style="white-space:pre;stroke-linecap:butt;stroke-linejoin:round">
            <!-- 2.5 -->
            <g
               id="g1231"
               transform="matrix(0.1,0,0,-0.1,-22.903125,85.199219)"
               style="white-space:pre;stroke-linecap:butt;stroke-linejoin:round">
              <use
                 id="use1225"
                 xlink:href="#DejaVuSans-50-47"
                 style="white-space:pre;stroke-linecap:butt;stroke-linejoin:round"
                 x="0"
                 y="0"
                 width="100%"
                 height="100%" />
              <use
                 id="use1227-6"
                 xlink:href="#DejaVuSans-46-3"
                 x="63.623047"
                 style="white-space:pre;stroke-linecap:butt;stroke-linejoin:round"
                 y="0"
                 width="100%"
                 height="100%" />
              <use
                 id="use1229"
                 xlink:href="#DejaVuSans-53-03"
                 x="95.410156"
                 style="white-space:pre;stroke-linecap:butt;stroke-linejoin:round"
                 y="0"
                 width="100%"
                 height="100%" />
            </g>
          </g>
        </g>
        <g
           id="ytick_7"
           style="white-space:pre;stroke-linecap:butt;stroke-linejoin:round">
          <g
             id="line2d_13-4"
             style="white-space:pre;stroke-linecap:butt;stroke-linejoin:round">
            <g
               id="g1237"
               style="white-space:pre;stroke-linecap:butt;stroke-linejoin:round">
              <use
                 id="use1235"
                 y="44.400002"
                 xlink:href="#ma5c7b74f5d"
                 x="0"
                 style="white-space:pre;stroke:#000000;stroke-width:0.80000001;stroke-linecap:butt;stroke-linejoin:round"
                 width="100%"
                 height="100%" />
            </g>
          </g>
          <g
             id="text_13"
             style="white-space:pre;stroke-linecap:butt;stroke-linejoin:round">
            <!-- 3.0 -->
            <defs
               id="defs1241">
              <path
                 id="path1451"
                 d="M 40.578125,39.3125 Q 47.65625,37.796875 51.625,33 q 3.984375,-4.78125 3.984375,-11.8125 0,-10.78125 -7.421875,-16.703125 -7.421875,-5.90625 -21.09375,-5.90625 -4.578125,0 -9.4375,0.90625 -4.859375,0.90625 -10.03125,2.71875 v 9.515625 q 4.09375,-2.390625 8.96875,-3.609375 4.890625,-1.21875 10.21875,-1.21875 9.265625,0 14.125,3.65625 4.859375,3.65625 4.859375,10.640625 0,6.453125 -4.515625,10.078125 -4.515625,3.640625 -12.5625,3.640625 h -8.5 v 8.109375 h 8.890625 q 7.265625,0 11.125,2.90625 3.859375,2.90625 3.859375,8.375 0,5.609375 -3.984375,8.609375 -3.96875,3.015625 -11.390625,3.015625 -4.0625,0 -8.703125,-0.890625 Q 15.375,64.15625 9.8125,62.3125 v 8.78125 q 5.625,1.5625 10.53125,2.34375 4.90625,0.78125 9.25,0.78125 11.234375,0 17.765625,-5.109375 6.546875,-5.09375 6.546875,-13.78125 0,-6.0625 -3.46875,-10.234375 -3.46875,-4.171875 -9.859375,-5.78125 z"
                 inkscape:connector-curvature="0"
                 style="white-space:pre;stroke-linecap:butt;stroke-linejoin:round" />
            </defs>
            <g
               id="g1249"
               transform="matrix(0.1,0,0,-0.1,-22.903125,48.199219)"
               style="white-space:pre;stroke-linecap:butt;stroke-linejoin:round">
              <use
                 id="use1243"
                 xlink:href="#DejaVuSans-51-0"
                 style="white-space:pre;stroke-linecap:butt;stroke-linejoin:round"
                 x="0"
                 y="0"
                 width="100%"
                 height="100%" />
              <use
                 id="use1245"
                 xlink:href="#DejaVuSans-46-3"
                 x="63.623047"
                 style="white-space:pre;stroke-linecap:butt;stroke-linejoin:round"
                 y="0"
                 width="100%"
                 height="100%" />
              <use
                 id="use1247"
                 xlink:href="#DejaVuSans-48-2"
                 x="95.410156"
                 style="white-space:pre;stroke-linecap:butt;stroke-linejoin:round"
                 y="0"
                 width="100%"
                 height="100%" />
            </g>
          </g>
        </g>
        <g
           id="ytick_8"
           style="white-space:pre;stroke-linecap:butt;stroke-linejoin:round">
          <g
             id="line2d_14-6"
             style="white-space:pre;stroke-linecap:butt;stroke-linejoin:round">
            <g
               id="g1255"
               style="white-space:pre;stroke-linecap:butt;stroke-linejoin:round">
              <use
                 id="use1253"
                 y="7.4000001"
                 xlink:href="#ma5c7b74f5d"
                 x="0"
                 style="white-space:pre;stroke:#000000;stroke-width:0.80000001;stroke-linecap:butt;stroke-linejoin:round"
                 width="100%"
                 height="100%" />
            </g>
          </g>
          <g
             id="text_14"
             style="white-space:pre;stroke-linecap:butt;stroke-linejoin:round">
            <!-- 3.5 -->
            <g
               id="g1264"
               transform="matrix(0.1,0,0,-0.1,-22.903125,11.199219)"
               style="white-space:pre;stroke-linecap:butt;stroke-linejoin:round">
              <use
                 id="use1258"
                 xlink:href="#DejaVuSans-51-0"
                 style="white-space:pre;stroke-linecap:butt;stroke-linejoin:round"
                 x="0"
                 y="0"
                 width="100%"
                 height="100%" />
              <use
                 id="use1260"
                 xlink:href="#DejaVuSans-46-3"
                 x="63.623047"
                 style="white-space:pre;stroke-linecap:butt;stroke-linejoin:round"
                 y="0"
                 width="100%"
                 height="100%" />
              <use
                 id="use1262"
                 xlink:href="#DejaVuSans-53-03"
                 x="95.410156"
                 style="white-space:pre;stroke-linecap:butt;stroke-linejoin:round"
                 y="0"
                 width="100%"
                 height="100%" />
            </g>
          </g>
        </g>
      </g>
      <g
         id="line2d_15-3"
         style="white-space:pre;stroke-linecap:butt;stroke-linejoin:round">
        <path
           id="path1269"
           style="white-space:pre;fill:none;stroke:#1f77b4;stroke-width:1.5;stroke-linecap:square;stroke-linejoin:round"
           d="m 14.4,266.29697 2.48974,-0.1432 2.489741,-0.30678 2.48974,-0.61514 2.48974,-1.15497 2.48974,-2.03149 2.489741,-3.34935 2.48974,-5.17975 2.48974,-7.52048 2.489741,-10.26264 2.48974,-13.1815 2.48974,-15.96368 2.48974,-18.26839 2.489741,-19.80361 2.48974,-20.38842 2.48974,-19.978 2.489741,-18.64575 2.48974,-16.538454 2.48974,-13.830855 2.48974,-10.700694 2.489741,-7.327758 2.48974,-3.904362 2.48974,-0.639314 2.489741,2.255362 2.48974,4.593213 2.48974,6.246992 2.48974,7.175134 2.489741,7.43297 2.48974,7.164917 2.48974,6.576934 2.489741,5.891705 2.48974,5.29505 2.48974,4.88905 2.48974,4.67037 2.489741,4.54578 2.48974,4.38227 2.48974,4.07197 2.48974,3.58485 2.48974,2.9848 2.48974,2.40129 2.48974,1.96593 2.48974,1.73881 2.48974,1.65447 2.48974,1.51405 2.48974,1.03545 2.48974,-0.0453 2.48974,-1.84925 2.48974,-4.24921 2.48974,-6.82871 2.48974,-8.93708 2.48974,-9.84314 2.48974,-8.95234 2.48974,-6.02045 2.48974,-1.28402 2.48974,4.55181 2.48975,10.47972 2.48974,15.46125 2.48974,18.7084 2.48974,19.87509 2.48974,19.09677 2.48974,16.87965 2.48974,13.89943 2.48974,10.7945 2.48974,8.02323 2.48974,5.8148 2.48974,4.19972 2.48974,3.08257 2.48974,2.31806 2.48974,1.76632 2.48974,1.32201 2.48974,0.92218 2.48974,0.54239 2.48974,0.18648 2.48974,-0.12585 2.48974,-0.37163 2.48974,-0.53434 2.48974,-0.60867 2.48974,-0.60011 2.48974,-0.52113 2.48974,-0.38708 2.48974,-0.21358 2.48974,-0.0154 2.48974,0.19442 2.48974,0.40492 2.48974,0.60767 2.48974,0.7954 2.48974,0.95928 2.48974,1.08704 2.48974,1.1637 2.48974,1.17612 2.48975,1.11887 2.48974,0.99864 2.48974,0.83395 2.48974,0.65026 2.48974,0.47279 2.48974,0.32027 2.48974,0.20205 2.48974,0.11868 2.48974,0.0649 2.48974,0.0331"
           clip-path="url(#pd50bee9ec1)"
           inkscape:connector-curvature="0" />
      </g>
      <g
         id="line2d_16-5"
         style="white-space:pre;stroke-linecap:butt;stroke-linejoin:round">
        <path
           id="path1272"
           style="white-space:pre;fill:none;stroke:#ff7f0e;stroke-width:1.5;stroke-linecap:square;stroke-linejoin:round"
           d="m 16.055599,266.37487 2.892368,-0.0428 2.892368,-0.10324 2.892367,-0.2312 2.892368,-0.48094 2.892368,-0.92996 2.892367,-1.67263 2.892368,-2.80041 2.892368,-4.36782 2.892367,-6.35089 2.892368,-8.61321 2.892368,-10.89803 2.892367,-12.86009 2.892368,-14.137 2.892368,-14.44363 2.892368,-13.65991 2.892367,-11.88038 2.892368,-9.40412 2.892368,-6.66312 2.892367,-4.10909 2.892368,-2.0956 2.892368,-0.7943 2.892367,-0.17333 2.892368,-0.0408 2.892368,-0.13291 2.892367,-0.20851 2.892368,-0.11624 2.892368,0.1858 2.892367,0.65286 2.892368,1.19828 2.892368,1.73565 2.89237,2.20081 2.89237,2.54907 2.89236,2.73516 2.89237,2.69044 2.89237,2.31413 2.89237,1.49028 2.89236,0.13243 2.89237,-1.75338 2.89237,-4.00928 2.89237,-6.30156 2.89236,-8.16276 2.89237,-9.11019 2.89237,-8.81142 2.89237,-7.22761 2.89236,-4.65695 2.89237,-1.64063 2.89237,1.23407 2.89237,3.54188 2.89237,5.1411 2.89236,6.16094 2.89237,6.877 2.89237,7.54712 2.89237,8.28655 2.89236,9.03234 2.89237,9.59913 2.89237,9.78852 2.89237,9.49299 2.89236,8.74609 2.89237,7.70128 2.89237,6.56091 2.89237,5.49704 2.89237,4.60287 2.89236,3.88927 2.89237,3.31558 2.89237,2.83078 2.89237,2.40293 2.89236,2.02768 2.89237,1.71894 2.89237,1.49253 2.89237,1.35382 2.89236,1.29555 2.89237,1.3036 2.89237,1.36394 2.89237,1.46396 2.89237,1.58729 2.89236,1.70778 2.89237,1.78938 2.89237,1.7947 2.89237,1.69815 2.89236,1.49608 2.89237,1.2092 2.89237,0.87813 2.89237,0.55666 2.89236,0.30536 2.89237,0.18386 2.89237,0.23681 2.89237,0.47423 2.89236,0.85505 2.89237,1.28783 2.89237,1.65583 2.89237,1.85854 2.89237,1.84888 2.89236,1.64639 2.89237,1.32108 2.89237,0.95959 2.89237,0.63304 2.89237,0.38022 2.89236,0.20828 2.89237,0.10421"
           clip-path="url(#pd50bee9ec1)"
           inkscape:connector-curvature="0" />
      </g>
      <g
         id="line2d_17"
         style="white-space:pre;stroke-linecap:butt;stroke-linejoin:round">
        <path
           id="path1275"
           style="white-space:pre;fill:none;stroke:#2ca02c;stroke-width:1.5;stroke-linecap:square;stroke-linejoin:round"
           d="m 15.896602,266.39003 2.892431,-0.0167 2.892431,-0.04 2.892431,-0.0889 2.892431,-0.18435 2.892431,-0.35687 2.892431,-0.64602 2.892431,-1.09566 2.892431,-1.74431 2.892431,-2.61136 2.892431,-3.68155 2.892431,-4.89209 2.892431,-6.1273 2.892431,-7.22631 2.892431,-8.00775 2.892431,-8.3112 2.892431,-8.04747 2.892432,-7.24043 2.892431,-6.04021 2.892431,-4.6936 2.892431,-3.47638 2.892431,-2.61028 2.892431,-2.19694 2.892431,-2.19513 2.892431,-2.44841 2.892431,-2.75025 2.892431,-2.91934 2.892431,-2.85635 2.892431,-2.56252 2.892431,-2.11849 2.892428,-1.63854 2.89243,-1.22453 2.89244,-0.9392 2.89243,-0.80484 2.89243,-0.81971 2.89243,-0.97863 2.89243,-1.28731 2.89243,-1.7647 2.89243,-2.43006 2.89243,-3.27433 2.89243,-4.22402 2.89243,-5.11806 2.89244,-5.72333 2.89243,-5.8004 2.89243,-5.20051 2.89243,-3.94623 2.89243,-2.24673 2.89243,-0.42883 2.89243,1.18793 2.89243,2.41203 2.89243,3.23769 2.89243,3.81438 2.89244,4.34829 2.89243,4.98734 2.89243,5.74543 2.89243,6.49733 2.89243,7.04027 2.89243,7.18724 2.89243,6.84808 2.89243,6.06589 2.89243,5.0001 2.89243,3.87066 2.89244,2.88925 2.89243,2.20366 2.89243,1.8705 2.89243,1.85883 2.89243,2.07598 2.89243,2.40195 2.89243,2.72111 2.89243,2.9441 2.89243,3.01849 2.89244,2.92847 2.89243,2.68632 2.89243,2.31973 2.89243,1.8599 2.89243,1.33502 2.89243,0.76937 2.89243,0.18449 2.89243,-0.40242 2.89243,-0.9836 2.89243,-1.56316 2.89244,-2.14656 2.89243,-2.71177 2.89243,-3.17034 2.89243,-3.34319 2.89243,-2.98386 2.89243,-1.86702 2.89243,0.0793 2.89243,2.664 2.89243,5.42437 2.89244,7.7566 2.89243,9.1368 2.89243,9.32161 2.89243,8.42131 2.89243,6.81614 2.89243,4.97707 2.89243,3.29318 2.89243,1.98048 2.89243,1.08489 2.89243,0.54217"
           clip-path="url(#pd50bee9ec1)"
           inkscape:connector-curvature="0" />
      </g>
      <g
         id="line2d_18"
         style="white-space:pre;stroke-linecap:butt;stroke-linejoin:round">
        <path
           id="path1278"
           style="white-space:pre;fill:none;stroke:#d62728;stroke-width:1.5;stroke-linecap:square;stroke-linejoin:round"
           d="m 17.744671,266.39728 2.854264,-0.005 2.854264,-0.0136 2.854265,-0.0335 2.854264,-0.0768 2.854264,-0.16457 2.854264,-0.32862 2.854264,-0.61098 2.854264,-1.05685 2.854264,-1.70028 2.854264,-2.5452 2.854264,-3.54874 2.854265,-4.61614 2.854264,-5.61313 2.854264,-6.39385 2.854264,-6.83533 2.854264,-6.8673 2.854264,-6.49044 2.854264,-5.78033 2.854264,-4.87663 2.854265,-3.95645 2.854264,-3.19189 2.854264,-2.7003 2.854264,-2.5039 2.854264,-2.51962 2.854264,-2.58996 2.854264,-2.54761 2.854264,-2.2869 2.854264,-1.80887 2.854264,-1.21692 2.85427,-0.66553 2.85426,-0.29001 2.85426,-0.15564 2.85427,-0.25227 2.85426,-0.53209 2.85427,-0.96251 2.85426,-1.55829 2.85426,-2.37094 2.85427,-3.43793 2.85426,-4.71759 2.85427,-6.04669 2.85426,-7.1534 2.85426,-7.73535 2.85427,-7.57542 2.85426,-6.63732 2.85427,-5.08417 2.85426,-3.20558 2.85426,-1.29579 2.85427,0.44695 2.85426,1.9503 2.85427,3.22823 2.85426,4.31251 2.85426,5.20254 2.85427,5.85809 2.85426,6.22965 2.85427,6.29922 2.85426,6.10132 2.85427,5.711 2.85426,5.21024 2.85426,4.65965 2.85427,4.09497 2.85426,3.54589 2.85427,3.05407 2.85426,2.67013 2.85426,2.42744 2.85427,2.313 2.85426,2.2603 2.85427,2.1745 2.85426,1.97808 2.85426,1.65077 2.85427,1.24094 2.85426,0.84297 2.85427,0.55344 2.85426,0.42873 2.85427,0.46266 2.85426,0.59097 2.85426,0.71596 2.85427,0.73657 2.85426,0.56816 2.85427,0.14272 2.85426,-0.60734 2.85426,-1.76211 2.85427,-3.39058 2.85426,-5.46233 2.85427,-7.70802 2.85426,-9.51347 2.85426,-9.98189 2.85427,-8.25023 2.85426,-3.97514 2.85427,2.28584 2.85426,9.10326 2.85427,14.69785 2.85426,17.69831 2.85426,17.69236 2.85427,15.26794 2.85426,11.58824 2.85427,7.81626 2.85426,4.71506 2.85426,2.55443 2.85427,1.24647"
           clip-path="url(#pd50bee9ec1)"
           inkscape:connector-curvature="0" />
      </g>
    </g>
  </g>
  <rect
     style="white-space:pre;fill:#ffffff;fill-opacity:1;stroke:none;stroke-width:1.02137113;stroke-linecap:butt;stroke-linejoin:round;stroke-miterlimit:4;stroke-dasharray:none;stroke-dashoffset:0;stroke-opacity:1"
     id="rect1121-9"
     width="40.072868"
     height="136.58644"
     x="302.80423"
     y="128.5246" />
  <rect
     style="white-space:pre;fill:#ffffff;fill-opacity:1;stroke:none;stroke-width:1.10368145;stroke-linecap:butt;stroke-linejoin:round;stroke-miterlimit:4;stroke-dasharray:none;stroke-dashoffset:0;stroke-opacity:1"
     id="rect1121-9-3"
     width="334.08133"
     height="19.130493"
     x="23.065916"
     y="267.02002" />
  <path
     style="white-space:pre;fill:none;stroke:#000000;stroke-width:0.75000006px;stroke-linecap:butt;stroke-linejoin:miter;stroke-opacity:1"
     d="M 29.379662,261.69662 H 346.17965"
     id="path977"
     inkscape:connector-curvature="0" />
  <path
     style="white-space:pre;fill:none;stroke:#000000;stroke-width:0.74019271px;stroke-linecap:butt;stroke-linejoin:miter;stroke-opacity:1"
     d="M 29.379662,261.69663 V 2.2182098"
     id="path979"
     inkscape:connector-curvature="0" />
  <text
     xml:space="preserve"
     style="font-style:normal;font-variant:normal;font-weight:normal;font-stretch:normal;font-size:16.00000094px;line-height:1.25;font-family:Arial;-inkscape-font-specification:Arial;letter-spacing:0px;word-spacing:0px;white-space:pre;fill:#000000;fill-opacity:1;stroke:none;stroke-width:0.75;stroke-linecap:butt;stroke-linejoin:round;"
     x="287.95724"
     y="41.497963"
     id="text5053-8"><tspan
       sodipodi:role="line"
       id="tspan5051-0"
       style="font-size:16.00000094px;white-space:pre;stroke-width:0.75;stroke-linecap:butt;stroke-linejoin:round;"
       x="287.95724"
       y="41.497963"><tspan
   style="font-style:italic;font-variant:normal;font-weight:normal;font-stretch:normal;font-family:Arial;-inkscape-font-specification:'Arial Italic';white-space:pre;stroke-linecap:butt;stroke-linejoin:round;font-size:16.00000094px;"
   id="tspan997">k </tspan>= 12</tspan></text>
  <path
     style="white-space:pre;fill:none;stroke:#1f77b4;stroke-width:2.29606318;stroke-linecap:butt;stroke-linejoin:miter;stroke-miterlimit:4;stroke-dasharray:none;stroke-dashoffset:0;stroke-opacity:1"
     d="m 239.25274,35.369481 h 43.89483"
     id="path1299-93"
     inkscape:connector-curvature="0" />
  <text
     xml:space="preserve"
     style="font-style:normal;font-variant:normal;font-weight:normal;font-stretch:normal;font-size:16.00000094px;line-height:1.25;font-family:Arial;-inkscape-font-specification:Arial;letter-spacing:0px;word-spacing:0px;white-space:pre;fill:#000000;fill-opacity:1;stroke:none;stroke-width:0.75;stroke-linecap:butt;stroke-linejoin:round;"
     x="287.95724"
     y="105.36198"
     id="text5053-8-7"><tspan
       sodipodi:role="line"
       id="tspan5051-0-4"
       style="font-size:16.00000094px;white-space:pre;stroke-width:0.75;stroke-linecap:butt;stroke-linejoin:round;"
       x="287.95724"
       y="105.36198"><tspan
   style="font-style:italic;font-variant:normal;font-weight:normal;font-stretch:normal;font-family:Arial;-inkscape-font-specification:'Arial Italic';white-space:pre;stroke-linecap:butt;stroke-linejoin:round;font-size:16.00000094px;"
   id="tspan997-4">k </tspan>= 120</tspan></text>
  <path
     style="white-space:pre;fill:none;stroke:#d62728;stroke-width:2.29606318;stroke-linecap:butt;stroke-linejoin:miter;stroke-miterlimit:4;stroke-dasharray:none;stroke-dashoffset:0;stroke-opacity:1"
     d="m 239.25274,99.233498 h 43.89483"
     id="path1299-93-7"
     inkscape:connector-curvature="0" />
  <text
     xml:space="preserve"
     style="font-style:normal;font-variant:normal;font-weight:normal;font-stretch:normal;font-size:16.00000094px;line-height:1.25;font-family:Arial;-inkscape-font-specification:Arial;letter-spacing:0px;word-spacing:0px;white-space:pre;fill:#000000;fill-opacity:1;stroke:none;stroke-width:0.75;stroke-linecap:butt;stroke-linejoin:round;"
     x="287.95724"
     y="84.073967"
     id="text5053-8-1"><tspan
       sodipodi:role="line"
       id="tspan5051-0-9"
       style="font-size:16.00000094px;white-space:pre;stroke-width:0.75;stroke-linecap:butt;stroke-linejoin:round;"
       x="287.95724"
       y="84.073967"><tspan
   style="font-style:italic;font-variant:normal;font-weight:normal;font-stretch:normal;font-family:Arial;-inkscape-font-specification:'Arial Italic';white-space:pre;stroke-linecap:butt;stroke-linejoin:round;font-size:16.00000094px;"
   id="tspan997-5">k </tspan>= 66</tspan></text>
  <path
     style="white-space:pre;fill:none;stroke:#2ca02c;stroke-width:2.29606318;stroke-linecap:butt;stroke-linejoin:miter;stroke-miterlimit:4;stroke-dasharray:none;stroke-dashoffset:0;stroke-opacity:1"
     d="m 239.25274,77.945487 h 43.89483"
     id="path1299-93-4"
     inkscape:connector-curvature="0" />
  <text
     xml:space="preserve"
     style="font-style:normal;font-variant:normal;font-weight:normal;font-stretch:normal;font-size:16.00000094px;line-height:1.25;font-family:Arial;-inkscape-font-specification:Arial;letter-spacing:0px;word-spacing:0px;white-space:pre;fill:#000000;fill-opacity:1;stroke:none;stroke-width:0.75;stroke-linecap:butt;stroke-linejoin:round;"
     x="287.95724"
     y="62.78598"
     id="text5053-8-0"><tspan
       sodipodi:role="line"
       id="tspan5051-0-5"
       style="font-size:16.00000094px;white-space:pre;stroke-width:0.75;stroke-linecap:butt;stroke-linejoin:round;"
       x="287.95724"
       y="62.78598"><tspan
   style="font-style:italic;font-variant:normal;font-weight:normal;font-stretch:normal;font-family:Arial;-inkscape-font-specification:'Arial Italic';white-space:pre;stroke-linecap:butt;stroke-linejoin:round;font-size:16.00000094px;"
   id="tspan997-1">k </tspan>= 30</tspan></text>
  <path
     style="white-space:pre;fill:none;stroke:#ff7f0e;stroke-width:2.29606318;stroke-linecap:butt;stroke-linejoin:miter;stroke-miterlimit:4;stroke-dasharray:none;stroke-dashoffset:0;stroke-opacity:1"
     d="m 239.25274,56.657499 h 43.89483"
     id="path1299-93-0"
     inkscape:connector-curvature="0" />
  <rect
     style="white-space:pre;fill:#ffffff;fill-opacity:1;stroke:none;stroke-width:1.14668608;stroke-linecap:butt;stroke-linejoin:round;stroke-miterlimit:4;stroke-dasharray:none;stroke-dashoffset:0;stroke-opacity:1"
     id="rect1121"
     width="24.109034"
     height="286.15424"
     x="1.7706282"
     y="-4.703371" />
  <text
     xml:space="preserve"
     style="font-style:normal;font-variant:normal;font-weight:normal;font-stretch:normal;font-size:16px;line-height:1.25;font-family:Arial;-inkscape-font-specification:Arial;letter-spacing:0px;word-spacing:0px;white-space:pre;fill:#000000;fill-opacity:1;stroke:none;stroke-width:0.75000006;stroke-linecap:butt;stroke-linejoin:round"
     x="36.084721"
     y="279.46643"
     id="text5053-8-4-7-4"><tspan
       sodipodi:role="line"
       id="tspan5051-0-4-2-9"
       style="font-size:16px;white-space:pre;stroke-width:0.75000006;stroke-linecap:butt;stroke-linejoin:round"
       x="36.084721"
       y="279.46643">0</tspan></text>
  <text
     xml:space="preserve"
     style="font-style:normal;font-variant:normal;font-weight:normal;font-stretch:normal;font-size:16px;line-height:1.25;font-family:Arial;-inkscape-font-specification:Arial;letter-spacing:0px;word-spacing:0px;white-space:pre;fill:#000000;fill-opacity:1;stroke:none;stroke-width:0.75000006;stroke-linecap:butt;stroke-linejoin:round"
     x="311.28305"
     y="279.10336"
     id="text1047"><tspan
       sodipodi:role="line"
       id="tspan1045"
       style="font-size:16px;white-space:pre;stroke-width:0.75000006;stroke-linecap:butt;stroke-linejoin:round"
       x="311.28305"
       y="279.10336">Pur.</tspan></text>
  <text
     xml:space="preserve"
     style="font-style:normal;font-variant:normal;font-weight:normal;font-stretch:normal;font-size:16px;line-height:1.25;font-family:Arial;-inkscape-font-specification:Arial;letter-spacing:0px;word-spacing:0px;white-space:pre;fill:#000000;fill-opacity:1;stroke:none;stroke-width:0.75000006;stroke-linecap:butt;stroke-linejoin:round"
     x="134.28481"
     y="279.46643"
     id="text5053-8-4-6"><tspan
       sodipodi:role="line"
       id="tspan5051-0-4-1-9"
       style="font-size:16px;white-space:pre;stroke-width:0.75000006;stroke-linecap:butt;stroke-linejoin:round"
       x="134.28481"
       y="279.46643">0.4</tspan></text>
  <text
     xml:space="preserve"
     style="font-style:normal;font-variant:normal;font-weight:normal;font-stretch:normal;font-size:16px;line-height:1.25;font-family:Arial;-inkscape-font-specification:Arial;letter-spacing:0px;word-spacing:0px;white-space:pre;fill:#000000;fill-opacity:1;stroke:none;stroke-width:0.75000006;stroke-linecap:butt;stroke-linejoin:round"
     x="239.11771"
     y="279.15024"
     id="text5053-8-4-6-4"><tspan
       sodipodi:role="line"
       id="tspan5051-0-4-1-9-2"
       style="font-size:16px;white-space:pre;stroke-width:0.75000006;stroke-linecap:butt;stroke-linejoin:round"
       x="239.11771"
       y="279.15024">0.8</tspan></text>
  <text
     xml:space="preserve"
     style="font-style:normal;font-variant:normal;font-weight:normal;font-stretch:normal;font-size:16.00000094px;line-height:1.25;font-family:Arial;-inkscape-font-specification:Arial;letter-spacing:0px;word-spacing:0px;white-space:pre;fill:#000000;fill-opacity:1;stroke:none;stroke-width:0.75000006;stroke-linecap:butt;stroke-linejoin:round;"
     x="-97.197266"
     y="20.607306"
     id="text1047-5"
     transform="rotate(-90)"><tspan
       sodipodi:role="line"
       id="tspan1045-9"
       style="white-space:pre;stroke-width:0.75000006;stroke-linecap:butt;stroke-linejoin:round;font-size:16.00000094px;"
       x="-97.197266"
       y="20.607306">Density</tspan></text>
  <text
     xml:space="preserve"
     style="font-style:normal;font-variant:normal;font-weight:normal;font-stretch:normal;font-size:16px;line-height:1.25;font-family:Arial;-inkscape-font-specification:Arial;letter-spacing:0px;word-spacing:0px;white-space:pre;fill:#000000;fill-opacity:1;stroke:none;stroke-width:0.75000006;stroke-linecap:butt;stroke-linejoin:round"
     x="81.885941"
     y="279.46643"
     id="text5053-8-4-6-0"><tspan
       sodipodi:role="line"
       id="tspan5051-0-4-1-9-9"
       style="font-size:16px;white-space:pre;stroke-width:0.75000006;stroke-linecap:butt;stroke-linejoin:round"
       x="81.885941"
       y="279.46643">0.2</tspan></text>
  <text
     xml:space="preserve"
     style="font-style:normal;font-variant:normal;font-weight:normal;font-stretch:normal;font-size:16px;line-height:1.25;font-family:Arial;-inkscape-font-specification:Arial;letter-spacing:0px;word-spacing:0px;white-space:pre;fill:#000000;fill-opacity:1;stroke:none;stroke-width:0.75000006;stroke-linecap:butt;stroke-linejoin:round"
     x="186.69931"
     y="279.46643"
     id="text5053-8-4-6-2"><tspan
       sodipodi:role="line"
       id="tspan5051-0-4-1-9-21"
       style="font-size:16px;white-space:pre;stroke-width:0.75000006;stroke-linecap:butt;stroke-linejoin:round"
       x="186.69931"
       y="279.46643">0.6</tspan></text>
</svg>
