<?xml version="1.0" encoding="utf-8" standalone="no"?>
<!DOCTYPE svg PUBLIC "-//W3C//DTD SVG 1.1//EN"
  "http://www.w3.org/Graphics/SVG/1.1/DTD/svg11.dtd">
<!-- Created with matplotlib (https://matplotlib.org/) -->
<svg height="144pt" version="1.1" viewBox="0 0 288 144" width="288pt" xmlns="http://www.w3.org/2000/svg" xmlns:xlink="http://www.w3.org/1999/xlink">
 <defs>
  <style type="text/css">
*{stroke-linecap:butt;stroke-linejoin:round;}
  </style>
 </defs>
 <g id="figure_1">
  <g id="patch_1">
   <path d="M 0 144 
L 288 144 
L 288 0 
L 0 0 
z
" style="fill:none;"/>
  </g>
  <g id="axes_1">
   <g id="line2d_1">
    <path clip-path="url(#p13dc0e1287)" d="M 13.090909 78.08607 
L 16.778489 122.667279 
L 20.466069 130.291011 
L 24.153649 134.397286 
L 27.841229 135.369372 
L 31.528809 136.145003 
L 35.216389 133.151166 
L 38.903969 130.325289 
L 42.591549 119.364542 
L 46.279129 105.478448 
L 49.966709 84.08572 
L 53.654289 76.603437 
L 57.341869 67.37022 
L 61.029449 55.752452 
L 64.717029 71.587002 
L 68.404609 72.309891 
L 72.09219 64.116947 
L 75.77977 59.30173 
L 79.46735 42.720459 
L 83.15493 37.407514 
L 86.84251 26.257432 
L 90.53009 2.972814 
L 94.21767 20.035959 
L 97.90525 39.688756 
L 101.59283 75.191268 
L 105.28041 105.961448 
L 108.96799 125.739784 
L 112.65557 131.877373 
L 116.34315 134.166664 
L 120.03073 134.363571 
L 123.71831 132.768755 
L 127.40589 130.30558 
L 131.09347 119.418253 
L 134.78105 106.219268 
L 138.46863 90.405183 
L 142.15621 75.80208 
L 145.84379 51.4157 
L 149.53137 53.709701 
L 153.21895 62.976751 
L 156.90653 61.823807 
L 160.59411 62.205694 
L 164.28169 42.212364 
L 167.96927 40.209688 
L 171.65685 58.539044 
L 175.34443 46.737235 
L 179.03201 35.330763 
L 182.71959 33.255983 
L 186.40717 41.11454 
L 190.09475 63.514307 
L 193.78233 112.79906 
L 197.46991 126.323654 
L 201.15749 132.297367 
L 204.84507 134.125649 
L 208.53265 135.619913 
L 212.22023 135.379744 
L 215.90781 133.983276 
L 219.595391 128.632853 
L 223.282971 108.541894 
L 226.970551 100.958807 
L 230.658131 77.572516 
L 234.345711 59.38581 
L 238.033291 69.159257 
L 241.720871 86.919391 
L 245.408451 67.948309 
L 249.096031 56.008878 
L 252.783611 67.033085 
L 256.471191 43.199933 
L 260.158771 38.407302 
L 263.846351 30.945441 
L 267.533931 36.130631 
L 271.221511 36.867725 
L 274.909091 47.625993 
" style="fill:none;stroke:#000000;stroke-linecap:square;stroke-width:1.5;"/>
   </g>
   <g id="line2d_2">
    <path clip-path="url(#p13dc0e1287)" d="M 13.090909 103.351444 
L 16.778489 114.677031 
L 20.466069 123.756712 
L 24.153649 124.708383 
L 27.841229 133.120128 
L 31.528809 130.762312 
L 35.216389 124.001951 
L 38.903969 121.340177 
L 42.591549 114.864072 
L 46.279129 112.312038 
L 49.966709 110.84167 
L 53.654289 109.965318 
L 57.341869 109.119909 
L 61.029449 111.302959 
L 64.717029 113.991972 
L 68.404609 114.354838 
L 72.09219 110.936801 
L 75.77977 108.439998 
L 79.46735 110.294803 
L 83.15493 109.83571 
L 86.84251 106.455428 
L 90.53009 110.302532 
L 94.21767 107.00791 
L 97.90525 104.054452 
L 101.59283 102.835333 
L 105.28041 105.925066 
L 108.96799 115.944371 
L 112.65557 122.451843 
L 116.34315 129.00669 
L 120.03073 131.018447 
L 123.71831 123.629539 
L 127.40589 120.833648 
L 131.09347 112.087796 
L 134.78105 115.681324 
L 138.46863 111.602392 
L 142.15621 113.833821 
L 145.84379 112.929824 
L 149.53137 112.691415 
L 153.21895 114.212754 
L 156.90653 113.640772 
L 160.59411 115.700239 
L 164.28169 109.922827 
L 167.96927 110.962529 
L 171.65685 109.578178 
L 175.34443 104.286894 
L 179.03201 102.939309 
L 182.71959 106.375132 
L 186.40717 104.30236 
L 190.09475 104.573093 
L 193.78233 109.300968 
L 197.46991 114.657368 
L 201.15749 124.646202 
L 204.84507 131.609406 
L 208.53265 133.447035 
L 212.22023 126.222521 
L 215.90781 123.416227 
L 219.595391 119.891599 
L 223.282971 111.431731 
L 226.970551 114.402391 
L 230.658131 112.645227 
L 234.345711 109.955391 
L 238.033291 112.574176 
L 241.720871 111.721292 
L 245.408451 108.795909 
L 249.096031 107.755043 
L 252.783611 107.467331 
L 256.471191 108.687846 
L 260.158771 105.315463 
L 263.846351 104.733944 
L 267.533931 103.405243 
L 271.221511 105.621276 
L 274.909091 102.781843 
" style="fill:none;stroke:#000000;stroke-dasharray:5.55,2.4;stroke-dashoffset:0;stroke-width:1.5;"/>
   </g>
  </g>
 </g>
 <defs>
  <clipPath id="p13dc0e1287">
   <rect height="144" width="288" x="0" y="0"/>
  </clipPath>
 </defs>
</svg>
