<?xml version="1.0" encoding="utf-8" standalone="no"?>
<!DOCTYPE svg PUBLIC "-//W3C//DTD SVG 1.1//EN"
  "http://www.w3.org/Graphics/SVG/1.1/DTD/svg11.dtd">
<!-- Created with matplotlib (https://matplotlib.org/) -->
<svg height="144pt" version="1.1" viewBox="0 0 288 144" width="288pt" xmlns="http://www.w3.org/2000/svg" xmlns:xlink="http://www.w3.org/1999/xlink">
 <defs>
  <style type="text/css">
*{stroke-linecap:butt;stroke-linejoin:round;}
  </style>
 </defs>
 <g id="figure_1">
  <g id="patch_1">
   <path d="M 0 144 
L 288 144 
L 288 0 
L 0 0 
z
" style="fill:none;"/>
  </g>
  <g id="axes_1">
   <g id="line2d_1">
    <path clip-path="url(#pcc406ad156)" d="M 13.090909 77.00818 
L 16.778489 69.209228 
L 20.466069 69.209228 
L 24.153649 61.410275 
L 27.841229 45.812369 
L 31.528809 61.410275 
L 35.216389 69.209228 
L 38.903969 53.611322 
L 42.591549 77.00818 
L 46.279129 69.209228 
L 49.966709 69.209228 
L 53.654289 69.209228 
L 57.341869 84.807133 
L 61.029449 69.209228 
L 64.717029 69.209228 
L 68.404609 61.410275 
L 72.09219 45.812369 
L 75.77977 53.611322 
L 79.46735 30.214464 
L 83.15493 69.209228 
L 86.84251 69.209228 
L 90.53009 61.410275 
L 94.21767 14.616558 
L 97.90525 69.209228 
L 101.59283 69.209228 
L 105.28041 69.209228 
L 108.96799 69.209228 
L 112.65557 69.209228 
L 116.34315 69.209228 
L 120.03073 61.410275 
L 123.71831 69.209228 
L 127.40589 53.611322 
L 131.09347 61.410275 
L 134.78105 61.410275 
L 138.46863 69.209228 
L 142.15621 45.812369 
L 145.84379 69.209228 
L 149.53137 77.00818 
L 153.21895 69.209228 
L 156.90653 69.209228 
L 160.59411 61.410275 
L 164.28169 30.214464 
L 167.96927 53.611322 
L 171.65685 69.209228 
L 175.34443 61.410275 
L 179.03201 61.410275 
L 182.71959 53.611322 
L 186.40717 69.209228 
L 190.09475 69.209228 
L 193.78233 77.00818 
L 197.46991 53.611322 
L 201.15749 53.611322 
L 204.84507 45.812369 
L 208.53265 38.013417 
L 212.22023 38.013417 
L 215.90781 38.013417 
L 219.595391 6.817606 
L 223.282971 -0.981347 
L 226.970551 38.013417 
L 230.658131 77.00818 
L 234.345711 69.209228 
L 238.033291 84.807133 
L 241.720871 69.209228 
L 245.408451 69.209228 
L 249.096031 69.209228 
L 252.783611 77.00818 
L 256.471191 84.807133 
L 260.158771 61.410275 
L 263.846351 38.013417 
L 267.533931 61.410275 
L 271.221511 77.00818 
L 274.909091 61.410275 
" style="fill:none;stroke:#000000;stroke-linecap:square;stroke-width:1.5;"/>
   </g>
   <g id="line2d_2">
    <path clip-path="url(#pcc406ad156)" d="M 13.090909 132.146976 
L 16.778489 136.216057 
L 20.466069 138.277121 
L 24.153649 132.123439 
L 27.841229 133.354802 
L 31.528809 121.180567 
L 35.216389 132.123807 
L 38.903969 125.803841 
L 42.591549 123.679977 
L 46.279129 132.040732 
L 49.966709 130.670941 
L 53.654289 134.920818 
L 57.341869 131.721806 
L 61.029449 130.452521 
L 64.717029 137.288099 
L 68.404609 136.67082 
L 72.09219 131.450363 
L 75.77977 123.039959 
L 79.46735 140.136215 
L 83.15493 132.547991 
L 86.84251 135.084721 
L 90.53009 135.008245 
L 94.21767 142.717883 
L 97.90525 129.614378 
L 101.59283 136.461016 
L 105.28041 130.207268 
L 108.96799 142.822128 
L 112.65557 123.509228 
L 116.34315 125.845582 
L 120.03073 134.401835 
L 123.71831 134.413479 
L 127.40589 140.63945 
L 131.09347 139.428214 
L 134.78105 137.733071 
L 138.46863 138.644514 
L 142.15621 141.518914 
L 145.84379 138.788023 
L 149.53137 132.020299 
L 153.21895 129.618906 
L 156.90653 135.323267 
L 160.59411 140.450802 
L 164.28169 139.879858 
L 167.96927 134.357514 
L 171.65685 136.617307 
L 175.34443 133.908056 
L 179.03201 140.735713 
L 182.71959 138.93853 
L 186.40717 127.474633 
L 190.09475 136.704955 
L 193.78233 132.662416 
L 197.46991 127.83854 
L 201.15749 134.937942 
L 204.84507 125.474664 
L 208.53265 126.165611 
L 212.22023 135.651604 
L 215.90781 140.534865 
L 219.595391 141.177972 
L 223.282971 142.87544 
L 226.970551 133.432882 
L 230.658131 131.741638 
L 234.345711 133.040939 
L 238.033291 136.056968 
L 241.720871 127.861367 
L 245.408451 133.909863 
L 249.096031 132.47965 
L 252.783611 132.0509 
L 256.471191 135.787208 
L 260.158771 136.567666 
L 263.846351 136.822005 
L 267.533931 131.270618 
L 271.221511 137.787936 
L 274.909091 133.51072 
" style="fill:none;stroke:#000000;stroke-dasharray:5.55,2.4;stroke-dashoffset:0;stroke-width:1.5;"/>
   </g>
  </g>
 </g>
 <defs>
  <clipPath id="pcc406ad156">
   <rect height="144" width="288" x="0" y="0"/>
  </clipPath>
 </defs>
</svg>
